<svg width="1020" height="300" viewBox="0 0 1020 300" fill="none" xmlns="http://www.w3.org/2000/svg">
<rect x="0.00341797" y="300" width="300" height="1020" rx="15" transform="rotate(-90 0.00341797 300)" fill="#1E1E1E"/>
<mask id="mask0_150_388" style="mask-type:alpha" maskUnits="userSpaceOnUse" x="0" y="0" width="1020" height="300">
<rect y="300" width="300" height="1020" rx="15" transform="rotate(-90 0 300)" fill="#1E1E1E"/>
</mask>
<g mask="url(#mask0_150_388)">
<mask id="path-3-outside-1_150_388" maskUnits="userSpaceOnUse" x="-148" y="-145" width="1422" height="606" fill="black">
<rect fill="white" x="-148" y="-145" width="1422" height="606"/>
<path d="M-130.762 445.675C-130.762 446.969 -130.277 447.615 -129.307 447.615C-119.93 447.615 -89.3753 419.324 -37.642 362.74C13.768 306.48 69.058 241.49 128.228 167.77C79.0813 200.427 33.4913 235.185 -8.54199 272.045C-58.6587 315.372 -93.7403 354.98 -113.787 390.87C-125.104 411.24 -130.762 429.509 -130.762 445.675ZM-140.947 458.285C-144.18 458.285 -145.797 456.184 -145.797 451.98C-145.797 430.317 -136.744 405.905 -118.637 378.745C-100.854 351.585 -77.0887 324.587 -47.342 297.75C6.97801 247.957 68.7347 200.75 137.928 156.13C190.631 89.8469 233.958 31.4852 267.908 -18.9548C302.181 -69.7181 319.318 -103.021 319.318 -118.865C319.318 -123.715 318.51 -126.625 316.893 -127.595C315.6 -128.565 312.205 -129.05 306.708 -129.05C282.458 -129.05 252.873 -119.673 217.953 -100.92C183.356 -82.4898 151.346 -60.8264 121.923 -35.9298C92.4997 -11.3564 67.2797 13.8636 46.263 39.7302C25.2463 65.5969 14.738 85.4819 14.738 99.3852C14.738 111.349 22.498 117.33 38.018 117.33C53.538 117.33 73.7463 110.864 98.643 97.9302C123.54 84.9969 144.718 72.0636 162.178 59.1302L188.853 39.7302L193.218 40.7002C171.878 59.4536 146.658 77.2369 117.558 94.0502C105.271 101.164 91.2063 107.792 75.363 113.935C59.843 119.755 46.263 122.665 34.623 122.665C15.5463 122.665 6.008 114.582 6.008 98.4152C6.008 82.2486 15.223 61.0702 33.653 34.8802C52.083 8.36689 75.2013 -17.4998 103.008 -42.7198C130.815 -68.2631 163.31 -90.2498 200.493 -108.68C237.676 -127.11 272.596 -136.325 305.253 -136.325C313.336 -136.325 318.671 -134.708 321.258 -131.475C323.845 -128.241 325.138 -122.583 325.138 -114.5C325.138 -72.7898 278.416 7.72021 184.973 127.03C207.606 113.127 219.893 106.175 221.833 106.175C224.096 106.175 225.228 106.66 225.228 107.63C225.228 108.6 224.581 109.57 223.288 110.54C214.558 114.42 199.361 122.989 177.698 136.245C114.971 215.139 50.143 288.535 -16.787 356.435C-83.717 424.335 -125.104 458.285 -140.947 458.285ZM474.374 252.16C489.57 252.16 537.1 225.324 616.964 171.65L649.459 151.28C651.722 149.987 654.147 149.34 656.734 149.34C659.32 149.34 660.614 149.664 660.614 150.31C660.614 150.957 660.129 151.604 659.159 152.25L624.239 173.59C619.389 176.824 609.689 183.452 595.139 193.475C580.589 203.175 568.787 210.935 559.734 216.755C550.68 222.575 540.01 229.204 527.724 236.64C503.474 250.867 484.559 257.98 470.979 257.98C465.805 257.334 463.219 252.645 463.219 243.915C463.219 235.185 468.392 220.959 478.739 201.235C489.085 181.512 501.372 161.304 515.599 140.61C530.149 119.917 544.699 99.8702 559.249 80.4702C573.799 61.0702 585.762 45.2269 595.139 32.9402C604.515 20.3302 608.88 14.0252 608.234 14.0252C606.617 14.0252 592.552 26.4735 566.039 51.3702C539.525 75.9435 510.264 102.942 478.254 132.365C446.244 161.789 413.91 188.949 381.254 213.845C348.597 238.419 326.125 250.705 313.839 250.705C308.989 250.705 306.564 248.119 306.564 242.945C306.564 219.019 333.724 174.075 388.044 108.115C410.677 80.6319 433.31 52.9869 455.944 25.1802C478.577 -2.62647 497.815 -29.6248 513.659 -55.8148C529.502 -82.3281 537.424 -103.668 537.424 -119.835C537.424 -124.361 536.13 -127.918 533.544 -130.505C530.957 -133.091 528.047 -134.708 524.814 -135.355C521.904 -136.001 517.539 -136.486 511.719 -136.81C493.935 -136.486 474.05 -129.535 452.064 -115.955C430.077 -102.698 409.384 -85.8848 389.984 -65.5148C370.584 -45.4681 352.639 -24.4514 336.149 -2.46478C319.982 19.5219 307.049 40.0535 297.349 59.1302C287.649 78.2069 282.799 92.1102 282.799 100.84C282.799 109.247 285.87 113.45 292.014 113.45C304.3 113.45 321.437 105.852 343.424 90.6552C365.734 75.4586 384.972 60.2619 401.139 45.0652L424.904 22.2702C426.844 20.3302 428.46 19.3602 429.754 19.3602C431.047 19.3602 431.694 19.8452 431.694 20.8152C431.694 21.4619 430.724 22.7552 428.784 24.6952L419.569 33.9102C415.365 38.1135 407.12 45.5502 394.834 56.2202C382.547 66.8902 370.907 76.2669 359.914 84.3502C349.244 92.4335 337.604 99.8702 324.994 106.66C312.384 113.45 302.037 116.845 293.954 116.845C278.11 116.845 270.189 108.6 270.189 92.1102C270.189 79.1769 274.877 62.8486 284.254 43.1252C293.954 23.4019 307.049 3.03188 323.539 -17.9848C340.352 -39.3248 358.782 -59.3715 378.829 -78.1248C398.875 -96.8781 420.862 -112.236 444.789 -124.2C469.039 -136.163 491.51 -142.145 512.204 -142.145C533.22 -142.145 543.729 -133.576 543.729 -116.44C543.729 -93.4831 535.807 -66.9698 519.964 -36.8998C504.12 -6.8298 484.882 22.2702 462.249 50.4002C439.939 78.2069 417.467 105.044 394.834 130.91C372.524 156.454 353.447 179.41 337.604 199.78C321.76 219.827 313.839 233.892 313.839 241.975C313.839 243.592 314.647 244.4 316.264 244.4C329.844 244.4 361.045 224.515 409.869 184.745C458.692 144.652 503.959 104.72 545.669 64.9502L608.719 5.2952C635.555 -21.5415 658.512 -46.1148 677.589 -68.4248C696.665 -91.0581 707.012 -103.183 708.629 -104.8C712.832 -110.943 716.712 -114.015 720.269 -114.015C723.825 -114.015 727.22 -113.368 730.454 -112.075C733.687 -111.105 735.304 -109.973 735.304 -108.68C735.304 -105.446 710.569 -73.2748 661.099 -12.1648C611.952 48.6219 586.732 79.9852 585.439 81.9252C584.145 83.5419 578.002 90.9785 567.009 104.235C556.015 117.492 545.669 130.425 535.969 143.035C526.269 155.322 516.084 168.74 505.414 183.29C481.81 215.624 470.009 236.964 470.009 247.31C470.009 250.544 471.464 252.16 474.374 252.16ZM760.728 248.765C773.015 248.765 786.595 238.904 801.468 219.18C816.341 199.457 830.083 175.207 842.693 146.43C855.303 117.33 866.943 87.4219 877.613 56.7052C888.606 25.9885 897.175 -1.33316 903.318 -25.2598C909.461 -49.5098 912.533 -63.8982 912.533 -68.4248C912.533 -72.9515 912.21 -75.2148 911.563 -75.2148C908.653 -75.2148 890.223 -57.2698 856.273 -21.3798C822.323 14.1868 795.325 41.9935 775.278 62.0402C755.231 82.0869 731.79 104.397 704.953 128.97C649.34 179.41 585.966 224.192 514.833 263.315C512.893 264.285 510.953 264.77 509.013 264.77C507.073 264.77 506.103 264.124 506.103 262.83C506.103 261.537 507.235 260.405 509.498 259.435C557.351 234.862 604.72 203.337 651.603 164.86C699.78 125.09 738.741 90.1702 768.488 60.1002C798.235 29.7069 820.868 6.26519 836.388 -10.2248C851.908 -26.7148 870.338 -46.4382 891.678 -69.3948C913.341 -92.3515 929.831 -109.811 941.148 -121.775C943.088 -123.715 944.705 -124.685 945.998 -124.685C947.291 -124.685 947.938 -123.715 947.938 -121.775C947.938 -111.751 944.866 -92.9982 938.723 -65.5148C932.58 -38.0315 923.526 -6.02148 911.563 30.5152C899.6 66.7285 886.181 101.649 871.308 135.275C856.435 168.902 838.813 197.355 818.443 220.635C798.073 243.592 777.703 255.07 757.333 255.07C744.723 255.07 734.7 248.442 727.263 235.185C720.15 222.252 716.593 205.277 716.593 184.26C716.593 162.92 721.766 143.359 732.113 125.575C734.7 121.049 736.963 118.785 738.903 118.785C740.52 118.785 741.651 120.079 742.298 122.665C739.065 128.162 736.155 137.7 733.568 151.28C730.981 164.537 729.688 177.955 729.688 191.535C729.688 229.689 740.035 248.765 760.728 248.765ZM1262.96 -130.505C1262.96 -133.415 1261.35 -134.87 1258.11 -134.87C1245.5 -134.87 1216.08 -110.62 1169.84 -62.1198C1191.83 -65.9998 1212.85 -76.1848 1232.89 -92.6748C1252.94 -109.165 1262.96 -121.775 1262.96 -130.505ZM977.784 -87.8248C977.784 -79.0948 968.731 -65.1915 950.624 -46.1148C932.841 -27.3615 917.644 -17.9848 905.034 -17.9848C895.981 -17.9848 891.454 -22.0265 891.454 -30.1098C891.454 -45.9532 903.902 -64.5448 928.799 -85.8848C953.696 -107.548 981.341 -118.38 1011.73 -118.38C1022.08 -118.38 1035.01 -114.015 1050.53 -105.285C1066.05 -96.8782 1082.71 -87.8248 1100.49 -78.1248C1118.6 -68.4248 1134.92 -62.7665 1149.47 -61.1498C1203.79 -114.823 1240.65 -141.66 1260.05 -141.66C1267.81 -141.66 1271.69 -138.75 1271.69 -132.93C1271.69 -121.613 1260.38 -107.063 1237.74 -89.2798C1215.43 -71.8198 1191.18 -60.9882 1164.99 -56.7848C1115.2 -3.75817 1061.37 59.9385 1003.49 134.305C945.936 208.349 917.159 250.22 917.159 259.92C917.159 260.89 917.482 261.375 918.129 261.375C919.099 261.375 920.069 261.052 921.039 260.405C922.332 259.759 923.626 258.95 924.919 257.98C926.536 257.334 927.829 256.687 928.799 256.04C929.769 255.394 930.416 255.07 930.739 255.07C931.062 255.07 931.224 255.555 931.224 256.525C931.224 260.082 925.566 265.902 914.249 273.985C903.256 282.069 895.657 286.11 891.454 286.11C886.281 286.11 883.694 283.2 883.694 277.38C883.694 262.184 912.794 217.079 970.994 142.065C1029.52 67.0518 1086.91 1.2535 1143.17 -55.3298C1124.42 -55.6532 1107.44 -58.5632 1092.24 -64.0598C1077.37 -69.8798 1065.89 -76.0232 1057.81 -82.4898C1035.82 -99.9498 1014.32 -108.68 993.304 -108.68C972.611 -108.68 952.887 -98.9798 934.134 -79.5798C915.381 -60.1798 906.004 -44.3365 906.004 -32.0498C906.004 -28.1698 907.621 -26.2298 910.854 -26.2298C919.907 -26.2298 930.901 -33.1815 943.834 -47.0848C957.091 -60.9882 966.306 -74.0832 971.479 -86.3698C973.096 -89.2798 974.227 -90.7348 974.874 -90.7348C976.814 -90.7348 977.784 -89.7648 977.784 -87.8248Z"/>
</mask>
<path d="M-37.642 362.74L-36.1659 364.09L-36.1656 364.089L-37.642 362.74ZM128.228 167.77L129.788 169.022L127.121 166.104L128.228 167.77ZM-8.54199 272.045L-7.23395 273.558L-7.22334 273.549L-8.54199 272.045ZM-113.787 390.87L-115.533 389.895L-115.535 389.899L-113.787 390.87ZM-118.637 378.745L-116.973 379.855L-116.968 379.848L-116.964 379.841L-118.637 378.745ZM-47.342 297.75L-46.0023 299.235L-45.9964 299.23L-45.9905 299.225L-47.342 297.75ZM137.928 156.13L139.012 157.811L139.289 157.633L139.493 157.375L137.928 156.13ZM267.908 -18.9548L266.25 -20.0739L266.249 -20.0715L267.908 -18.9548ZM316.893 -127.595L315.693 -125.995L315.776 -125.933L315.864 -125.88L316.893 -127.595ZM217.953 -100.92L218.893 -99.1546L218.899 -99.1578L217.953 -100.92ZM121.923 -35.9298L123.205 -34.3947L123.215 -34.403L121.923 -35.9298ZM46.263 39.7302L44.7108 38.469L44.7108 38.469L46.263 39.7302ZM98.643 97.9302L97.721 96.1554L97.721 96.1554L98.643 97.9302ZM162.178 59.1302L161.002 57.5128L160.995 57.5179L160.988 57.5231L162.178 59.1302ZM188.853 39.7302L189.287 37.7778L188.406 37.5821L187.677 38.1127L188.853 39.7302ZM193.218 40.7002L194.538 42.2026L197.497 39.6023L193.652 38.7478L193.218 40.7002ZM117.558 94.0502L116.557 92.3185L116.556 92.3194L117.558 94.0502ZM75.363 113.935L76.0653 115.808L76.0757 115.804L76.0861 115.8L75.363 113.935ZM33.653 34.8802L35.2886 36.0312L35.2952 36.0218L33.653 34.8802ZM103.008 -42.7198L104.352 -41.2383L104.361 -41.2469L103.008 -42.7198ZM200.493 -108.68L201.381 -106.888L201.381 -106.888L200.493 -108.68ZM321.258 -131.475L322.82 -132.724L322.82 -132.724L321.258 -131.475ZM184.973 127.03L183.398 125.797L186.02 128.734L184.973 127.03ZM223.288 110.54L224.1 112.368L224.307 112.276L224.488 112.14L223.288 110.54ZM177.698 136.245L176.654 134.539L176.353 134.724L176.133 135.001L177.698 136.245ZM-16.787 356.435L-15.3626 357.839L-15.3626 357.839L-16.787 356.435ZM-132.762 445.675C-132.762 446.514 -132.615 447.508 -131.998 448.33C-131.3 449.261 -130.28 449.615 -129.307 449.615L-129.307 445.615C-129.329 445.615 -129.255 445.612 -129.131 445.666C-128.996 445.726 -128.878 445.823 -128.798 445.93C-128.726 446.026 -128.72 446.082 -128.731 446.039C-128.742 445.994 -128.762 445.88 -128.762 445.675L-132.762 445.675ZM-129.307 449.615C-127.689 449.615 -125.863 449.023 -123.929 448.091C-121.959 447.141 -119.694 445.747 -117.147 443.942C-112.053 440.333 -105.664 434.961 -97.9994 427.864C-82.6607 413.661 -62.0445 392.395 -36.1659 364.09L-39.118 361.391C-64.9728 389.669 -85.5008 410.84 -100.717 424.929C-108.33 431.978 -114.572 437.215 -119.46 440.679C-121.905 442.411 -123.97 443.669 -125.667 444.488C-127.401 445.324 -128.581 445.615 -129.307 445.615L-129.307 449.615ZM-36.1656 364.089C15.2791 307.791 70.5971 242.768 129.788 169.022L126.668 166.518C67.519 240.213 12.2569 305.169 -39.1184 361.391L-36.1656 364.089ZM127.121 166.104C77.9044 198.808 32.2432 233.62 -9.86063 270.542L-7.22334 273.549C34.7395 236.751 80.2583 202.046 129.335 169.436L127.121 166.104ZM-9.84999 270.532C-60.0486 313.93 -95.3248 353.716 -115.533 389.895L-112.041 391.846C-92.1559 356.245 -57.2687 316.814 -7.23399 273.558L-9.84999 270.532ZM-115.535 389.899C-126.949 410.443 -132.762 429.051 -132.762 445.675L-128.762 445.675C-128.762 429.966 -123.259 412.037 -112.039 391.842L-115.535 389.899ZM-140.947 456.285C-142.094 456.285 -142.653 455.939 -142.999 455.49C-143.422 454.94 -143.797 453.882 -143.797 451.98L-147.797 451.98C-147.797 454.282 -147.364 456.376 -146.17 457.928C-144.899 459.58 -143.033 460.285 -140.947 460.285L-140.947 456.285ZM-143.797 451.98C-143.797 430.865 -134.964 406.842 -116.973 379.855L-120.301 377.636C-138.523 404.968 -147.797 429.769 -147.797 451.98L-143.797 451.98ZM-116.964 379.841C-99.2933 352.853 -75.65 325.983 -46.0023 299.235L-48.6817 296.265C-78.5273 323.191 -102.414 350.317 -120.31 377.65L-116.964 379.841ZM-45.9905 299.225C8.23725 249.516 69.9026 202.377 139.012 157.811L136.844 154.449C67.5668 199.124 5.71877 246.398 -48.6934 296.276L-45.9905 299.225ZM139.493 157.375C192.218 91.0649 235.579 32.6591 269.567 -17.838L266.249 -20.0715C232.337 30.3114 189.045 88.6288 136.363 154.886L139.493 157.375ZM269.566 -17.8357C286.723 -43.2474 299.624 -64.3378 308.244 -81.0897C316.81 -97.7378 321.318 -110.411 321.318 -118.865L317.318 -118.865C317.318 -111.475 313.257 -99.5752 304.687 -82.9199C296.17 -66.3685 283.367 -45.4255 266.25 -20.0739L269.566 -17.8357ZM321.318 -118.865C321.318 -121.376 321.112 -123.518 320.639 -125.22C320.176 -126.885 319.37 -128.441 317.922 -129.31L315.864 -125.88C316.033 -125.779 316.439 -125.394 316.785 -124.15C317.12 -122.941 317.318 -121.204 317.318 -118.865L321.318 -118.865ZM318.093 -129.195C317.012 -130.006 315.395 -130.418 313.66 -130.666C311.83 -130.927 309.502 -131.05 306.708 -131.05L306.708 -127.05C309.411 -127.05 311.529 -126.93 313.094 -126.706C314.753 -126.469 315.481 -126.154 315.693 -125.995L318.093 -129.195ZM306.708 -131.05C281.982 -131.05 252.054 -121.503 217.007 -102.682L218.899 -99.1578C253.692 -117.843 282.935 -127.05 306.708 -127.05L306.708 -131.05ZM217.013 -102.685C182.293 -84.1893 150.165 -62.4465 120.631 -37.4566L123.215 -34.403C152.528 -59.2064 184.42 -80.7902 218.893 -99.1546L217.013 -102.685ZM120.641 -37.4648C91.1334 -12.8211 65.8195 12.4891 44.7108 38.469L47.8152 40.9914C68.7398 15.2381 93.866 -9.89178 123.205 -34.3947L120.641 -37.4648ZM44.7108 38.469C34.1553 51.4604 26.1879 63.0105 20.851 73.1095C15.5285 83.1814 12.738 91.9663 12.738 99.3852L16.738 99.3852C16.738 92.9008 19.2017 84.7916 24.3875 74.9784C29.559 65.1925 37.354 53.8667 47.8152 40.9914L44.7108 38.469ZM12.738 99.3852C12.738 105.835 14.8564 110.974 19.337 114.428C23.7188 117.806 30.0569 119.33 38.018 119.33L38.018 115.33C30.4591 115.33 25.1572 113.864 21.779 111.26C18.4996 108.732 16.738 104.899 16.738 99.3852L12.738 99.3852ZM38.018 119.33C54.0237 119.33 74.5788 112.685 99.565 99.705L97.721 96.1554C72.9139 109.042 53.0523 115.33 38.018 115.33L38.018 119.33ZM99.565 99.705C124.53 86.7362 145.803 73.7486 163.368 60.7373L160.988 57.5231C143.633 70.3785 122.549 83.2576 97.721 96.1554L99.565 99.705ZM163.354 60.7477L190.029 41.3477L187.677 38.1127L161.002 57.5128L163.354 60.7477ZM188.419 41.6826L192.784 42.6526L193.652 38.7478L189.287 37.7778L188.419 41.6826ZM191.898 39.1979C170.673 57.8504 145.564 75.5594 116.557 92.3185L118.559 95.782C147.752 78.9144 173.084 61.0567 194.538 42.2026L191.898 39.1979ZM116.556 92.3194C104.374 99.372 90.4051 105.957 74.6399 112.071L76.0861 115.8C92.0076 109.626 106.169 102.955 118.56 95.7811L116.556 92.3194ZM74.6608 112.063C59.2778 117.831 45.9448 120.665 34.623 120.665L34.623 124.665C46.5812 124.665 60.4082 121.679 76.0653 115.808L74.6608 112.063ZM34.623 120.665C25.3196 120.665 18.7149 118.687 14.4548 115.077C10.2581 111.52 8.008 106.096 8.008 98.4152L4.008 98.4152C4.008 106.902 6.52707 113.602 11.8687 118.129C17.147 122.602 24.8498 124.665 34.623 124.665L34.623 120.665ZM8.008 98.4152C8.008 82.9029 16.9016 62.1602 35.2886 36.0312L32.0174 33.7292C13.5444 59.9803 4.008 81.5943 4.008 98.4152L8.008 98.4152ZM35.2952 36.0218C53.6262 9.65081 76.6394 -16.104 104.352 -41.2383L101.664 -44.2012C73.7633 -18.8956 50.5398 7.08297 32.0108 33.7387L35.2952 36.0218ZM104.361 -41.2469C132.016 -66.6505 164.35 -88.5335 201.381 -106.888L199.605 -110.472C162.269 -91.9661 129.614 -69.8757 101.655 -44.1927L104.361 -41.2469ZM201.381 -106.888C238.361 -125.217 272.976 -134.325 305.253 -134.325L305.253 -138.325C272.216 -138.325 236.992 -129.003 199.605 -110.472L201.381 -106.888ZM305.253 -134.325C313.255 -134.325 317.727 -132.687 319.696 -130.225L322.82 -132.724C319.616 -136.729 313.418 -138.325 305.253 -138.325L305.253 -134.325ZM319.696 -130.225C321.833 -127.555 323.138 -122.498 323.138 -114.5L327.138 -114.5C327.138 -122.668 325.857 -128.928 322.82 -132.724L319.696 -130.225ZM323.138 -114.5C323.138 -94.2256 311.719 -64.0788 288.367 -23.8386C265.072 16.3027 230.094 66.1757 183.398 125.797L186.548 128.263C233.296 68.5747 268.4 18.5378 291.827 -21.8309C315.196 -62.1008 327.138 -93.064 327.138 -114.5L323.138 -114.5ZM186.02 128.734C197.331 121.786 206.036 116.588 212.148 113.13C215.207 111.399 217.591 110.118 219.316 109.276C220.181 108.853 220.849 108.556 221.337 108.368C221.918 108.145 222.004 108.175 221.833 108.175L221.833 104.175C221.177 104.175 220.455 104.422 219.904 104.634C219.26 104.881 218.473 105.235 217.56 105.682C215.728 106.577 213.262 107.903 210.178 109.648C204.003 113.142 195.249 118.371 183.926 125.326L186.02 128.734ZM221.833 108.175C222.332 108.175 222.729 108.202 223.035 108.246C223.349 108.291 223.519 108.346 223.591 108.377C223.664 108.408 223.562 108.382 223.437 108.222C223.291 108.033 223.228 107.807 223.228 107.63L227.228 107.63C227.228 106.968 227.024 106.318 226.595 105.766C226.187 105.242 225.66 104.912 225.167 104.701C224.223 104.296 223.046 104.175 221.833 104.175L221.833 108.175ZM223.228 107.63C223.228 107.647 223.21 108.098 222.088 108.94L224.488 112.14C225.952 111.042 227.228 109.553 227.228 107.63L223.228 107.63ZM222.476 108.713C213.61 112.653 198.309 121.288 176.654 134.539L178.742 137.951C200.414 124.689 215.506 116.187 224.1 112.368L222.476 108.713ZM176.133 135.001C113.448 213.841 48.6661 287.185 -18.2113 355.031L-15.3626 357.839C51.6199 289.886 116.495 216.436 179.264 137.49L176.133 135.001ZM-18.2113 355.031C-51.6586 388.963 -78.6804 414.368 -99.2929 431.276C-109.602 439.733 -118.265 446.029 -125.296 450.2C-132.412 454.421 -137.566 456.285 -140.947 456.285L-140.947 460.285C-136.407 460.285 -130.446 457.906 -123.255 453.64C-115.978 449.323 -107.14 442.887 -96.756 434.369C-75.9819 417.328 -48.8453 391.807 -15.3626 357.839L-18.2113 355.031ZM616.964 171.65L615.901 169.956L615.875 169.973L615.848 169.99L616.964 171.65ZM649.459 151.28L648.466 149.544L648.431 149.564L648.396 149.586L649.459 151.28ZM659.159 152.25L660.202 153.957L660.235 153.936L660.268 153.914L659.159 152.25ZM624.239 173.59L623.196 171.884L623.162 171.904L623.129 171.926L624.239 173.59ZM595.139 193.475L596.248 195.139L596.261 195.131L596.273 195.122L595.139 193.475ZM559.734 216.755L558.652 215.073L558.652 215.073L559.734 216.755ZM527.724 236.64L528.736 238.365L528.748 238.358L528.759 238.351L527.724 236.64ZM470.979 257.98L470.731 259.965L470.854 259.98L470.979 259.98L470.979 257.98ZM478.739 201.235L480.51 202.164L480.51 202.164L478.739 201.235ZM515.599 140.61L513.963 139.46L513.957 139.468L513.951 139.477L515.599 140.61ZM595.139 32.9402L596.729 34.1535L596.736 34.1436L596.744 34.1336L595.139 32.9402ZM566.039 51.3702L567.398 52.8371L567.408 52.8282L566.039 51.3702ZM478.254 132.365L476.9 130.893L476.9 130.893L478.254 132.365ZM381.254 213.845L382.456 215.443L382.466 215.436L381.254 213.845ZM388.044 108.115L386.5 106.844L386.5 106.844L388.044 108.115ZM455.944 25.1802L454.393 23.9177L454.393 23.9177L455.944 25.1802ZM513.659 -55.8148L515.37 -54.7796L515.376 -54.7889L513.659 -55.8148ZM533.544 -130.505L532.129 -129.091L532.129 -129.091L533.544 -130.505ZM524.814 -135.355L524.38 -133.402L524.401 -133.398L524.421 -133.394L524.814 -135.355ZM511.719 -136.81L511.83 -138.807L511.756 -138.811L511.682 -138.809L511.719 -136.81ZM452.064 -115.955L453.096 -114.242L453.106 -114.248L453.115 -114.253L452.064 -115.955ZM389.984 -65.5148L391.421 -64.124L391.426 -64.1297L391.432 -64.1355L389.984 -65.5148ZM336.149 -2.46478L334.549 -3.66478L334.543 -3.6572L334.537 -3.64956L336.149 -2.46478ZM297.349 59.1302L299.131 60.0367L299.131 60.0367L297.349 59.1302ZM343.424 90.6552L342.298 89.0022L342.287 89.01L343.424 90.6552ZM401.139 45.0652L402.509 46.5225L402.516 46.5156L402.523 46.5086L401.139 45.0652ZM424.904 22.2702L426.288 23.7136L426.303 23.6992L426.318 23.6844L424.904 22.2702ZM394.834 56.2202L396.145 57.7303L396.145 57.7303L394.834 56.2202ZM359.914 84.3502L358.729 82.7389L358.717 82.7474L358.706 82.756L359.914 84.3502ZM324.994 106.66L324.046 104.899L324.046 104.899L324.994 106.66ZM284.254 43.1252L282.459 42.2426L282.453 42.2545L282.447 42.2665L284.254 43.1252ZM323.539 -17.9848L321.968 -19.2225L321.965 -19.2194L323.539 -17.9848ZM378.829 -78.1248L380.195 -76.6642L380.195 -76.6642L378.829 -78.1248ZM444.789 -124.2L443.904 -125.993L443.894 -125.989L444.789 -124.2ZM519.964 -36.8998L518.194 -37.8321L518.194 -37.8321L519.964 -36.8998ZM462.249 50.4002L460.69 49.1465L460.689 49.1486L462.249 50.4002ZM394.834 130.91L393.329 129.593L393.327 129.595L394.834 130.91ZM337.604 199.78L339.173 201.02L339.178 201.014L339.182 201.008L337.604 199.78ZM409.869 184.745L411.132 186.296L411.138 186.291L409.869 184.745ZM545.669 64.9502L544.294 63.4974L544.289 63.5027L545.669 64.9502ZM608.719 5.2952L610.093 6.74799L610.113 6.72898L610.133 6.70942L608.719 5.2952ZM677.589 -68.4248L679.109 -67.125L679.113 -67.1304L679.118 -67.1359L677.589 -68.4248ZM708.629 -104.8L710.043 -103.386L710.174 -103.517L710.279 -103.67L708.629 -104.8ZM730.454 -112.075L729.711 -110.218L729.794 -110.185L729.879 -110.159L730.454 -112.075ZM661.099 -12.1648L659.544 -13.4232L659.543 -13.4223L661.099 -12.1648ZM585.439 81.9252L587 83.1746L587.055 83.1068L587.103 83.0346L585.439 81.9252ZM567.009 104.235L565.469 102.959L565.469 102.959L567.009 104.235ZM535.969 143.035L537.538 144.274L537.546 144.265L537.554 144.255L535.969 143.035ZM505.414 183.29L503.801 182.107L503.798 182.111L505.414 183.29ZM474.374 254.16C478.616 254.16 484.765 252.328 492.62 248.967C500.556 245.572 510.489 240.501 522.402 233.774C546.234 220.318 578.132 200.158 618.079 173.31L615.848 169.99C575.932 196.816 544.134 216.91 520.435 230.291C508.584 236.983 498.793 241.976 491.047 245.29C483.221 248.638 477.73 250.16 474.374 250.16L474.374 254.16ZM618.026 173.345L650.521 152.975L648.396 149.586L615.901 169.956L618.026 173.345ZM650.451 153.017C652.415 151.895 654.498 151.34 656.734 151.34L656.734 147.34C653.796 147.34 651.03 148.079 648.466 149.544L650.451 153.017ZM656.734 151.34C657.986 151.34 658.757 151.423 659.159 151.523C659.37 151.576 659.317 151.595 659.171 151.486C658.969 151.334 658.614 150.934 658.614 150.31L662.614 150.31C662.614 149.363 662.097 148.68 661.571 148.286C661.102 147.934 660.564 147.751 660.129 147.642C659.237 147.42 658.068 147.34 656.734 147.34L656.734 151.34ZM658.614 150.31C658.614 150.103 658.699 150.015 658.65 150.08C658.589 150.161 658.422 150.338 658.049 150.586L660.268 153.914C661.359 153.187 662.614 152.019 662.614 150.31L658.614 150.31ZM658.116 150.544L623.196 171.884L625.282 175.297L660.202 153.957L658.116 150.544ZM623.129 171.926C618.265 175.169 608.552 181.806 594.004 191.828L596.273 195.122C610.826 185.097 620.513 178.478 625.348 175.254L623.129 171.926ZM594.029 191.811C579.484 201.508 567.692 209.261 558.652 215.073L560.815 218.438C569.882 212.609 581.694 204.842 596.248 195.139L594.029 191.811ZM558.652 215.073C549.618 220.881 538.964 227.499 526.688 234.929L528.759 238.351C541.057 230.908 551.743 224.27 560.815 218.438L558.652 215.073ZM526.712 234.915C502.505 249.117 483.988 255.98 470.979 255.98L470.979 259.98C485.13 259.98 504.443 252.617 528.736 238.365L526.712 234.915ZM471.227 255.996C469.295 255.754 467.904 254.814 466.91 253.013C465.852 251.095 465.219 248.132 465.219 243.915L461.219 243.915C461.219 248.428 461.879 252.174 463.408 254.945C465 257.832 467.489 259.56 470.731 259.965L471.227 255.996ZM465.219 243.915C465.219 239.894 466.422 234.412 468.978 227.381C471.524 220.381 475.361 211.98 480.51 202.164L476.968 200.306C471.77 210.214 467.847 218.788 465.219 226.014C462.602 233.21 461.219 239.206 461.219 243.915L465.219 243.915ZM480.51 202.164C490.815 182.52 503.06 162.379 517.247 141.743L513.951 139.477C499.685 160.228 487.356 180.504 476.968 200.306L480.51 202.164ZM517.235 141.761C531.774 121.083 546.312 101.053 560.849 81.6702L557.649 79.2702C543.086 98.6873 528.524 118.751 513.963 139.46L517.235 141.761ZM560.849 81.6702C575.397 62.2725 587.357 46.434 596.729 34.1535L593.549 31.7268C584.167 44.0197 572.2 59.8679 557.649 79.2702L560.849 81.6702ZM596.744 34.1336C601.435 27.8251 604.887 23.074 607.089 19.8924C608.185 18.3095 608.998 17.0776 609.502 16.2234C609.741 15.8176 609.969 15.4012 610.108 15.0387C610.157 14.9113 610.308 14.5202 610.296 14.0478C610.289 13.7964 610.231 13.2533 609.806 12.7518C609.323 12.1803 608.681 12.0252 608.234 12.0252L608.234 16.0252C607.827 16.0252 607.216 15.8824 606.753 15.3355C606.349 14.8586 606.302 14.3525 606.297 14.1503C606.291 13.9262 606.329 13.7638 606.342 13.7103C606.359 13.6428 606.374 13.6037 606.375 13.6028C606.375 13.6025 606.355 13.6513 606.295 13.7656C606.239 13.8735 606.161 14.0142 606.056 14.1914C605.63 14.9134 604.887 16.0459 603.801 17.6155C601.638 20.7389 598.22 25.4453 593.534 31.7468L596.744 34.1336ZM608.234 12.0252C607.636 12.0252 607.126 12.2667 606.904 12.3754C606.599 12.5249 606.274 12.7212 605.944 12.938C605.28 13.3752 604.441 14.0013 603.444 14.7928C601.441 16.3825 598.671 18.7447 595.147 21.8638C588.092 28.1079 577.93 37.4604 564.67 49.9122L567.408 52.8282C580.661 40.3833 590.788 31.0633 597.798 24.8591C601.306 21.7541 604.013 19.4481 605.931 17.9257C606.894 17.1612 607.626 16.6202 608.143 16.2794C608.405 16.1072 608.574 16.0118 608.665 15.9667C608.84 15.8809 608.63 16.0252 608.234 16.0252L608.234 12.0252ZM564.679 49.9033C538.168 74.4745 508.909 101.471 476.9 130.893L479.607 133.838C511.619 104.413 540.883 77.4126 567.398 52.8371L564.679 49.9033ZM476.9 130.893C444.933 160.277 412.646 187.397 380.041 212.255L382.466 215.436C415.174 190.5 447.555 163.3 479.607 133.838L476.9 130.893ZM380.051 212.247C363.76 224.506 350.065 233.657 338.948 239.735C327.752 245.857 319.444 248.705 313.839 248.705L313.839 252.705C320.52 252.705 329.591 249.41 340.867 243.245C352.222 237.037 366.09 227.758 382.456 215.443L380.051 212.247ZM313.839 248.705C311.756 248.705 310.553 248.156 309.842 247.397C309.108 246.614 308.564 245.255 308.564 242.945L304.564 242.945C304.564 245.809 305.232 248.329 306.923 250.133C308.637 251.961 311.071 252.705 313.839 252.705L313.839 248.705ZM308.564 242.945C308.564 231.58 315.078 214.778 328.645 192.327C342.154 169.973 362.456 142.332 389.588 109.387L386.5 106.844C359.311 139.858 338.873 167.669 325.222 190.258C311.629 212.751 304.564 230.384 304.564 242.945L308.564 242.945ZM389.588 109.387C412.223 81.9003 434.859 54.2524 457.495 26.4427L454.393 23.9177C431.762 51.7214 409.131 79.3634 386.5 106.844L389.588 109.387ZM457.495 26.4427C480.177 -1.42405 499.471 -28.4981 515.37 -54.7796L511.947 -56.85C496.159 -30.7515 476.977 -3.82888 454.393 23.9177L457.495 26.4427ZM515.376 -54.7889C531.263 -81.3762 539.424 -103.106 539.424 -119.835L535.424 -119.835C535.424 -104.23 527.741 -83.2801 511.942 -56.8407L515.376 -54.7889ZM539.424 -119.835C539.424 -124.758 538.005 -128.872 534.958 -131.919L532.129 -129.091C534.256 -126.964 535.424 -123.965 535.424 -119.835L539.424 -119.835ZM534.958 -131.919C532.124 -134.753 528.868 -136.584 525.206 -137.316L524.421 -133.394C527.226 -132.833 529.79 -131.43 532.129 -129.091L534.958 -131.919ZM525.248 -137.307C522.173 -137.99 517.676 -138.482 511.83 -138.807L511.608 -134.813C517.401 -134.491 521.634 -134.013 524.38 -133.402L525.248 -137.307ZM511.682 -138.809C493.413 -138.477 473.175 -131.345 451.013 -117.656L453.115 -114.253C474.926 -127.725 494.457 -134.496 511.755 -134.81L511.682 -138.809ZM451.031 -117.668C428.878 -104.31 408.047 -87.3811 388.535 -66.8941L391.432 -64.1355C410.721 -84.3885 431.276 -101.086 453.096 -114.242L451.031 -117.668ZM388.546 -66.9056C369.089 -46.7997 351.09 -25.7194 334.549 -3.66478L337.749 -1.26478C354.188 -23.1835 372.078 -44.1365 391.421 -64.124L388.546 -66.9056ZM334.537 -3.64956C318.323 18.4024 305.327 39.0276 295.566 58.2237L299.131 60.0367C308.771 41.0795 321.641 20.6414 337.76 -1.28L334.537 -3.64956ZM295.566 58.2237C290.692 67.8097 287.012 76.1414 284.548 83.2065C282.092 90.2453 280.799 96.1489 280.799 100.84L284.799 100.84C284.799 96.8016 285.93 91.3884 288.325 84.524C290.71 77.6857 294.306 69.5274 299.131 60.0367L295.566 58.2237ZM280.799 100.84C280.799 105.228 281.59 108.881 283.488 111.478C285.471 114.192 288.434 115.45 292.014 115.45L292.014 111.45C289.45 111.45 287.806 110.607 286.717 109.118C285.544 107.512 284.799 104.859 284.799 100.84L280.799 100.84ZM292.014 115.45C304.968 115.45 322.552 107.512 344.561 92.3005L342.287 89.01C320.322 104.191 303.633 111.45 292.014 111.45L292.014 115.45ZM344.55 92.3082C366.928 77.0648 386.252 61.804 402.509 46.5225L399.769 43.608C383.692 58.7198 364.539 73.8523 342.298 89.0023L344.55 92.3082ZM402.523 46.5086L426.288 23.7136L423.519 20.8268L399.754 43.6218L402.523 46.5086ZM426.318 23.6844C427.22 22.7827 427.98 22.1749 428.6 21.8027C429.231 21.424 429.599 21.3602 429.754 21.3602L429.754 17.3602C428.615 17.3602 427.528 17.7814 426.542 18.3727C425.546 18.9705 424.528 19.8177 423.489 20.856L426.318 23.6844ZM429.754 21.3602C429.959 21.3602 430.072 21.3801 430.117 21.3914C430.161 21.4023 430.104 21.3957 430.009 21.324C429.902 21.2438 429.805 21.1258 429.745 20.9909C429.69 20.8676 429.694 20.7928 429.694 20.8152L433.694 20.8152C433.694 19.8422 433.339 18.8217 432.409 18.124C431.587 17.5074 430.593 17.3602 429.754 17.3602L429.754 21.3602ZM429.694 20.8152C429.694 20.5237 429.788 20.3977 429.723 20.527C429.675 20.6239 429.568 20.8011 429.366 21.0702C428.964 21.607 428.312 22.3387 427.369 23.281L430.198 26.1094C431.196 25.1117 431.999 24.2268 432.566 23.4702C432.849 23.0927 433.107 22.704 433.301 22.3159C433.479 21.9602 433.694 21.43 433.694 20.8152L429.694 20.8152ZM427.369 23.281L418.155 32.496L420.983 35.3244L430.198 26.1094L427.369 23.281ZM418.155 32.496C414.008 36.6425 405.814 44.0356 393.522 54.7101L396.145 57.7303C408.427 47.0648 416.723 39.5846 420.983 35.3244L418.155 32.496ZM393.522 54.7101C381.269 65.3512 369.671 74.693 358.729 82.7389L361.098 85.9615C372.143 77.8408 383.825 68.4292 396.145 57.7303L393.522 54.7101ZM358.706 82.756C348.124 90.773 336.571 98.1547 324.046 104.899L325.942 108.421C338.636 101.586 350.364 94.0941 361.121 85.9444L358.706 82.756ZM324.046 104.899C311.534 111.636 301.54 114.845 293.954 114.845L293.954 118.845C302.534 118.845 313.234 115.264 325.942 108.421L324.046 104.899ZM293.954 114.845C286.361 114.845 281.029 112.874 277.572 109.276C274.101 105.663 272.189 100.067 272.189 92.1102L268.189 92.1102C268.189 100.644 270.237 107.415 274.688 112.047C279.153 116.694 285.703 118.845 293.954 118.845L293.954 114.845ZM272.189 92.1102C272.189 79.6115 276.734 63.5996 286.06 43.9839L282.447 42.2665C273.02 62.0975 268.189 78.7423 268.189 92.1102L272.189 92.1102ZM286.048 44.0079C295.676 24.4325 308.69 4.17961 325.112 -16.7502L321.965 -19.2194C305.407 1.88414 292.232 22.3713 282.459 42.2426L286.048 44.0079ZM325.11 -16.7471C341.86 -38.0069 360.221 -57.9792 380.195 -76.6642L377.462 -79.5853C357.343 -60.7637 338.844 -40.6427 321.968 -19.2225L325.11 -16.7471ZM380.195 -76.6642C400.105 -95.2895 421.933 -110.536 445.683 -122.411L443.894 -125.989C419.791 -113.937 397.646 -98.4668 377.462 -79.5853L380.195 -76.6642ZM445.674 -122.406C469.73 -134.274 491.896 -140.145 512.204 -140.145L512.204 -144.145C491.124 -144.145 468.348 -138.052 443.904 -125.993L445.674 -122.406ZM512.204 -140.145C522.492 -140.145 529.836 -138.039 534.584 -134.169C539.253 -130.361 541.729 -124.58 541.729 -116.44L545.729 -116.44C545.729 -125.437 542.95 -132.508 537.111 -137.269C531.35 -141.966 522.932 -144.145 512.204 -144.145L512.204 -140.145ZM541.729 -116.44C541.729 -93.9268 533.953 -67.7422 518.194 -37.8321L521.733 -35.9675C537.661 -66.1974 545.729 -93.0395 545.729 -116.44L541.729 -116.44ZM518.194 -37.8321C502.414 -7.88258 483.248 21.1104 460.69 49.1465L463.807 51.654C486.516 23.43 505.826 -5.77702 521.733 -35.9675L518.194 -37.8321ZM460.689 49.1486C438.396 76.9339 415.942 103.749 393.329 129.593L396.339 132.227C418.992 106.338 441.482 79.4798 463.809 51.6518L460.689 49.1486ZM393.327 129.595C371 155.158 351.898 178.145 336.025 198.552L339.182 201.008C354.997 180.676 374.048 157.749 396.34 132.226L393.327 129.595ZM336.035 198.54C328.081 208.604 322.07 217.223 318.037 224.383C314.045 231.471 311.839 237.39 311.839 241.975L315.839 241.975C315.839 238.477 317.593 233.322 321.523 226.345C325.412 219.44 331.283 211.003 339.173 201.02L336.035 198.54ZM311.839 241.975C311.839 243.092 312.119 244.297 313.031 245.208C313.942 246.12 315.147 246.4 316.264 246.4L316.264 242.4C315.764 242.4 315.756 242.277 315.859 242.38C315.962 242.483 315.839 242.475 315.839 241.975L311.839 241.975ZM316.264 246.4C320.08 246.4 324.884 245.022 330.564 242.5C336.287 239.959 343.078 236.174 350.925 231.173C366.621 221.17 386.695 206.201 411.132 186.296L408.606 183.195C384.219 203.059 364.281 217.918 348.775 227.8C341.021 232.742 334.414 236.414 328.941 238.844C323.426 241.293 319.237 242.4 316.264 242.4L316.264 246.4ZM411.138 186.291C459.996 146.169 505.3 106.205 547.049 66.3977L544.289 63.5027C502.618 103.236 457.388 143.135 408.599 183.2L411.138 186.291ZM547.043 66.403L610.093 6.74799L607.344 3.84242L544.294 63.4974L547.043 66.403ZM610.133 6.70942C636.996 -20.154 659.99 -44.7661 679.109 -67.125L676.069 -69.7246C657.034 -47.4635 634.114 -22.9289 607.305 3.88099L610.133 6.70942ZM679.118 -67.1359C698.248 -89.832 708.506 -101.848 710.043 -103.386L707.215 -106.214C705.518 -104.518 695.083 -92.2843 676.059 -69.7138L679.118 -67.1359ZM710.279 -103.67C712.319 -106.651 714.208 -108.778 715.933 -110.143C717.655 -111.507 719.088 -112.015 720.269 -112.015L720.269 -116.015C717.892 -116.015 715.607 -114.987 713.45 -113.279C711.294 -111.573 709.142 -109.092 706.978 -105.929L710.279 -103.67ZM720.269 -112.015C723.576 -112.015 726.719 -111.415 729.711 -110.218L731.196 -113.932C727.722 -115.322 724.074 -116.015 720.269 -116.015L720.269 -112.015ZM729.879 -110.159C731.415 -109.698 732.392 -109.247 732.944 -108.86C733.511 -108.463 733.304 -108.384 733.304 -108.68L737.304 -108.68C737.304 -110.269 736.288 -111.402 735.238 -112.137C734.174 -112.882 732.726 -113.481 731.028 -113.99L729.879 -110.159ZM733.304 -108.68C733.304 -108.948 733.382 -108.981 733.191 -108.557C733.04 -108.223 732.791 -107.753 732.422 -107.128C731.688 -105.884 730.562 -104.172 729.026 -101.974C725.961 -97.5865 721.345 -91.3809 715.167 -83.3451C702.815 -67.2796 684.276 -43.9748 659.544 -13.4232L662.653 -10.9064C687.391 -41.4648 705.955 -64.8008 718.338 -80.907C724.527 -88.9571 729.187 -95.22 732.305 -99.6835C733.862 -101.911 735.055 -103.72 735.866 -105.094C736.27 -105.778 736.601 -106.389 736.837 -106.912C737.032 -107.344 737.304 -108.007 737.304 -108.68L733.304 -108.68ZM659.543 -13.4223C634.97 16.9714 616.377 40.0106 603.765 55.6944C597.46 63.536 592.648 69.5408 589.33 73.7076C586.06 77.8155 584.159 80.239 583.775 80.8158L587.103 83.0346C587.365 82.6414 589.102 80.417 592.46 76.199C595.771 72.04 600.578 66.0411 606.882 58.201C619.491 42.5215 638.081 19.4856 662.654 -10.9074L659.543 -13.4223ZM583.877 80.6758C582.598 82.2746 576.471 89.6911 565.469 102.959L568.548 105.512C579.533 92.2659 585.693 84.8091 587 83.1746L583.877 80.6758ZM565.469 102.959C554.462 116.232 544.1 129.185 534.383 141.816L537.554 144.255C547.238 131.665 557.569 118.751 568.548 105.512L565.469 102.959ZM534.399 141.796C524.682 154.104 514.483 167.541 503.801 182.107L507.027 184.473C517.685 169.939 527.855 156.54 537.538 144.274L534.399 141.796ZM503.798 182.111C491.974 198.308 483.068 211.803 477.11 222.577C474.13 227.965 471.869 232.706 470.347 236.791C468.835 240.852 468.009 244.382 468.009 247.31L472.009 247.31C472.009 245.065 472.658 242.048 474.096 238.187C475.525 234.35 477.689 229.796 480.61 224.513C486.453 213.948 495.25 200.605 507.029 184.469L503.798 182.111ZM468.009 247.31C468.009 249.186 468.426 250.967 469.613 252.286C470.837 253.645 472.553 254.16 474.374 254.16L474.374 250.16C473.285 250.16 472.818 249.867 472.587 249.61C472.319 249.312 472.009 248.668 472.009 247.31L468.009 247.31ZM801.468 219.18L803.065 220.384L803.065 220.384L801.468 219.18ZM842.693 146.43L844.525 147.233L844.528 147.225L842.693 146.43ZM877.613 56.7052L875.73 56.0313L875.727 56.0401L875.724 56.0489L877.613 56.7052ZM903.318 -25.2598L905.255 -24.7624L905.257 -24.7687L903.318 -25.2598ZM856.273 -21.3798L857.72 -19.9989L857.726 -20.0054L856.273 -21.3798ZM704.953 128.97L706.297 130.452L706.304 130.445L704.953 128.97ZM514.833 263.315L515.727 265.104L515.762 265.087L515.797 265.068L514.833 263.315ZM509.498 259.435L510.286 261.274L510.35 261.246L510.412 261.214L509.498 259.435ZM651.603 164.86L652.872 166.406L652.876 166.403L651.603 164.86ZM768.488 60.1002L769.91 61.5068L769.917 61.4991L768.488 60.1002ZM836.388 -10.2248L837.844 -8.85408L837.844 -8.85409L836.388 -10.2248ZM891.678 -69.3948L890.223 -70.7675L890.218 -70.762L890.213 -70.7565L891.678 -69.3948ZM941.148 -121.775L939.734 -123.189L939.714 -123.169L939.695 -123.149L941.148 -121.775ZM938.723 -65.5148L936.771 -65.9511L936.771 -65.9511L938.723 -65.5148ZM911.563 30.5152L913.462 31.1425L913.464 31.1375L911.563 30.5152ZM871.308 135.275L873.137 136.084L873.137 136.084L871.308 135.275ZM818.443 220.635L819.939 221.963L819.948 221.952L818.443 220.635ZM727.263 235.185L725.511 236.149L725.515 236.156L725.519 236.164L727.263 235.185ZM732.113 125.575L733.842 126.581L733.846 126.574L733.85 126.567L732.113 125.575ZM742.298 122.665L744.022 123.679L744.437 122.974L744.238 122.18L742.298 122.665ZM733.568 151.28L735.531 151.663L735.533 151.654L733.568 151.28ZM760.728 250.765C767.423 250.765 774.294 248.077 781.303 242.987C788.31 237.899 795.56 230.337 803.065 220.384L799.871 217.976C792.503 227.747 785.526 234.977 778.953 239.751C772.382 244.522 766.319 246.765 760.728 246.765L760.728 250.765ZM803.065 220.384C818.053 200.509 831.868 176.116 844.525 147.233L840.861 145.627C828.298 174.298 814.63 198.405 799.871 217.976L803.065 220.384ZM844.528 147.225C857.158 118.079 868.816 88.1239 879.502 57.3615L875.724 56.0489C865.07 86.7198 853.448 116.582 840.858 145.635L844.528 147.225ZM879.496 57.3791C890.504 26.6216 899.093 -0.760757 905.255 -24.7624L901.381 -25.7572C895.257 -1.90556 886.709 25.3554 875.73 56.0313L879.496 57.3791ZM905.257 -24.7687C908.331 -36.9038 910.642 -46.5911 912.185 -53.821C913.711 -60.9674 914.533 -65.9111 914.533 -68.4248L910.533 -68.4248C910.533 -66.4119 909.819 -61.8981 908.273 -54.6561C906.745 -47.4977 904.448 -37.8659 901.379 -25.751L905.257 -24.7687ZM914.533 -68.4248C914.533 -70.7101 914.453 -72.5231 914.27 -73.8002C914.182 -74.4184 914.052 -75.0507 913.826 -75.5783C913.681 -75.9153 913.068 -77.2148 911.563 -77.2148L911.563 -73.2148C910.993 -73.2148 910.586 -73.4845 910.376 -73.6945C910.28 -73.7911 910.221 -73.8761 910.192 -73.9234C910.162 -73.9719 910.149 -74.002 910.149 -74.0026C910.148 -74.0043 910.155 -73.989 910.167 -73.9521C910.178 -73.9157 910.192 -73.8647 910.208 -73.7967C910.241 -73.6591 910.276 -73.4742 910.311 -73.2345C910.452 -72.2482 910.533 -70.6662 910.533 -68.4248L914.533 -68.4248ZM911.563 -77.2148C910.94 -77.2148 910.378 -76.9965 909.996 -76.8198C909.568 -76.6217 909.111 -76.3527 908.642 -76.0423C907.699 -75.4197 906.541 -74.5224 905.183 -73.3809C902.46 -71.0906 898.781 -67.686 894.163 -63.189C884.918 -54.1872 871.8 -40.7046 854.82 -22.7542L857.726 -20.0054C874.696 -37.945 887.768 -51.3799 896.953 -60.3231C901.55 -64.7986 905.146 -68.1234 907.758 -70.3194C909.068 -71.421 910.092 -72.206 910.847 -72.705C911.226 -72.9554 911.497 -73.107 911.675 -73.1893C911.899 -73.2929 911.822 -73.2148 911.563 -73.2148L911.563 -77.2148ZM854.826 -22.7608C820.88 12.8015 793.894 40.5954 773.864 60.626L776.692 63.4544C796.755 43.3917 823.766 15.5722 857.72 -19.9989L854.826 -22.7608ZM773.864 60.626C753.843 80.6471 730.423 102.936 703.602 127.495L706.304 130.445C733.156 105.857 756.62 83.5266 776.692 63.4544L773.864 60.626ZM703.609 127.489C648.121 177.816 584.877 222.509 513.869 261.563L515.797 265.068C587.056 225.875 650.559 181.005 706.297 130.452L703.609 127.489ZM513.939 261.526C512.243 262.374 510.607 262.77 509.013 262.77L509.013 266.77C511.299 266.77 513.543 266.196 515.727 265.104L513.939 261.526ZM509.013 262.77C508.633 262.77 508.36 262.738 508.174 262.697C507.987 262.655 507.929 262.614 507.94 262.621C507.965 262.638 508.028 262.692 508.074 262.785C508.116 262.868 508.103 262.902 508.103 262.83L504.103 262.83C504.103 264.059 504.612 265.21 505.721 265.949C506.687 266.594 507.884 266.77 509.013 266.77L509.013 262.77ZM508.103 262.83C508.103 262.809 508.105 262.784 508.128 262.736C508.153 262.681 508.216 262.575 508.366 262.426C508.682 262.11 509.275 261.707 510.286 261.274L508.71 257.597C506.393 258.59 504.103 260.194 504.103 262.83L508.103 262.83ZM510.412 261.214C558.406 236.569 605.892 204.962 652.872 166.406L650.334 163.314C603.547 201.712 556.297 233.155 508.584 257.656L510.412 261.214ZM652.876 166.403C701.083 126.608 740.099 91.6411 769.91 61.5067L767.066 58.6936C737.383 88.6993 698.477 123.572 650.33 163.318L652.876 166.403ZM769.917 61.4991C799.667 31.103 822.311 7.65031 837.844 -8.85408L834.932 -11.5955C819.425 4.88006 796.803 28.3107 767.059 58.7013L769.917 61.4991ZM837.844 -8.85409C853.368 -25.348 871.801 -45.0745 893.143 -68.0331L890.213 -70.7565C868.875 -47.8018 850.448 -28.0817 834.932 -11.5955L837.844 -8.85409ZM893.133 -68.0222C914.796 -90.9787 931.285 -108.438 942.601 -120.4L939.695 -123.149C928.378 -111.185 911.887 -93.7243 890.223 -70.7675L893.133 -68.0222ZM942.562 -120.361C943.464 -121.262 944.224 -121.87 944.845 -122.242C945.476 -122.621 945.843 -122.685 945.998 -122.685L945.998 -126.685C944.86 -126.685 943.772 -126.264 942.787 -125.672C941.79 -125.075 940.772 -124.227 939.734 -123.189L942.562 -120.361ZM945.998 -122.685C946.07 -122.685 946.036 -122.672 945.952 -122.714C945.86 -122.76 945.805 -122.823 945.789 -122.848C945.781 -122.859 945.823 -122.801 945.864 -122.614C945.906 -122.428 945.938 -122.155 945.938 -121.775L949.938 -121.775C949.938 -122.904 949.761 -124.1 949.117 -125.067C948.378 -126.176 947.227 -126.685 945.998 -126.685L945.998 -122.685ZM945.938 -121.775C945.938 -112.005 942.92 -93.4609 936.771 -65.9511L940.675 -65.0785C946.812 -92.5354 949.938 -111.498 949.938 -121.775L945.938 -121.775ZM936.771 -65.9511C930.646 -38.5485 921.612 -6.60305 909.662 29.8928L913.464 31.1375C925.44 -5.43991 934.513 -37.5145 940.675 -65.0785L936.771 -65.9511ZM909.664 29.8878C897.72 66.0418 884.325 100.901 869.479 134.466L873.137 136.084C888.038 102.396 901.479 67.4153 913.462 31.1425L909.664 29.8878ZM869.479 134.466C854.672 167.942 837.153 196.216 816.938 219.318L819.948 221.952C840.473 198.495 858.197 169.862 873.137 136.084L869.479 134.466ZM816.947 219.308C796.763 242.055 776.893 253.07 757.333 253.07L757.333 257.07C778.513 257.07 799.383 245.129 819.939 221.963L816.947 219.308ZM757.333 253.07C745.607 253.07 736.176 246.986 729.007 234.207L725.519 236.164C733.223 249.898 743.839 257.07 757.333 257.07L757.333 253.07ZM729.015 234.221C722.119 221.682 718.593 205.074 718.593 184.26L714.593 184.26C714.593 205.48 718.181 222.822 725.511 236.149L729.015 234.221ZM718.593 184.26C718.593 163.26 723.68 144.047 733.842 126.581L730.384 124.569C719.853 142.67 714.593 162.581 714.593 184.26L718.593 184.26ZM733.85 126.567C735.102 124.375 736.212 122.849 737.165 121.897C738.153 120.909 738.719 120.785 738.903 120.785L738.903 116.785C737.147 116.785 735.612 117.793 734.336 119.068C733.025 120.379 731.71 122.249 730.377 124.583L733.85 126.567ZM738.903 120.785C739.095 120.785 739.246 120.829 739.459 121.072C739.732 121.384 740.073 122.011 740.358 123.15L744.238 122.18C743.876 120.733 743.328 119.42 742.469 118.438C741.551 117.388 740.328 116.785 738.903 116.785L738.903 120.785ZM740.574 121.651C737.153 127.467 734.195 137.301 731.603 150.906L735.533 151.654C738.115 138.099 740.976 128.857 744.022 123.679L740.574 121.651ZM731.605 150.897C728.994 164.281 727.688 177.827 727.688 191.535L731.688 191.535C731.688 178.083 732.969 164.793 735.531 151.663L731.605 150.897ZM727.688 191.535C727.688 210.727 730.279 225.435 735.69 235.411C738.412 240.429 741.87 244.292 746.101 246.892C750.337 249.496 755.236 250.765 760.728 250.765L760.728 246.765C755.873 246.765 751.719 245.65 748.195 243.484C744.666 241.316 741.658 238.024 739.206 233.504C734.27 224.404 731.688 210.497 731.688 191.535L727.688 191.535ZM1169.84 -62.1198L1168.4 -63.4999L1164.19 -59.0919L1170.19 -60.1503L1169.84 -62.1198ZM1232.89 -92.6748L1234.16 -91.1303L1234.16 -91.1303L1232.89 -92.6748ZM950.624 -46.1148L949.174 -47.4917L949.173 -47.491L950.624 -46.1148ZM928.799 -85.8848L930.101 -84.3663L930.106 -84.3712L930.112 -84.376L928.799 -85.8848ZM1050.53 -105.285L1049.55 -103.542L1049.57 -103.534L1049.58 -103.526L1050.53 -105.285ZM1100.49 -78.1248L1099.53 -76.369L1099.54 -76.3654L1099.54 -76.3619L1100.49 -78.1248ZM1149.47 -61.1498L1149.25 -59.1621L1150.2 -59.0567L1150.88 -59.7272L1149.47 -61.1498ZM1237.74 -89.2798L1238.98 -87.7048L1238.98 -87.7072L1237.74 -89.2798ZM1164.99 -56.7848L1164.68 -58.7596L1164 -58.6514L1163.54 -58.1539L1164.99 -56.7848ZM1003.49 134.305L1001.91 133.077L1001.91 133.078L1003.49 134.305ZM921.039 260.405L920.145 258.616L920.033 258.672L919.93 258.741L921.039 260.405ZM924.919 257.98L924.176 256.123L923.931 256.221L923.719 256.38L924.919 257.98ZM928.799 256.04L929.909 257.704L929.909 257.704L928.799 256.04ZM914.249 273.985L913.087 272.358L913.075 272.366L913.064 272.374L914.249 273.985ZM970.994 142.065L969.417 140.835L969.414 140.839L970.994 142.065ZM1143.17 -55.3298L1144.59 -53.9197L1147.9 -57.2486L1143.2 -57.3295L1143.17 -55.3298ZM1092.24 -64.0598L1091.52 -62.1973L1091.54 -62.1879L1091.56 -62.1791L1092.24 -64.0598ZM1057.81 -82.4898L1059.06 -84.0516L1059.05 -84.056L1057.81 -82.4898ZM934.134 -79.5798L935.572 -78.1898L935.572 -78.1898L934.134 -79.5798ZM943.834 -47.0848L942.387 -48.465L942.378 -48.4561L942.37 -48.447L943.834 -47.0848ZM971.479 -86.3698L969.731 -87.3411L969.678 -87.2461L969.636 -87.1459L971.479 -86.3698ZM1264.96 -130.505C1264.96 -132.326 1264.45 -134.042 1263.09 -135.265C1261.77 -136.452 1259.99 -136.87 1258.11 -136.87L1258.11 -132.87C1259.47 -132.87 1260.12 -132.56 1260.41 -132.292C1260.67 -132.06 1260.96 -131.594 1260.96 -130.505L1264.96 -130.505ZM1258.11 -136.87C1254.41 -136.87 1249.83 -135.127 1244.5 -132.055C1239.12 -128.947 1232.72 -124.324 1225.32 -118.226C1210.51 -106.026 1191.54 -87.7715 1168.4 -63.4999L1171.29 -60.7398C1194.39 -84.9682 1213.24 -103.089 1227.86 -115.139C1235.17 -121.166 1241.38 -125.637 1246.5 -128.591C1251.69 -131.581 1255.51 -132.87 1258.11 -132.87L1258.11 -136.87ZM1170.19 -60.1503C1192.57 -64.0992 1213.9 -74.4574 1234.16 -91.1303L1231.62 -94.2194C1211.8 -77.9123 1191.09 -67.9005 1169.5 -64.0894L1170.19 -60.1503ZM1234.16 -91.1303C1244.24 -99.4175 1251.88 -106.794 1257.01 -113.255C1262.1 -119.652 1264.96 -125.44 1264.96 -130.505L1260.96 -130.505C1260.96 -126.84 1258.82 -121.957 1253.88 -115.744C1248.99 -109.595 1241.6 -102.422 1231.62 -94.2194L1234.16 -91.1303ZM975.784 -87.8248C975.784 -84.0631 973.794 -78.8152 969.318 -71.9412C964.885 -65.1325 958.186 -56.9866 949.174 -47.4917L952.075 -44.738C961.169 -54.3197 968.05 -62.6639 972.67 -69.7585C977.247 -76.7878 979.784 -82.8566 979.784 -87.8248L975.784 -87.8248ZM949.173 -47.491C940.352 -38.1892 932.241 -31.2864 924.839 -26.7194C917.431 -22.1487 910.845 -19.9848 905.034 -19.9848L905.034 -15.9848C911.834 -15.9848 919.15 -18.5093 926.939 -23.3153C934.734 -28.125 943.113 -35.2872 952.075 -44.7386L949.173 -47.491ZM905.034 -19.9848C900.763 -19.9848 897.934 -20.943 896.181 -22.508C894.472 -24.0343 893.454 -26.4388 893.454 -30.1098L889.454 -30.1098C889.454 -25.6975 890.7 -22.0395 893.517 -19.5242C896.291 -17.0475 900.252 -15.9848 905.034 -15.9848L905.034 -19.9848ZM893.454 -30.1098C893.454 -37.5031 896.361 -45.7264 902.452 -54.8233C908.54 -63.9158 917.733 -73.765 930.101 -84.3663L927.498 -87.4033C914.969 -76.6646 905.489 -66.548 899.129 -57.0488C892.771 -47.5541 889.454 -38.5599 889.454 -30.1098L893.454 -30.1098ZM930.112 -84.376C954.678 -105.752 981.866 -116.38 1011.73 -116.38L1011.73 -120.38C980.815 -120.38 952.713 -109.344 927.486 -87.3936L930.112 -84.376ZM1011.73 -116.38C1021.57 -116.38 1034.14 -112.209 1049.55 -103.542L1051.51 -107.028C1035.88 -115.82 1022.59 -120.38 1011.73 -120.38L1011.73 -116.38ZM1049.58 -103.526C1065.1 -95.1206 1081.75 -86.0682 1099.53 -76.369L1101.45 -79.8806C1083.66 -89.5814 1067.01 -98.6357 1051.49 -107.043L1049.58 -103.526ZM1099.54 -76.3619C1117.79 -66.5865 1134.37 -60.8158 1149.25 -59.1621L1149.69 -63.1376C1135.48 -64.7172 1119.4 -70.2632 1101.43 -79.8878L1099.54 -76.3619ZM1150.88 -59.7272C1178.01 -86.5336 1200.72 -106.582 1219.04 -119.915C1228.19 -126.582 1236.21 -131.539 1243.09 -134.823C1250 -138.118 1255.63 -139.66 1260.05 -139.66L1260.05 -143.66C1254.78 -143.66 1248.53 -141.847 1241.37 -138.433C1234.19 -135.007 1225.96 -129.901 1216.68 -123.149C1198.14 -109.646 1175.26 -89.4394 1148.07 -62.5725L1150.88 -59.7272ZM1260.05 -139.66C1263.74 -139.66 1266.14 -138.958 1267.58 -137.877C1268.92 -136.878 1269.69 -135.352 1269.69 -132.93L1273.69 -132.93C1273.69 -136.328 1272.53 -139.167 1269.98 -141.077C1267.55 -142.906 1264.13 -143.66 1260.05 -143.66L1260.05 -139.66ZM1269.69 -132.93C1269.69 -127.919 1267.17 -121.885 1261.63 -114.758C1256.11 -107.662 1247.76 -99.693 1236.51 -90.8525L1238.98 -87.7072C1250.36 -96.65 1258.99 -104.848 1264.79 -112.302C1270.56 -119.724 1273.69 -126.624 1273.69 -132.93L1269.69 -132.93ZM1236.51 -90.8548C1214.45 -73.5888 1190.51 -62.9056 1164.68 -58.7596L1165.31 -54.8101C1191.86 -59.0707 1216.42 -70.0509 1238.98 -87.7048L1236.51 -90.8548ZM1163.54 -58.1539C1113.69 -5.07135 1059.81 58.6748 1001.91 133.077L1005.07 135.534C1062.92 61.2022 1116.71 -2.44499 1166.45 -55.4158L1163.54 -58.1539ZM1001.91 133.078C973.126 170.109 951.515 199.124 937.093 220.109C929.885 230.597 924.45 239.113 920.808 245.638C918.989 248.9 917.597 251.7 916.655 254.023C915.734 256.293 915.159 258.305 915.159 259.92L919.159 259.92C919.159 259.11 919.483 257.692 920.361 255.526C921.218 253.414 922.524 250.773 924.301 247.588C927.854 241.22 933.21 232.822 940.39 222.374C954.745 201.487 976.299 172.544 1005.07 135.533L1001.91 133.078ZM915.159 259.92C915.159 260.564 915.255 261.397 915.738 262.121C916.315 262.988 917.223 263.375 918.129 263.375L918.129 259.375C918.219 259.375 918.394 259.393 918.599 259.495C918.813 259.602 918.968 259.756 919.066 259.902C919.111 259.969 919.137 260.026 919.153 260.064C919.167 260.101 919.172 260.123 919.172 260.123C919.172 260.123 919.169 260.107 919.165 260.072C919.162 260.036 919.159 259.987 919.159 259.92L915.159 259.92ZM918.129 263.375C919.568 263.375 920.917 262.89 922.149 262.069L919.93 258.741C919.221 259.214 918.631 259.375 918.129 259.375L918.129 263.375ZM921.934 262.194C923.346 261.488 924.741 260.614 926.119 259.58L923.719 256.38C922.511 257.286 921.319 258.029 920.145 258.616L921.934 262.194ZM925.662 259.837C927.351 259.162 928.782 258.455 929.909 257.704L927.69 254.376C926.876 254.918 925.721 255.505 924.176 256.123L925.662 259.837ZM929.909 257.704C930.361 257.403 930.688 257.211 930.906 257.102C930.958 257.076 930.998 257.057 931.027 257.045C931.056 257.032 931.07 257.028 931.068 257.028C931.068 257.028 931.042 257.037 930.995 257.047C930.95 257.056 930.861 257.07 930.739 257.07L930.739 253.07C930.068 253.07 929.456 253.354 929.117 253.524C928.689 253.738 928.208 254.031 927.69 254.376L929.909 257.704ZM930.739 257.07C930.255 257.07 929.826 256.865 929.537 256.575C929.297 256.335 929.219 256.107 929.206 256.066C929.182 255.996 929.224 256.099 929.224 256.525L933.224 256.525C933.224 255.982 933.185 255.357 933 254.801C932.832 254.298 932.229 253.07 930.739 253.07L930.739 257.07ZM929.224 256.525C929.224 256.904 929.063 257.569 928.451 258.584C927.85 259.579 926.9 260.771 925.546 262.164C922.839 264.948 918.706 268.344 913.087 272.358L915.412 275.613C921.109 271.543 925.464 267.987 928.414 264.952C929.889 263.435 931.062 261.999 931.876 260.65C932.678 259.321 933.224 257.925 933.224 256.525L929.224 256.525ZM913.064 272.374C907.606 276.387 903.045 279.356 899.366 281.313C895.613 283.309 893.034 284.11 891.454 284.11L891.454 288.11C894.078 288.11 897.399 286.89 901.245 284.845C905.164 282.76 909.899 279.666 915.434 275.596L913.064 272.374ZM891.454 284.11C889.241 284.11 887.929 283.499 887.129 282.599C886.289 281.655 885.694 280.036 885.694 277.38L881.694 277.38C881.694 280.544 882.392 283.291 884.139 285.256C885.926 287.267 888.494 288.11 891.454 288.11L891.454 284.11ZM885.694 277.38C885.694 274.072 887.324 268.761 890.952 261.244C894.539 253.811 899.946 244.481 907.2 233.238C921.703 210.758 943.487 180.781 972.574 143.291L969.414 140.839C940.301 178.363 918.435 208.445 903.839 231.07C896.542 242.379 891.037 251.863 887.349 259.506C883.702 267.064 881.694 273.09 881.694 277.38L885.694 277.38ZM972.571 143.295C1031.05 68.3336 1088.39 2.59736 1144.59 -53.9197L1141.75 -56.74C1085.42 -0.0903607 1027.98 65.7701 969.417 140.835L972.571 143.295ZM1143.2 -57.3295C1124.64 -57.6497 1107.88 -60.5298 1092.92 -65.9406L1091.56 -62.1791C1107 -56.5965 1124.2 -53.6567 1143.13 -53.3301L1143.2 -57.3295ZM1092.97 -65.9223C1078.2 -71.7042 1066.92 -77.7596 1059.06 -84.0516L1056.56 -80.9281C1064.86 -74.2867 1076.54 -68.0555 1091.52 -62.1973L1092.97 -65.9223ZM1059.05 -84.056C1036.83 -101.703 1014.9 -110.68 993.304 -110.68L993.304 -106.68C1013.74 -106.68 1034.81 -98.197 1056.57 -80.9236L1059.05 -84.056ZM993.304 -110.68C971.917 -110.68 951.706 -100.636 932.696 -80.9699L935.572 -78.1898C954.068 -97.324 973.304 -106.68 993.304 -106.68L993.304 -110.68ZM932.696 -80.9699C923.256 -71.2044 916.111 -62.2685 911.315 -54.166C906.529 -46.0785 904.004 -38.6873 904.004 -32.0498L908.004 -32.0498C908.004 -37.699 910.168 -44.3728 914.758 -52.1287C919.339 -59.8695 926.259 -68.5552 935.572 -78.1898L932.696 -80.9699ZM904.004 -32.0498C904.004 -29.8813 904.448 -27.8827 905.68 -26.4045C906.97 -24.8564 908.824 -24.2298 910.854 -24.2298L910.854 -28.2298C909.651 -28.2298 909.08 -28.5732 908.753 -28.9652C908.368 -29.427 908.004 -30.3383 908.004 -32.0498L904.004 -32.0498ZM910.854 -24.2298C915.89 -24.2298 921.274 -26.1589 926.958 -29.7532C932.65 -33.3525 938.763 -38.6971 945.299 -45.7226L942.37 -48.447C935.972 -41.5692 930.122 -36.4863 924.82 -33.134C919.511 -29.7766 914.871 -28.2298 910.854 -28.2298L910.854 -24.2298ZM945.282 -45.7047C958.638 -59.7128 968.023 -73.008 973.322 -85.5937L969.636 -87.1459C964.588 -75.1583 955.543 -62.2636 942.387 -48.465L945.282 -45.7047ZM973.227 -85.3985C974.019 -86.823 974.647 -87.8093 975.119 -88.4157C975.358 -88.7231 975.506 -88.8661 975.565 -88.9141C975.678 -89.0066 975.416 -88.7348 974.874 -88.7348L974.874 -92.7348C974.009 -92.7348 973.363 -92.2812 973.032 -92.0099C972.646 -91.6942 972.288 -91.2915 971.962 -90.8715C971.302 -90.0229 970.556 -88.8267 969.731 -87.3411L973.227 -85.3985ZM974.874 -88.7348C975.198 -88.7348 975.401 -88.6936 975.515 -88.6556C975.57 -88.6372 975.602 -88.6205 975.618 -88.6106C975.634 -88.6012 975.64 -88.5952 975.642 -88.5931C975.645 -88.591 975.651 -88.5848 975.66 -88.5691C975.67 -88.5527 975.687 -88.5205 975.705 -88.4655C975.743 -88.3515 975.784 -88.1491 975.784 -87.8248L979.784 -87.8248C979.784 -89.1031 979.463 -90.4292 978.471 -91.4215C977.478 -92.4139 976.152 -92.7348 974.874 -92.7348L974.874 -88.7348Z" fill="white" mask="url(#path-3-outside-1_150_388)"/>
<path d="M293.658 125.08C293.658 120.52 294.778 116.56 297.018 113.2C299.258 109.84 302.418 107.24 306.498 105.4C310.578 103.56 315.378 102.68 320.898 102.76C323.458 102.76 326.058 102.96 328.698 103.36C331.338 103.76 333.818 104.32 336.138 105.04L333.498 124.96C332.218 124.56 331.018 124.24 329.898 124C328.778 123.76 327.738 123.64 326.778 123.64C325.498 123.56 324.378 123.76 323.418 124.24C322.538 124.64 321.818 125.28 321.258 126.16C320.778 126.96 320.538 127.96 320.538 129.16L320.538 193L293.658 193L293.658 125.08ZM284.658 130.96L333.258 130.96L333.258 148L284.658 148L284.658 130.96ZM372.06 126.4C379.58 126.4 386.1 127.8 391.62 130.6C397.22 133.32 401.54 137.2 404.58 142.24C407.62 147.28 409.14 153.24 409.14 160.12C409.14 166.92 407.62 172.88 404.58 178C401.54 183.04 397.22 186.96 391.62 189.76C386.1 192.56 379.58 193.96 372.06 193.96C364.54 193.96 357.98 192.56 352.38 189.76C346.86 186.96 342.58 183.04 339.54 178C336.5 172.88 334.98 166.92 334.98 160.12C334.98 153.24 336.5 147.28 339.54 142.24C342.58 137.2 346.86 133.32 352.38 130.6C357.98 127.8 364.54 126.4 372.06 126.4ZM372.06 147.76C370.06 147.76 368.3 148.28 366.78 149.32C365.34 150.36 364.22 151.84 363.42 153.76C362.62 155.68 362.22 157.92 362.22 160.48C362.22 163.04 362.62 165.28 363.42 167.2C364.22 169.12 365.34 170.6 366.78 171.64C368.3 172.68 370.06 173.2 372.06 173.2C374.06 173.2 375.78 172.68 377.22 171.64C378.74 170.6 379.9 169.12 380.7 167.2C381.5 165.28 381.9 163.04 381.9 160.48C381.9 157.92 381.5 155.68 380.7 153.76C379.9 151.84 378.74 150.36 377.22 149.32C375.78 148.28 374.06 147.76 372.06 147.76ZM465.633 150.52C461.633 149.88 458.113 149.92 455.073 150.64C452.033 151.36 449.673 152.68 447.993 154.6C446.393 156.44 445.593 158.8 445.593 161.68L439.593 160.48C439.593 153.52 440.673 147.48 442.833 142.36C444.993 137.16 447.993 133.16 451.833 130.36C455.753 127.56 460.353 126.16 465.633 126.16L465.633 150.52ZM418.593 127.36L445.593 127.36L445.593 193L418.593 193L418.593 127.36ZM550.26 197.56C547.54 204.36 543.82 209.36 539.1 212.56C534.38 215.84 528.5 217.48 521.46 217.48C517.14 217.48 513.14 216.84 509.46 215.56C505.86 214.36 502.3 212.44 498.78 209.8L510.06 192.04C512.86 194.6 515.78 195.88 518.82 195.88C520.42 195.88 521.74 195.6 522.78 195.04C523.82 194.48 524.66 193.64 525.3 192.52L526.26 190.96L499.02 127.36L526.74 127.36L539.7 164.8L550.38 127.36L577.26 127.36L550.26 197.56ZM614.185 126.4C621.705 126.4 628.225 127.8 633.745 130.6C639.345 133.32 643.665 137.2 646.705 142.24C649.745 147.28 651.265 153.24 651.265 160.12C651.265 166.92 649.745 172.88 646.705 178C643.665 183.04 639.345 186.96 633.745 189.76C628.225 192.56 621.705 193.96 614.185 193.96C606.665 193.96 600.105 192.56 594.505 189.76C588.985 186.96 584.705 183.04 581.665 178C578.625 172.88 577.105 166.92 577.105 160.12C577.105 153.24 578.625 147.28 581.665 142.24C584.705 137.2 588.985 133.32 594.505 130.6C600.105 127.8 606.665 126.4 614.185 126.4ZM614.185 147.76C612.185 147.76 610.425 148.28 608.905 149.32C607.465 150.36 606.345 151.84 605.545 153.76C604.745 155.68 604.345 157.92 604.345 160.48C604.345 163.04 604.745 165.28 605.545 167.2C606.345 169.12 607.465 170.6 608.905 171.64C610.425 172.68 612.185 173.2 614.185 173.2C616.185 173.2 617.905 172.68 619.345 171.64C620.865 170.6 622.025 169.12 622.825 167.2C623.625 165.28 624.025 163.04 624.025 160.48C624.025 157.92 623.625 155.68 622.825 153.76C622.025 151.84 620.865 150.36 619.345 149.32C617.905 148.28 616.185 147.76 614.185 147.76ZM685.918 161.44C685.918 164.16 686.558 166.36 687.838 168.04C689.198 169.64 690.958 170.44 693.118 170.44C695.598 170.44 697.558 169.48 698.998 167.56C700.438 165.64 701.158 163.08 701.158 159.88L707.158 159.88C707.158 166.84 706.118 172.88 704.038 178C702.038 183.12 699.158 187.12 695.398 190C691.638 192.8 687.118 194.2 681.838 194.2C677.358 194.2 673.398 193.16 669.958 191.08C666.518 189 663.798 186.12 661.798 182.44C659.878 178.68 658.918 174.28 658.918 169.24L658.918 127.36L685.918 127.36L685.918 161.44ZM701.158 127.36L728.158 127.36L728.158 193L701.158 193L701.158 127.36Z" fill="#0AFF02"/>
</g>
</svg>
