<svg width="1020" height="300" viewBox="0 0 1020 300" fill="none" xmlns="http://www.w3.org/2000/svg">
<rect x="1020" width="300" height="1020" rx="15" transform="rotate(90 1020 0)" fill="#1E1E1E"/>
<mask id="mask0_149_339" style="mask-type:alpha" maskUnits="userSpaceOnUse" x="0" y="0" width="1020" height="300">
<rect x="1020" width="300" height="1020" rx="15" transform="rotate(90 1020 0)" fill="#1E1E1E"/>
</mask>
<g mask="url(#mask0_149_339)">
<path d="M806.952 -5.401L813.992 -5.401L851.886 21.6293V-5.401L876.353 -5.401V63.9999H867.009L831.331 40.142V63.9999H806.952V-5.401ZM888.086 -5.401L938.105 -5.401V14.5892L915.117 14.5892V20.2821L938.019 20.2821V37.3173H915.117V43.8793H939.626V63.9999L888.086 63.9999V-5.401ZM979.521 -5.401L987.473 19.326L1004.81 -3.92346C1005.39 -4.70569 1005.84 -5.21269 1006.16 -5.44446C1006.48 -5.67623 1006.83 -5.79211 1007.2 -5.79211C1007.58 -5.79211 1007.94 -5.67623 1008.29 -5.44446C1008.64 -5.24166 1009.09 -4.73466 1009.64 -3.92346L1025.8 19.0653L1033.62 -5.401L1058.48 -5.401L1035.8 62.2181C1035.33 63.6377 1034.62 64.7097 1033.67 65.434C1032.74 66.1872 1031.73 66.5638 1030.63 66.5638C1028.37 66.5638 1026.32 65.2312 1024.5 62.5658L1005.07 34.536L984.17 62.6527C983.301 63.8116 982.331 64.7242 981.259 65.3905C980.216 66.0568 979.158 66.39 978.086 66.39C977.014 66.39 976 66.0424 975.044 65.347C974.117 64.6807 973.364 63.5798 972.785 62.0443L948.362 -5.401L979.521 -5.401Z" fill="#0AFF02"/>
<path d="M806.952 75.599H813.992L851.886 102.629V75.599H876.353V145H867.009L831.331 121.142V145H806.952V75.599ZM888.086 75.599L938.105 75.599V95.5892H915.117V101.282H938.019V118.317H915.117V124.879H939.626V145L888.086 145V75.599ZM979.521 75.599L987.473 100.326L1004.81 77.0765C1005.39 76.2943 1005.84 75.7873 1006.16 75.5555C1006.48 75.3238 1006.83 75.2079 1007.2 75.2079C1007.58 75.2079 1007.94 75.3238 1008.29 75.5555C1008.64 75.7583 1009.09 76.2653 1009.64 77.0765L1025.8 100.065L1033.62 75.599H1058.48L1035.8 143.218C1035.33 144.638 1034.62 145.71 1033.67 146.434C1032.74 147.187 1031.73 147.564 1030.63 147.564C1028.37 147.564 1026.32 146.231 1024.5 143.566L1005.07 115.536L984.17 143.653C983.301 144.812 982.331 145.724 981.259 146.391C980.216 147.057 979.158 147.39 978.086 147.39C977.014 147.39 976 147.042 975.044 146.347C974.117 145.681 973.364 144.58 972.785 143.044L948.362 75.599H979.521Z" fill="#0AFF02"/>
<path d="M806.952 156.599H813.992L851.886 183.629V156.599H876.353V226H867.009L831.331 202.142V226H806.952V156.599ZM888.086 156.599H938.105V176.589H915.117V182.282H938.019V199.317H915.117V205.879H939.626V226L888.086 226V156.599ZM979.521 156.599L987.473 181.326L1004.81 158.077C1005.39 157.294 1005.84 156.787 1006.16 156.556C1006.48 156.324 1006.83 156.208 1007.2 156.208C1007.58 156.208 1007.94 156.324 1008.29 156.556C1008.64 156.758 1009.09 157.265 1009.64 158.077L1025.8 181.065L1033.62 156.599L1058.48 156.599L1035.8 224.218C1035.33 225.638 1034.62 226.71 1033.67 227.434C1032.74 228.187 1031.73 228.564 1030.63 228.564C1028.37 228.564 1026.32 227.231 1024.5 224.566L1005.07 196.536L984.17 224.653C983.301 225.812 982.331 226.724 981.259 227.391C980.216 228.057 979.158 228.39 978.086 228.39C977.014 228.39 976 228.042 975.044 227.347C974.117 226.681 973.364 225.58 972.785 224.044L948.362 156.599H979.521Z" fill="#0AFF02"/>
<path d="M806.952 237.599H813.992L851.886 264.629V237.599H876.353V307H867.009L831.331 283.142V307H806.952V237.599ZM888.086 237.599H938.105V257.589H915.117V263.282H938.019V280.317H915.117V286.879H939.626V307H888.086V237.599ZM979.521 237.599L987.473 262.326L1004.81 239.077C1005.39 238.294 1005.84 237.787 1006.16 237.556C1006.48 237.324 1006.83 237.208 1007.2 237.208C1007.58 237.208 1007.94 237.324 1008.29 237.556C1008.64 237.758 1009.09 238.265 1009.64 239.077L1025.8 262.065L1033.62 237.599L1058.48 237.599L1035.8 305.218C1035.33 306.638 1034.62 307.71 1033.67 308.434C1032.74 309.187 1031.73 309.564 1030.63 309.564C1028.37 309.564 1026.32 308.231 1024.5 305.566L1005.07 277.536L984.17 305.653C983.301 306.812 982.331 307.724 981.259 308.391C980.216 309.057 979.158 309.39 978.086 309.39C977.014 309.39 976 309.042 975.044 308.347C974.117 307.681 973.364 306.58 972.785 305.044L948.362 237.599H979.521Z" fill="#0AFF02"/>
<path d="M238.952 -5.401L245.992 -5.401L283.886 21.6293V-5.401L308.353 -5.401V63.9999H299.009L263.331 40.142V63.9999H238.952V-5.401ZM320.086 -5.401L370.105 -5.401V14.5892L347.117 14.5892V20.2821L370.019 20.2821V37.3173H347.117V43.8793H371.626V63.9999L320.086 63.9999V-5.401ZM411.521 -5.401L419.473 19.326L436.812 -3.92346C437.392 -4.70569 437.841 -5.21269 438.16 -5.44446C438.478 -5.67623 438.826 -5.79211 439.203 -5.79211C439.579 -5.79211 439.941 -5.67623 440.289 -5.44446C440.637 -5.24166 441.086 -4.73466 441.636 -3.92346L457.802 19.0653L465.625 -5.401L490.482 -5.401L467.797 62.2181C467.334 63.6377 466.624 64.7097 465.668 65.434C464.741 66.1872 463.727 66.5638 462.626 66.5638C460.366 66.5638 458.324 65.2312 456.499 62.5658L437.073 34.536L416.17 62.6527C415.301 63.8116 414.331 64.7242 413.259 65.3905C412.216 66.0568 411.158 66.39 410.086 66.39C409.014 66.39 408 66.0424 407.044 65.347C406.117 64.6807 405.364 63.5798 404.785 62.0443L380.362 -5.401L411.521 -5.401Z" fill="#0AFF02"/>
<path d="M238.952 75.599H245.992L283.886 102.629V75.599H308.353V145H299.009L263.331 121.142V145H238.952V75.599ZM320.086 75.599L370.105 75.599V95.5892H347.117V101.282H370.019V118.317H347.117V124.879H371.626V145L320.086 145V75.599ZM411.521 75.599L419.473 100.326L436.812 77.0765C437.392 76.2943 437.841 75.7873 438.16 75.5555C438.478 75.3238 438.826 75.2079 439.203 75.2079C439.579 75.2079 439.941 75.3238 440.289 75.5555C440.637 75.7583 441.086 76.2653 441.636 77.0765L457.802 100.065L465.625 75.599H490.482L467.797 143.218C467.334 144.638 466.624 145.71 465.668 146.434C464.741 147.187 463.727 147.564 462.626 147.564C460.366 147.564 458.324 146.231 456.499 143.566L437.073 115.536L416.17 143.653C415.301 144.812 414.331 145.724 413.259 146.391C412.216 147.057 411.158 147.39 410.086 147.39C409.014 147.39 408 147.042 407.044 146.347C406.117 145.681 405.364 144.58 404.785 143.044L380.362 75.599H411.521Z" fill="#0AFF02"/>
<path d="M238.952 156.599H245.992L283.886 183.629V156.599H308.353V226H299.009L263.331 202.142V226H238.952V156.599ZM320.086 156.599H370.105V176.589H347.117V182.282H370.019V199.317H347.117V205.879H371.626V226L320.086 226V156.599ZM411.521 156.599L419.473 181.326L436.812 158.077C437.392 157.294 437.841 156.787 438.16 156.556C438.478 156.324 438.826 156.208 439.203 156.208C439.579 156.208 439.941 156.324 440.289 156.556C440.637 156.758 441.086 157.265 441.636 158.077L457.802 181.065L465.625 156.599L490.482 156.599L467.797 224.218C467.334 225.638 466.624 226.71 465.668 227.434C464.741 228.187 463.727 228.564 462.626 228.564C460.366 228.564 458.324 227.231 456.499 224.566L437.073 196.536L416.17 224.653C415.301 225.812 414.331 226.724 413.259 227.391C412.216 228.057 411.158 228.39 410.086 228.39C409.014 228.39 408 228.042 407.044 227.347C406.117 226.681 405.364 225.58 404.785 224.044L380.362 156.599H411.521Z" fill="#0AFF02"/>
<path d="M238.952 237.599H245.992L283.886 264.629V237.599H308.353V307H299.009L263.331 283.142V307H238.952V237.599ZM320.086 237.599H370.105V257.589H347.117V263.282H370.019V280.317H347.117V286.879H371.626V307H320.086V237.599ZM411.521 237.599L419.473 262.326L436.812 239.077C437.392 238.294 437.841 237.787 438.16 237.556C438.478 237.324 438.826 237.208 439.203 237.208C439.579 237.208 439.941 237.324 440.289 237.556C440.637 237.758 441.086 238.265 441.636 239.077L457.802 262.065L465.625 237.599L490.482 237.599L467.797 305.218C467.334 306.638 466.624 307.71 465.668 308.434C464.741 309.187 463.727 309.564 462.626 309.564C460.366 309.564 458.324 308.231 456.499 305.566L437.073 277.536L416.17 305.653C415.301 306.812 414.331 307.724 413.259 308.391C412.216 309.057 411.158 309.39 410.086 309.39C409.014 309.39 408 309.042 407.044 308.347C406.117 307.681 405.364 306.58 404.785 305.044L380.362 237.599H411.521Z" fill="#0AFF02"/>
<mask id="path-11-outside-1_149_339" maskUnits="userSpaceOnUse" x="520" y="-8.00012" width="258" height="77" fill="black">
<rect fill="white" x="520" y="-8.00012" width="258" height="77"/>
<path d="M522.952 -5.401L529.992 -5.401L567.886 21.6293V-5.401L592.353 -5.401V63.9999H583.009L547.331 40.142V63.9999H522.952V-5.401ZM604.086 -5.401L654.105 -5.401V14.5892L631.117 14.5892V20.2821L654.019 20.2821V37.3173H631.117V43.8793H655.626V63.9999L604.086 63.9999V-5.401ZM695.521 -5.401L703.473 19.326L720.812 -3.92346C721.392 -4.70569 721.841 -5.21269 722.16 -5.44446C722.478 -5.67623 722.826 -5.79211 723.203 -5.79211C723.579 -5.79211 723.941 -5.67623 724.289 -5.44446C724.637 -5.24166 725.086 -4.73466 725.636 -3.92346L741.802 19.0653L749.625 -5.401L774.482 -5.401L751.797 62.2181C751.334 63.6377 750.624 64.7097 749.668 65.434C748.741 66.1872 747.727 66.5638 746.626 66.5638C744.366 66.5638 742.324 65.2312 740.499 62.5658L721.073 34.536L700.17 62.6527C699.301 63.8116 698.331 64.7242 697.259 65.3905C696.216 66.0568 695.158 66.39 694.086 66.39C693.014 66.39 692 66.0424 691.044 65.347C690.117 64.6807 689.364 63.5798 688.785 62.0443L664.362 -5.401L695.521 -5.401Z"/>
</mask>
<path d="M522.952 -5.401V-7.401L520.952 -7.401V-5.401H522.952ZM529.992 -5.401L531.153 -7.02922L530.632 -7.401H529.992V-5.401ZM567.886 21.6293L566.725 23.2575L569.886 25.5125V21.6293H567.886ZM567.886 -5.401V-7.401L565.886 -7.401V-5.401L567.886 -5.401ZM592.353 -5.401H594.353V-7.401L592.353 -7.401V-5.401ZM592.353 63.9999V65.9999H594.353V63.9999H592.353ZM583.009 63.9999L581.898 65.6624L582.402 65.9999H583.009V63.9999ZM547.331 40.142L548.443 38.4794L545.331 36.3986V40.142H547.331ZM547.331 63.9999V65.9999H549.331V63.9999H547.331ZM522.952 63.9999H520.952V65.9999H522.952V63.9999ZM522.952 -3.401L529.992 -3.401V-7.401L522.952 -7.401V-3.401ZM528.83 -3.77278L566.725 23.2575L569.048 20.001L531.153 -7.02922L528.83 -3.77278ZM569.886 21.6293V-5.401L565.886 -5.401V21.6293H569.886ZM567.886 -3.401L592.353 -3.401V-7.401L567.886 -7.401V-3.401ZM590.353 -5.401V63.9999H594.353V-5.401L590.353 -5.401ZM592.353 61.9999H583.009V65.9999H592.353V61.9999ZM584.121 62.3373L548.443 38.4794L546.219 41.8045L581.898 65.6624L584.121 62.3373ZM545.331 40.142V63.9999H549.331V40.142H545.331ZM547.331 61.9999H522.952V65.9999H547.331V61.9999ZM524.952 63.9999V-5.401L520.952 -5.401V63.9999H524.952ZM604.086 -5.401V-7.401H602.086V-5.401L604.086 -5.401ZM654.105 -5.401L656.105 -5.401V-7.401L654.105 -7.401V-5.401ZM654.105 14.5892V16.5892H656.105V14.5892H654.105ZM631.117 14.5892V12.5892H629.117V14.5892L631.117 14.5892ZM631.117 20.2821L629.117 20.2821V22.2821L631.117 22.2821V20.2821ZM654.019 20.2821H656.019V18.2821H654.019V20.2821ZM654.019 37.3173V39.3173H656.019V37.3173H654.019ZM631.117 37.3173V35.3173H629.117V37.3173H631.117ZM631.117 43.8793H629.117V45.8793H631.117V43.8793ZM655.626 43.8793H657.626V41.8793H655.626V43.8793ZM655.626 63.9999V65.9999H657.626V63.9999H655.626ZM604.086 63.9999H602.086V65.9999H604.086V63.9999ZM604.086 -3.401L654.105 -3.401V-7.401L604.086 -7.401V-3.401ZM652.105 -5.401V14.5892H656.105V-5.401L652.105 -5.401ZM654.105 12.5892L631.117 12.5892V16.5892L654.105 16.5892V12.5892ZM629.117 14.5892V20.2821L633.117 20.2821V14.5892L629.117 14.5892ZM631.117 22.2821L654.019 22.2821V18.2821L631.117 18.2821V22.2821ZM652.019 20.2821V37.3173H656.019V20.2821H652.019ZM654.019 35.3173H631.117V39.3173H654.019V35.3173ZM629.117 37.3173V43.8793H633.117V37.3173H629.117ZM631.117 45.8793H655.626V41.8793H631.117V45.8793ZM653.626 43.8793V63.9999H657.626V43.8793H653.626ZM655.626 61.9999L604.086 61.9999V65.9999L655.626 65.9999V61.9999ZM606.086 63.9999V-5.401L602.086 -5.401V63.9999H606.086ZM695.521 -5.401L697.424 -6.01334L696.978 -7.401H695.521V-5.401ZM703.473 19.326L701.569 19.9384L702.757 23.6317L705.076 20.5217L703.473 19.326ZM720.812 -3.92346L722.416 -2.72778L722.42 -2.73301L720.812 -3.92346ZM724.289 -5.44446L723.18 -3.78036L723.23 -3.74711L723.281 -3.7169L724.289 -5.44446ZM725.636 -3.92346L723.981 -2.80046L723.991 -2.78666L724 -2.77301L725.636 -3.92346ZM741.802 19.0653L740.166 20.2158L742.482 23.5082L743.707 19.6744L741.802 19.0653ZM749.625 -5.401V-7.401L748.164 -7.401L747.72 -6.01006L749.625 -5.401ZM774.482 -5.401L776.378 -4.76489L777.262 -7.401L774.482 -7.401V-5.401ZM751.797 62.2181L749.901 61.582L749.899 61.5897L749.896 61.5973L751.797 62.2181ZM749.668 65.434L748.46 63.8398L748.433 63.8603L748.407 63.8817L749.668 65.434ZM740.499 62.5658L742.149 61.4358L742.142 61.4266L740.499 62.5658ZM721.073 34.536L722.717 33.3968L721.13 31.1071L719.468 33.3428L721.073 34.536ZM700.17 62.6527L701.77 63.8527L701.775 63.846L700.17 62.6527ZM697.259 65.3905L696.203 63.6919L696.192 63.6985L696.182 63.7051L697.259 65.3905ZM691.044 65.347L692.221 63.7295L692.212 63.723L691.044 65.347ZM688.785 62.0443L686.904 62.7253L686.909 62.7379L686.913 62.7504L688.785 62.0443ZM664.362 -5.401V-7.401H661.511L662.481 -4.72004L664.362 -5.401ZM693.617 -4.78866L701.569 19.9384L705.377 18.7137L697.424 -6.01334L693.617 -4.78866ZM705.076 20.5217L722.416 -2.72778L719.209 -5.11914L701.87 18.1304L705.076 20.5217ZM722.42 -2.73301C722.688 -3.09566 722.908 -3.36865 723.081 -3.56431C723.267 -3.77482 723.348 -3.83576 723.336 -3.82699L720.983 -7.06193C720.389 -6.62941 719.78 -5.88918 719.205 -5.11392L722.42 -2.73301ZM723.336 -3.82699C723.342 -3.83131 723.327 -3.81945 723.292 -3.80783C723.256 -3.79592 723.223 -3.79211 723.203 -3.79211V-7.79211C722.383 -7.79211 721.627 -7.53005 720.983 -7.06193L723.336 -3.82699ZM723.203 -3.79211C723.194 -3.79211 723.183 -3.79283 723.172 -3.79455C723.162 -3.79626 723.153 -3.79853 723.147 -3.80035C723.142 -3.80214 723.141 -3.8028 723.146 -3.80043C723.151 -3.798 723.162 -3.79204 723.18 -3.78036L725.398 -7.10856C724.76 -7.53446 724.017 -7.79211 723.203 -7.79211V-3.79211ZM723.281 -3.7169C723.189 -3.7709 723.223 -3.77345 723.389 -3.58604C723.538 -3.41818 723.735 -3.16348 723.981 -2.80046L727.291 -5.04646C726.987 -5.49465 726.684 -5.89904 726.384 -6.23818C726.101 -6.55777 725.737 -6.91521 725.297 -7.17202L723.281 -3.7169ZM724 -2.77301L740.166 20.2158L743.438 17.9149L727.272 -5.07391L724 -2.77301ZM743.707 19.6744L751.53 -4.79194L747.72 -6.01006L739.897 18.4562L743.707 19.6744ZM749.625 -3.401L774.482 -3.401V-7.401L749.625 -7.401V-3.401ZM772.586 -6.03711L749.901 61.582L753.694 62.8542L776.378 -4.76489L772.586 -6.03711ZM749.896 61.5973C749.528 62.725 749.019 63.4162 748.46 63.8398L750.876 67.0281C752.229 66.0032 753.14 64.5504 753.699 62.8389L749.896 61.5973ZM748.407 63.8817C747.804 64.3717 747.227 64.5638 746.626 64.5638V68.5638C748.226 68.5638 749.678 68.0027 750.929 66.9862L748.407 63.8817ZM746.626 64.5638C745.281 64.5638 743.773 63.8079 742.149 61.4358L738.848 63.6958C740.874 66.6544 743.451 68.5638 746.626 68.5638V64.5638ZM742.142 61.4266L722.717 33.3968L719.429 35.6752L738.855 63.705L742.142 61.4266ZM719.468 33.3428L698.565 61.4595L701.775 63.846L722.678 35.7293L719.468 33.3428ZM698.57 61.4527C697.828 62.442 697.035 63.1744 696.203 63.6919L698.315 67.0891C699.626 66.2739 700.774 65.1811 701.77 63.8527L698.57 61.4527ZM696.182 63.7051C695.41 64.1985 694.721 64.39 694.086 64.39V68.39C695.596 68.39 697.022 67.9152 698.336 67.0759L696.182 63.7051ZM694.086 64.39C693.481 64.39 692.872 64.2031 692.221 63.7296L689.868 66.9645C691.129 67.8816 692.548 68.39 694.086 68.39V64.39ZM692.212 63.723C691.716 63.3668 691.154 62.6588 690.656 61.3382L686.913 62.7504C687.574 64.5008 688.519 65.9947 689.877 66.9711L692.212 63.723ZM690.665 61.3634L666.242 -6.08196L662.481 -4.72004L686.904 62.7253L690.665 61.3634ZM664.362 -3.401L695.521 -3.401V-7.401L664.362 -7.401V-3.401Z" fill="white" mask="url(#path-11-outside-1_149_339)"/>
<mask id="path-13-outside-2_149_339" maskUnits="userSpaceOnUse" x="520" y="72.9999" width="258" height="77" fill="black">
<rect fill="white" x="520" y="72.9999" width="258" height="77"/>
<path d="M522.952 75.599H529.992L567.886 102.629V75.599H592.353V145H583.009L547.331 121.142V145H522.952V75.599ZM604.086 75.599L654.105 75.599V95.5892H631.117V101.282H654.019V118.317H631.117V124.879H655.626V145L604.086 145V75.599ZM695.521 75.599L703.473 100.326L720.812 77.0765C721.392 76.2943 721.841 75.7873 722.16 75.5555C722.478 75.3238 722.826 75.2079 723.203 75.2079C723.579 75.2079 723.941 75.3238 724.289 75.5555C724.637 75.7583 725.086 76.2653 725.636 77.0765L741.802 100.065L749.625 75.599H774.482L751.797 143.218C751.334 144.638 750.624 145.71 749.668 146.434C748.741 147.187 747.727 147.564 746.626 147.564C744.366 147.564 742.324 146.231 740.499 143.566L721.073 115.536L700.17 143.653C699.301 144.812 698.331 145.724 697.259 146.391C696.216 147.057 695.158 147.39 694.086 147.39C693.014 147.39 692 147.042 691.044 146.347C690.117 145.681 689.364 144.58 688.785 143.044L664.362 75.599H695.521Z"/>
</mask>
<path d="M522.952 75.599V73.599H520.952V75.599H522.952ZM529.992 75.599L531.153 73.9708L530.632 73.599H529.992V75.599ZM567.886 102.629L566.725 104.257L569.886 106.513V102.629H567.886ZM567.886 75.599V73.599H565.886V75.599H567.886ZM592.353 75.599H594.353V73.599H592.353V75.599ZM592.353 145V147H594.353V145H592.353ZM583.009 145L581.898 146.662L582.402 147H583.009V145ZM547.331 121.142L548.443 119.479L545.331 117.399V121.142H547.331ZM547.331 145V147H549.331V145H547.331ZM522.952 145H520.952V147H522.952V145ZM522.952 77.599H529.992V73.599H522.952V77.599ZM528.83 77.2272L566.725 104.257L569.048 101.001L531.153 73.9708L528.83 77.2272ZM569.886 102.629V75.599H565.886V102.629H569.886ZM567.886 77.599H592.353V73.599H567.886V77.599ZM590.353 75.599V145H594.353V75.599H590.353ZM592.353 143H583.009V147H592.353V143ZM584.121 143.337L548.443 119.479L546.219 122.805L581.898 146.662L584.121 143.337ZM545.331 121.142V145H549.331V121.142H545.331ZM547.331 143H522.952V147H547.331V143ZM524.952 145V75.599H520.952V145H524.952ZM604.086 75.599V73.599H602.086V75.599H604.086ZM654.105 75.599H656.105V73.599H654.105V75.599ZM654.105 95.5892V97.5892H656.105V95.5892H654.105ZM631.117 95.5892V93.5892H629.117V95.5892L631.117 95.5892ZM631.117 101.282L629.117 101.282V103.282L631.117 103.282V101.282ZM654.019 101.282H656.019V99.2821H654.019V101.282ZM654.019 118.317V120.317H656.019V118.317H654.019ZM631.117 118.317V116.317H629.117V118.317H631.117ZM631.117 124.879H629.117V126.879H631.117V124.879ZM655.626 124.879H657.626V122.879H655.626V124.879ZM655.626 145V147H657.626V145H655.626ZM604.086 145H602.086V147H604.086V145ZM604.086 77.599L654.105 77.599V73.599L604.086 73.599V77.599ZM652.105 75.599V95.5892H656.105V75.599H652.105ZM654.105 93.5892L631.117 93.5892V97.5892H654.105V93.5892ZM629.117 95.5892V101.282L633.117 101.282V95.5892L629.117 95.5892ZM631.117 103.282H654.019V99.2821H631.117V103.282ZM652.019 101.282V118.317H656.019V101.282H652.019ZM654.019 116.317H631.117V120.317H654.019V116.317ZM629.117 118.317V124.879H633.117V118.317H629.117ZM631.117 126.879H655.626V122.879H631.117V126.879ZM653.626 124.879V145H657.626V124.879H653.626ZM655.626 143L604.086 143V147L655.626 147V143ZM606.086 145V75.599H602.086V145H606.086ZM695.521 75.599L697.424 74.9867L696.978 73.599H695.521V75.599ZM703.473 100.326L701.569 100.938L702.757 104.632L705.076 101.522L703.473 100.326ZM720.812 77.0765L722.416 78.2722L722.42 78.267L720.812 77.0765ZM724.289 75.5555L723.18 77.2196L723.23 77.2529L723.281 77.2831L724.289 75.5555ZM725.636 77.0765L723.981 78.1995L723.991 78.2133L724 78.227L725.636 77.0765ZM741.802 100.065L740.166 101.216L742.482 104.508L743.707 100.674L741.802 100.065ZM749.625 75.599V73.599H748.164L747.72 74.9899L749.625 75.599ZM774.482 75.599L776.378 76.2351L777.262 73.599H774.482V75.599ZM751.797 143.218L749.901 142.582L749.899 142.59L749.896 142.597L751.797 143.218ZM749.668 146.434L748.46 144.84L748.433 144.86L748.407 144.882L749.668 146.434ZM740.499 143.566L742.149 142.436L742.142 142.427L740.499 143.566ZM721.073 115.536L722.717 114.397L721.13 112.107L719.468 114.343L721.073 115.536ZM700.17 143.653L701.77 144.853L701.775 144.846L700.17 143.653ZM697.259 146.391L696.203 144.692L696.192 144.698L696.182 144.705L697.259 146.391ZM691.044 146.347L692.221 144.73L692.212 144.723L691.044 146.347ZM688.785 143.044L686.904 143.725L686.909 143.738L686.913 143.75L688.785 143.044ZM664.362 75.599V73.599H661.511L662.481 76.28L664.362 75.599ZM693.617 76.2113L701.569 100.938L705.377 99.7137L697.424 74.9867L693.617 76.2113ZM705.076 101.522L722.416 78.2722L719.209 75.8809L701.87 99.1304L705.076 101.522ZM722.42 78.267C722.688 77.9043 722.908 77.6313 723.081 77.4357C723.267 77.2252 723.348 77.1642 723.336 77.173L720.983 73.9381C720.389 74.3706 719.78 75.1108 719.205 75.8861L722.42 78.267ZM723.336 77.173C723.342 77.1687 723.327 77.1805 723.292 77.1922C723.256 77.2041 723.223 77.2079 723.203 77.2079V73.2079C722.383 73.2079 721.627 73.47 720.983 73.9381L723.336 77.173ZM723.203 77.2079C723.194 77.2079 723.183 77.2072 723.172 77.2055C723.162 77.2037 723.153 77.2015 723.147 77.1996C723.142 77.1979 723.141 77.1972 723.146 77.1996C723.151 77.202 723.162 77.208 723.18 77.2196L725.398 73.8914C724.76 73.4655 724.017 73.2079 723.203 73.2079V77.2079ZM723.281 77.2831C723.189 77.2291 723.223 77.2265 723.389 77.414C723.538 77.5818 723.735 77.8365 723.981 78.1995L727.291 75.9535C726.987 75.5054 726.684 75.101 726.384 74.7618C726.101 74.4422 725.737 74.0848 725.297 73.828L723.281 77.2831ZM724 78.227L740.166 101.216L743.438 98.9149L727.272 75.9261L724 78.227ZM743.707 100.674L751.53 76.2081L747.72 74.9899L739.897 99.4562L743.707 100.674ZM749.625 77.599H774.482V73.599H749.625V77.599ZM772.586 74.9629L749.901 142.582L753.694 143.854L776.378 76.2351L772.586 74.9629ZM749.896 142.597C749.528 143.725 749.019 144.416 748.46 144.84L750.876 148.028C752.229 147.003 753.14 145.55 753.699 143.839L749.896 142.597ZM748.407 144.882C747.804 145.372 747.227 145.564 746.626 145.564V149.564C748.226 149.564 749.678 149.003 750.929 147.986L748.407 144.882ZM746.626 145.564C745.281 145.564 743.773 144.808 742.149 142.436L738.848 144.696C740.874 147.654 743.451 149.564 746.626 149.564V145.564ZM742.142 142.427L722.717 114.397L719.429 116.675L738.855 144.705L742.142 142.427ZM719.468 114.343L698.565 142.459L701.775 144.846L722.678 116.729L719.468 114.343ZM698.57 142.453C697.828 143.442 697.035 144.174 696.203 144.692L698.315 148.089C699.626 147.274 700.774 146.181 701.77 144.853L698.57 142.453ZM696.182 144.705C695.41 145.198 694.721 145.39 694.086 145.39V149.39C695.596 149.39 697.022 148.915 698.336 148.076L696.182 144.705ZM694.086 145.39C693.481 145.39 692.872 145.203 692.221 144.73L689.868 147.965C691.129 148.882 692.548 149.39 694.086 149.39V145.39ZM692.212 144.723C691.716 144.367 691.154 143.659 690.656 142.338L686.913 143.75C687.574 145.501 688.519 146.995 689.877 147.971L692.212 144.723ZM690.665 142.363L666.242 74.918L662.481 76.28L686.904 143.725L690.665 142.363ZM664.362 77.599H695.521V73.599H664.362V77.599Z" fill="white" mask="url(#path-13-outside-2_149_339)"/>
<mask id="path-15-outside-3_149_339" maskUnits="userSpaceOnUse" x="520" y="154" width="258" height="77" fill="black">
<rect fill="white" x="520" y="154" width="258" height="77"/>
<path d="M522.952 156.599H529.992L567.886 183.629V156.599H592.353V226H583.009L547.331 202.142V226H522.952V156.599ZM604.086 156.599H654.105V176.589H631.117V182.282H654.019V199.317H631.117V205.879H655.626V226L604.086 226V156.599ZM695.521 156.599L703.473 181.326L720.812 158.077C721.392 157.294 721.841 156.787 722.16 156.556C722.478 156.324 722.826 156.208 723.203 156.208C723.579 156.208 723.941 156.324 724.289 156.556C724.637 156.758 725.086 157.265 725.636 158.077L741.802 181.065L749.625 156.599L774.482 156.599L751.797 224.218C751.334 225.638 750.624 226.71 749.668 227.434C748.741 228.187 747.727 228.564 746.626 228.564C744.366 228.564 742.324 227.231 740.499 224.566L721.073 196.536L700.17 224.653C699.301 225.812 698.331 226.724 697.259 227.391C696.216 228.057 695.158 228.39 694.086 228.39C693.014 228.39 692 228.042 691.044 227.347C690.117 226.681 689.364 225.58 688.785 224.044L664.362 156.599H695.521Z"/>
</mask>
<path d="M522.952 156.599V154.599H520.952V156.599H522.952ZM529.992 156.599L531.153 154.971L530.632 154.599H529.992V156.599ZM567.886 183.629L566.725 185.257L569.886 187.513V183.629H567.886ZM567.886 156.599V154.599H565.886V156.599H567.886ZM592.353 156.599H594.353V154.599H592.353V156.599ZM592.353 226V228H594.353V226H592.353ZM583.009 226L581.898 227.662L582.402 228H583.009V226ZM547.331 202.142L548.443 200.479L545.331 198.399V202.142H547.331ZM547.331 226V228H549.331V226H547.331ZM522.952 226H520.952V228H522.952V226ZM522.952 158.599H529.992V154.599H522.952V158.599ZM528.83 158.227L566.725 185.257L569.048 182.001L531.153 154.971L528.83 158.227ZM569.886 183.629V156.599H565.886V183.629H569.886ZM567.886 158.599H592.353V154.599H567.886V158.599ZM590.353 156.599V226H594.353V156.599H590.353ZM592.353 224H583.009V228H592.353V224ZM584.121 224.337L548.443 200.479L546.219 203.805L581.898 227.662L584.121 224.337ZM545.331 202.142V226H549.331V202.142H545.331ZM547.331 224H522.952V228H547.331V224ZM524.952 226V156.599H520.952V226H524.952ZM604.086 156.599V154.599H602.086V156.599H604.086ZM654.105 156.599H656.105V154.599H654.105V156.599ZM654.105 176.589V178.589H656.105V176.589H654.105ZM631.117 176.589V174.589H629.117V176.589H631.117ZM631.117 182.282H629.117V184.282H631.117V182.282ZM654.019 182.282H656.019V180.282H654.019V182.282ZM654.019 199.317V201.317H656.019V199.317H654.019ZM631.117 199.317V197.317H629.117V199.317H631.117ZM631.117 205.879H629.117V207.879H631.117V205.879ZM655.626 205.879H657.626V203.879H655.626V205.879ZM655.626 226V228H657.626V226H655.626ZM604.086 226H602.086V228H604.086V226ZM604.086 158.599H654.105V154.599H604.086V158.599ZM652.105 156.599V176.589H656.105V156.599H652.105ZM654.105 174.589H631.117V178.589H654.105V174.589ZM629.117 176.589V182.282H633.117V176.589H629.117ZM631.117 184.282H654.019V180.282H631.117V184.282ZM652.019 182.282V199.317H656.019V182.282H652.019ZM654.019 197.317H631.117V201.317H654.019V197.317ZM629.117 199.317V205.879H633.117V199.317H629.117ZM631.117 207.879H655.626V203.879H631.117V207.879ZM653.626 205.879V226H657.626V205.879H653.626ZM655.626 224L604.086 224V228L655.626 228V224ZM606.086 226V156.599H602.086V226H606.086ZM695.521 156.599L697.424 155.987L696.978 154.599H695.521V156.599ZM703.473 181.326L701.569 181.938L702.757 185.632L705.076 182.522L703.473 181.326ZM720.812 158.077L722.416 159.272L722.42 159.267L720.812 158.077ZM724.289 156.556L723.18 158.22L723.23 158.253L723.281 158.283L724.289 156.556ZM725.636 158.077L723.981 159.2L723.991 159.213L724 159.227L725.636 158.077ZM741.802 181.065L740.166 182.216L742.482 185.508L743.707 181.674L741.802 181.065ZM749.625 156.599V154.599H748.164L747.72 155.99L749.625 156.599ZM774.482 156.599L776.378 157.235L777.262 154.599H774.482V156.599ZM751.797 224.218L749.901 223.582L749.899 223.59L749.896 223.597L751.797 224.218ZM749.668 227.434L748.46 225.84L748.433 225.86L748.407 225.882L749.668 227.434ZM740.499 224.566L742.149 223.436L742.142 223.427L740.499 224.566ZM721.073 196.536L722.717 195.397L721.13 193.107L719.468 195.343L721.073 196.536ZM700.17 224.653L701.77 225.853L701.775 225.846L700.17 224.653ZM697.259 227.391L696.203 225.692L696.192 225.698L696.182 225.705L697.259 227.391ZM691.044 227.347L692.221 225.73L692.212 225.723L691.044 227.347ZM688.785 224.044L686.904 224.725L686.909 224.738L686.913 224.75L688.785 224.044ZM664.362 156.599V154.599H661.511L662.481 157.28L664.362 156.599ZM693.617 157.211L701.569 181.938L705.377 180.714L697.424 155.987L693.617 157.211ZM705.076 182.522L722.416 159.272L719.209 156.881L701.87 180.13L705.076 182.522ZM722.42 159.267C722.688 158.904 722.908 158.631 723.081 158.436C723.267 158.225 723.348 158.164 723.336 158.173L720.983 154.938C720.389 155.371 719.78 156.111 719.205 156.886L722.42 159.267ZM723.336 158.173C723.342 158.169 723.327 158.181 723.292 158.192C723.256 158.204 723.223 158.208 723.203 158.208V154.208C722.383 154.208 721.627 154.47 720.983 154.938L723.336 158.173ZM723.203 158.208C723.194 158.208 723.183 158.207 723.172 158.205C723.162 158.204 723.153 158.201 723.147 158.2C723.142 158.198 723.141 158.197 723.146 158.2C723.151 158.202 723.162 158.208 723.18 158.22L725.398 154.891C724.76 154.466 724.017 154.208 723.203 154.208V158.208ZM723.281 158.283C723.189 158.229 723.223 158.227 723.389 158.414C723.538 158.582 723.735 158.837 723.981 159.2L727.291 156.954C726.987 156.505 726.684 156.101 726.384 155.762C726.101 155.442 725.737 155.085 725.297 154.828L723.281 158.283ZM724 159.227L740.166 182.216L743.438 179.915L727.272 156.926L724 159.227ZM743.707 181.674L751.53 157.208L747.72 155.99L739.897 180.456L743.707 181.674ZM749.625 158.599L774.482 158.599V154.599L749.625 154.599V158.599ZM772.586 155.963L749.901 223.582L753.694 224.854L776.378 157.235L772.586 155.963ZM749.896 223.597C749.528 224.725 749.019 225.416 748.46 225.84L750.876 229.028C752.229 228.003 753.14 226.55 753.699 224.839L749.896 223.597ZM748.407 225.882C747.804 226.372 747.227 226.564 746.626 226.564V230.564C748.226 230.564 749.678 230.003 750.929 228.986L748.407 225.882ZM746.626 226.564C745.281 226.564 743.773 225.808 742.149 223.436L738.848 225.696C740.874 228.654 743.451 230.564 746.626 230.564V226.564ZM742.142 223.427L722.717 195.397L719.429 197.675L738.855 225.705L742.142 223.427ZM719.468 195.343L698.565 223.459L701.775 225.846L722.678 197.729L719.468 195.343ZM698.57 223.453C697.828 224.442 697.035 225.174 696.203 225.692L698.315 229.089C699.626 228.274 700.774 227.181 701.77 225.853L698.57 223.453ZM696.182 225.705C695.41 226.198 694.721 226.39 694.086 226.39V230.39C695.596 230.39 697.022 229.915 698.336 229.076L696.182 225.705ZM694.086 226.39C693.481 226.39 692.872 226.203 692.221 225.73L689.868 228.965C691.129 229.882 692.548 230.39 694.086 230.39V226.39ZM692.212 225.723C691.716 225.367 691.154 224.659 690.656 223.338L686.913 224.75C687.574 226.501 688.519 227.995 689.877 228.971L692.212 225.723ZM690.665 223.363L666.242 155.918L662.481 157.28L686.904 224.725L690.665 223.363ZM664.362 158.599H695.521V154.599H664.362V158.599Z" fill="white" mask="url(#path-15-outside-3_149_339)"/>
<mask id="path-17-outside-4_149_339" maskUnits="userSpaceOnUse" x="520" y="235" width="258" height="77" fill="black">
<rect fill="white" x="520" y="235" width="258" height="77"/>
<path d="M522.952 237.599H529.992L567.886 264.629V237.599H592.353V307H583.009L547.331 283.142V307H522.952V237.599ZM604.086 237.599H654.105V257.589H631.117V263.282H654.019V280.317H631.117V286.879H655.626V307H604.086V237.599ZM695.521 237.599L703.473 262.326L720.812 239.077C721.392 238.294 721.841 237.787 722.16 237.556C722.478 237.324 722.826 237.208 723.203 237.208C723.579 237.208 723.941 237.324 724.289 237.556C724.637 237.758 725.086 238.265 725.636 239.077L741.802 262.065L749.625 237.599L774.482 237.599L751.797 305.218C751.334 306.638 750.624 307.71 749.668 308.434C748.741 309.187 747.727 309.564 746.626 309.564C744.366 309.564 742.324 308.231 740.499 305.566L721.073 277.536L700.17 305.653C699.301 306.812 698.331 307.724 697.259 308.391C696.216 309.057 695.158 309.39 694.086 309.39C693.014 309.39 692 309.042 691.044 308.347C690.117 307.681 689.364 306.58 688.785 305.044L664.362 237.599H695.521Z"/>
</mask>
<path d="M522.952 237.599V235.599H520.952V237.599H522.952ZM529.992 237.599L531.153 235.971L530.632 235.599H529.992V237.599ZM567.886 264.629L566.725 266.257L569.886 268.513V264.629H567.886ZM567.886 237.599V235.599H565.886V237.599H567.886ZM592.353 237.599H594.353V235.599H592.353V237.599ZM592.353 307V309H594.353V307H592.353ZM583.009 307L581.898 308.662L582.402 309H583.009V307ZM547.331 283.142L548.443 281.479L545.331 279.399V283.142H547.331ZM547.331 307V309H549.331V307H547.331ZM522.952 307H520.952V309H522.952V307ZM522.952 239.599H529.992V235.599H522.952V239.599ZM528.83 239.227L566.725 266.257L569.048 263.001L531.153 235.971L528.83 239.227ZM569.886 264.629V237.599H565.886V264.629H569.886ZM567.886 239.599H592.353V235.599H567.886V239.599ZM590.353 237.599V307H594.353V237.599H590.353ZM592.353 305H583.009V309H592.353V305ZM584.121 305.337L548.443 281.479L546.219 284.805L581.898 308.662L584.121 305.337ZM545.331 283.142V307H549.331V283.142H545.331ZM547.331 305H522.952V309H547.331V305ZM524.952 307V237.599H520.952V307H524.952ZM604.086 237.599V235.599H602.086V237.599H604.086ZM654.105 237.599H656.105V235.599H654.105V237.599ZM654.105 257.589V259.589H656.105V257.589H654.105ZM631.117 257.589V255.589H629.117V257.589H631.117ZM631.117 263.282H629.117V265.282H631.117V263.282ZM654.019 263.282H656.019V261.282H654.019V263.282ZM654.019 280.317V282.317H656.019V280.317H654.019ZM631.117 280.317V278.317H629.117V280.317H631.117ZM631.117 286.879H629.117V288.879H631.117V286.879ZM655.626 286.879H657.626V284.879H655.626V286.879ZM655.626 307V309H657.626V307H655.626ZM604.086 307H602.086V309H604.086V307ZM604.086 239.599H654.105V235.599H604.086V239.599ZM652.105 237.599V257.589H656.105V237.599H652.105ZM654.105 255.589H631.117V259.589H654.105V255.589ZM629.117 257.589V263.282H633.117V257.589H629.117ZM631.117 265.282H654.019V261.282H631.117V265.282ZM652.019 263.282V280.317H656.019V263.282H652.019ZM654.019 278.317H631.117V282.317H654.019V278.317ZM629.117 280.317V286.879H633.117V280.317H629.117ZM631.117 288.879H655.626V284.879H631.117V288.879ZM653.626 286.879V307H657.626V286.879H653.626ZM655.626 305H604.086V309H655.626V305ZM606.086 307V237.599H602.086V307H606.086ZM695.521 237.599L697.424 236.987L696.978 235.599H695.521V237.599ZM703.473 262.326L701.569 262.938L702.757 266.632L705.076 263.522L703.473 262.326ZM720.812 239.077L722.416 240.272L722.42 240.267L720.812 239.077ZM724.289 237.556L723.18 239.22L723.23 239.253L723.281 239.283L724.289 237.556ZM725.636 239.077L723.981 240.2L723.991 240.213L724 240.227L725.636 239.077ZM741.802 262.065L740.166 263.216L742.482 266.508L743.707 262.674L741.802 262.065ZM749.625 237.599V235.599H748.164L747.72 236.99L749.625 237.599ZM774.482 237.599L776.378 238.235L777.262 235.599H774.482V237.599ZM751.797 305.218L749.901 304.582L749.899 304.59L749.896 304.597L751.797 305.218ZM749.668 308.434L748.46 306.84L748.433 306.86L748.407 306.882L749.668 308.434ZM740.499 305.566L742.149 304.436L742.142 304.427L740.499 305.566ZM721.073 277.536L722.717 276.397L721.13 274.107L719.468 276.343L721.073 277.536ZM700.17 305.653L701.77 306.853L701.775 306.846L700.17 305.653ZM697.259 308.391L696.203 306.692L696.192 306.698L696.182 306.705L697.259 308.391ZM691.044 308.347L692.221 306.73L692.212 306.723L691.044 308.347ZM688.785 305.044L686.904 305.725L686.909 305.738L686.913 305.75L688.785 305.044ZM664.362 237.599V235.599H661.511L662.481 238.28L664.362 237.599ZM693.617 238.211L701.569 262.938L705.377 261.714L697.424 236.987L693.617 238.211ZM705.076 263.522L722.416 240.272L719.209 237.881L701.87 261.13L705.076 263.522ZM722.42 240.267C722.688 239.904 722.908 239.631 723.081 239.436C723.267 239.225 723.348 239.164 723.336 239.173L720.983 235.938C720.389 236.371 719.78 237.111 719.205 237.886L722.42 240.267ZM723.336 239.173C723.342 239.169 723.327 239.181 723.292 239.192C723.256 239.204 723.223 239.208 723.203 239.208V235.208C722.383 235.208 721.627 235.47 720.983 235.938L723.336 239.173ZM723.203 239.208C723.194 239.208 723.183 239.207 723.172 239.205C723.162 239.204 723.153 239.201 723.147 239.2C723.142 239.198 723.141 239.197 723.146 239.2C723.151 239.202 723.162 239.208 723.18 239.22L725.398 235.891C724.76 235.466 724.017 235.208 723.203 235.208V239.208ZM723.281 239.283C723.189 239.229 723.223 239.227 723.389 239.414C723.538 239.582 723.735 239.837 723.981 240.2L727.291 237.954C726.987 237.505 726.684 237.101 726.384 236.762C726.101 236.442 725.737 236.085 725.297 235.828L723.281 239.283ZM724 240.227L740.166 263.216L743.438 260.915L727.272 237.926L724 240.227ZM743.707 262.674L751.53 238.208L747.72 236.99L739.897 261.456L743.707 262.674ZM749.625 239.599L774.482 239.599V235.599L749.625 235.599V239.599ZM772.586 236.963L749.901 304.582L753.694 305.854L776.378 238.235L772.586 236.963ZM749.896 304.597C749.528 305.725 749.019 306.416 748.46 306.84L750.876 310.028C752.229 309.003 753.14 307.55 753.699 305.839L749.896 304.597ZM748.407 306.882C747.804 307.372 747.227 307.564 746.626 307.564V311.564C748.226 311.564 749.678 311.003 750.929 309.986L748.407 306.882ZM746.626 307.564C745.281 307.564 743.773 306.808 742.149 304.436L738.848 306.696C740.874 309.654 743.451 311.564 746.626 311.564V307.564ZM742.142 304.427L722.717 276.397L719.429 278.675L738.855 306.705L742.142 304.427ZM719.468 276.343L698.565 304.459L701.775 306.846L722.678 278.729L719.468 276.343ZM698.57 304.453C697.828 305.442 697.035 306.174 696.203 306.692L698.315 310.089C699.626 309.274 700.774 308.181 701.77 306.853L698.57 304.453ZM696.182 306.705C695.41 307.198 694.721 307.39 694.086 307.39V311.39C695.596 311.39 697.022 310.915 698.336 310.076L696.182 306.705ZM694.086 307.39C693.481 307.39 692.872 307.203 692.221 306.73L689.868 309.965C691.129 310.882 692.548 311.39 694.086 311.39V307.39ZM692.212 306.723C691.716 306.367 691.154 305.659 690.656 304.338L686.913 305.75C687.574 307.501 688.519 308.995 689.877 309.971L692.212 306.723ZM690.665 304.363L666.242 236.918L662.481 238.28L686.904 305.725L690.665 304.363ZM664.362 239.599H695.521V235.599H664.362V239.599Z" fill="white" mask="url(#path-17-outside-4_149_339)"/>
<mask id="path-19-outside-5_149_339" maskUnits="userSpaceOnUse" x="-48" y="-8.00012" width="258" height="77" fill="black">
<rect fill="white" x="-48" y="-8.00012" width="258" height="77"/>
<path d="M-45.0483 -5.401L-38.0083 -5.401L-0.11377 21.6293L-0.11377 -5.401L24.3525 -5.401L24.3525 63.9999H15.0093L-20.6689 40.142V63.9999H-45.0483L-45.0483 -5.401ZM36.0864 -5.401L86.1055 -5.401V14.5892L63.1167 14.5892V20.2821L86.0186 20.2821V37.3173H63.1167L63.1167 43.8793H87.6265V63.9999L36.0864 63.9999L36.0864 -5.401ZM127.521 -5.401L135.473 19.326L152.812 -3.92346C153.392 -4.70569 153.841 -5.21269 154.16 -5.44446C154.478 -5.67623 154.826 -5.79211 155.203 -5.79211C155.579 -5.79211 155.941 -5.67623 156.289 -5.44446C156.637 -5.24166 157.086 -4.73466 157.636 -3.92346L173.802 19.0653L181.625 -5.401L206.482 -5.401L183.797 62.2181C183.334 63.6377 182.624 64.7097 181.668 65.434C180.741 66.1872 179.727 66.5638 178.626 66.5638C176.366 66.5638 174.324 65.2312 172.499 62.5658L153.073 34.536L132.17 62.6527C131.301 63.8116 130.331 64.7242 129.259 65.3905C128.216 66.0568 127.158 66.39 126.086 66.39C125.014 66.39 124 66.0424 123.044 65.347C122.117 64.6807 121.364 63.5798 120.785 62.0443L96.3618 -5.401L127.521 -5.401Z"/>
</mask>
<path d="M-45.0483 -5.401V-7.401L-47.0483 -7.401V-5.401H-45.0483ZM-38.0083 -5.401L-36.8469 -7.02922L-37.3681 -7.401H-38.0083V-5.401ZM-0.11377 21.6293L-1.27519 23.2575L1.88623 25.5125V21.6293H-0.11377ZM-0.11377 -5.401V-7.401L-2.11377 -7.401V-5.401L-0.11377 -5.401ZM24.3525 -5.401H26.3525V-7.401L24.3525 -7.401V-5.401ZM24.3525 63.9999V65.9999H26.3525V63.9999H24.3525ZM15.0093 63.9999L13.8975 65.6624L14.4022 65.9999H15.0093V63.9999ZM-20.6689 40.142L-19.5572 38.4794L-22.6689 36.3986V40.142H-20.6689ZM-20.6689 63.9999L-20.6689 65.9999H-18.6689L-18.6689 63.9999H-20.6689ZM-45.0483 63.9999H-47.0483V65.9999H-45.0483V63.9999ZM-45.0483 -3.401L-38.0083 -3.401V-7.401L-45.0483 -7.401V-3.401ZM-39.1697 -3.77278L-1.27519 23.2575L1.04765 20.001L-36.8469 -7.02922L-39.1697 -3.77278ZM1.88623 21.6293L1.88623 -5.401L-2.11377 -5.401L-2.11377 21.6293H1.88623ZM-0.11377 -3.401L24.3525 -3.401V-7.401L-0.11377 -7.401V-3.401ZM22.3525 -5.401L22.3525 63.9999H26.3525L26.3525 -5.401L22.3525 -5.401ZM24.3525 61.9999H15.0093V65.9999H24.3525V61.9999ZM16.121 62.3373L-19.5572 38.4794L-21.7807 41.8045L13.8975 65.6624L16.121 62.3373ZM-22.6689 40.142V63.9999H-18.6689V40.142H-22.6689ZM-20.6689 61.9999H-45.0483V65.9999H-20.6689L-20.6689 61.9999ZM-43.0483 63.9999L-43.0483 -5.401L-47.0483 -5.401L-47.0483 63.9999H-43.0483ZM36.0864 -5.401V-7.401H34.0864V-5.401L36.0864 -5.401ZM86.1055 -5.401L88.1055 -5.401V-7.401L86.1055 -7.401V-5.401ZM86.1055 14.5892V16.5892H88.1055V14.5892H86.1055ZM63.1167 14.5892V12.5892H61.1167V14.5892L63.1167 14.5892ZM63.1167 20.2821L61.1167 20.2821V22.2821L63.1167 22.2821V20.2821ZM86.0186 20.2821H88.0186V18.2821H86.0186V20.2821ZM86.0186 37.3173V39.3173H88.0186V37.3173H86.0186ZM63.1167 37.3173V35.3173H61.1167V37.3173H63.1167ZM63.1167 43.8793H61.1167V45.8793H63.1167V43.8793ZM87.6265 43.8793H89.6265V41.8793H87.6265V43.8793ZM87.6265 63.9999V65.9999H89.6265V63.9999H87.6265ZM36.0864 63.9999H34.0864V65.9999H36.0864V63.9999ZM36.0864 -3.401L86.1055 -3.401V-7.401L36.0864 -7.401V-3.401ZM84.1055 -5.401V14.5892H88.1055V-5.401L84.1055 -5.401ZM86.1055 12.5892L63.1167 12.5892V16.5892L86.1055 16.5892V12.5892ZM61.1167 14.5892V20.2821L65.1167 20.2821V14.5892L61.1167 14.5892ZM63.1167 22.2821L86.0186 22.2821V18.2821L63.1167 18.2821V22.2821ZM84.0186 20.2821V37.3173H88.0186V20.2821H84.0186ZM86.0186 35.3173H63.1167V39.3173H86.0186V35.3173ZM61.1167 37.3173L61.1167 43.8793H65.1167L65.1167 37.3173H61.1167ZM63.1167 45.8793H87.6265V41.8793H63.1167L63.1167 45.8793ZM85.6265 43.8793V63.9999H89.6265V43.8793H85.6265ZM87.6265 61.9999L36.0864 61.9999V65.9999L87.6265 65.9999V61.9999ZM38.0864 63.9999L38.0864 -5.401L34.0864 -5.401L34.0864 63.9999H38.0864ZM127.521 -5.401L129.424 -6.01334L128.978 -7.401H127.521V-5.401ZM135.473 19.326L133.569 19.9384L134.757 23.6317L137.076 20.5217L135.473 19.326ZM152.812 -3.92346L154.416 -2.72778L154.42 -2.73301L152.812 -3.92346ZM156.289 -5.44446L155.18 -3.78036L155.23 -3.74711L155.281 -3.7169L156.289 -5.44446ZM157.636 -3.92346L155.981 -2.80046L155.991 -2.78666L156 -2.77301L157.636 -3.92346ZM173.802 19.0653L172.166 20.2158L174.482 23.5082L175.707 19.6744L173.802 19.0653ZM181.625 -5.401V-7.401L180.164 -7.401L179.72 -6.01006L181.625 -5.401ZM206.482 -5.401L208.378 -4.76489L209.262 -7.401L206.482 -7.401V-5.401ZM183.797 62.2181L181.901 61.582L181.899 61.5897L181.896 61.5973L183.797 62.2181ZM181.668 65.434L180.46 63.8398L180.433 63.8603L180.407 63.8817L181.668 65.434ZM172.499 62.5658L174.149 61.4358L174.142 61.4266L172.499 62.5658ZM153.073 34.536L154.717 33.3968L153.13 31.1071L151.468 33.3428L153.073 34.536ZM132.17 62.6527L133.77 63.8527L133.775 63.846L132.17 62.6527ZM129.259 65.3905L128.203 63.6919L128.192 63.6985L128.182 63.7051L129.259 65.3905ZM123.044 65.347L124.221 63.7295L124.212 63.723L123.044 65.347ZM120.785 62.0443L118.904 62.7253L118.909 62.7379L118.913 62.7504L120.785 62.0443ZM96.3618 -5.401V-7.401H93.5105L94.4813 -4.72004L96.3618 -5.401ZM125.617 -4.78866L133.569 19.9384L137.377 18.7137L129.424 -6.01334L125.617 -4.78866ZM137.076 20.5217L154.416 -2.72778L151.209 -5.11914L133.87 18.1304L137.076 20.5217ZM154.42 -2.73301C154.688 -3.09566 154.908 -3.36865 155.081 -3.56431C155.267 -3.77482 155.348 -3.83576 155.336 -3.82699L152.983 -7.06193C152.389 -6.62941 151.78 -5.88918 151.205 -5.11392L154.42 -2.73301ZM155.336 -3.82699C155.342 -3.83131 155.327 -3.81945 155.292 -3.80783C155.256 -3.79592 155.223 -3.79211 155.203 -3.79211V-7.79211C154.383 -7.79211 153.627 -7.53005 152.983 -7.06193L155.336 -3.82699ZM155.203 -3.79211C155.194 -3.79211 155.183 -3.79283 155.172 -3.79455C155.162 -3.79626 155.153 -3.79853 155.147 -3.80035C155.142 -3.80214 155.141 -3.8028 155.146 -3.80043C155.151 -3.798 155.162 -3.79204 155.18 -3.78036L157.398 -7.10856C156.76 -7.53446 156.017 -7.79211 155.203 -7.79211V-3.79211ZM155.281 -3.7169C155.189 -3.7709 155.223 -3.77345 155.389 -3.58604C155.538 -3.41818 155.735 -3.16348 155.981 -2.80046L159.291 -5.04646C158.987 -5.49465 158.684 -5.89904 158.384 -6.23818C158.101 -6.55777 157.737 -6.91521 157.297 -7.17202L155.281 -3.7169ZM156 -2.77301L172.166 20.2158L175.438 17.9149L159.272 -5.07391L156 -2.77301ZM175.707 19.6744L183.53 -4.79194L179.72 -6.01006L171.897 18.4562L175.707 19.6744ZM181.625 -3.401L206.482 -3.401V-7.401L181.625 -7.401V-3.401ZM204.586 -6.03711L181.901 61.582L185.694 62.8542L208.378 -4.76489L204.586 -6.03711ZM181.896 61.5973C181.528 62.725 181.019 63.4162 180.46 63.8398L182.876 67.0281C184.229 66.0032 185.14 64.5504 185.699 62.8389L181.896 61.5973ZM180.407 63.8817C179.804 64.3717 179.227 64.5638 178.626 64.5638V68.5638C180.226 68.5638 181.678 68.0027 182.929 66.9862L180.407 63.8817ZM178.626 64.5638C177.281 64.5638 175.773 63.8079 174.149 61.4358L170.848 63.6958C172.874 66.6544 175.451 68.5638 178.626 68.5638V64.5638ZM174.142 61.4266L154.717 33.3968L151.429 35.6752L170.855 63.705L174.142 61.4266ZM151.468 33.3428L130.565 61.4595L133.775 63.846L154.678 35.7293L151.468 33.3428ZM130.57 61.4527C129.828 62.442 129.035 63.1744 128.203 63.6919L130.315 67.0891C131.626 66.2739 132.774 65.1811 133.77 63.8527L130.57 61.4527ZM128.182 63.7051C127.41 64.1985 126.721 64.39 126.086 64.39V68.39C127.596 68.39 129.022 67.9152 130.336 67.0759L128.182 63.7051ZM126.086 64.39C125.481 64.39 124.872 64.2031 124.221 63.7296L121.868 66.9645C123.129 67.8816 124.548 68.39 126.086 68.39V64.39ZM124.212 63.723C123.716 63.3668 123.154 62.6588 122.656 61.3382L118.913 62.7504C119.574 64.5008 120.519 65.9947 121.877 66.9711L124.212 63.723ZM122.665 61.3634L98.2423 -6.08196L94.4813 -4.72004L118.904 62.7253L122.665 61.3634ZM96.3618 -3.401L127.521 -3.401V-7.401L96.3618 -7.401V-3.401Z" fill="white" mask="url(#path-19-outside-5_149_339)"/>
<mask id="path-21-outside-6_149_339" maskUnits="userSpaceOnUse" x="-48" y="72.9999" width="258" height="77" fill="black">
<rect fill="white" x="-48" y="72.9999" width="258" height="77"/>
<path d="M-45.0483 75.599H-38.0083L-0.11377 102.629L-0.11377 75.599H24.3525L24.3525 145H15.0093L-20.6689 121.142V145H-45.0483L-45.0483 75.599ZM36.0864 75.599L86.1055 75.599V95.5892H63.1167V101.282H86.0186V118.317H63.1167L63.1167 124.879H87.6265V145L36.0864 145L36.0864 75.599ZM127.521 75.599L135.473 100.326L152.812 77.0765C153.392 76.2943 153.841 75.7873 154.16 75.5555C154.478 75.3238 154.826 75.2079 155.203 75.2079C155.579 75.2079 155.941 75.3238 156.289 75.5555C156.637 75.7583 157.086 76.2653 157.636 77.0765L173.802 100.065L181.625 75.599H206.482L183.797 143.218C183.334 144.638 182.624 145.71 181.668 146.434C180.741 147.187 179.727 147.564 178.626 147.564C176.366 147.564 174.324 146.231 172.499 143.566L153.073 115.536L132.17 143.653C131.301 144.812 130.331 145.724 129.259 146.391C128.216 147.057 127.158 147.39 126.086 147.39C125.014 147.39 124 147.042 123.044 146.347C122.117 145.681 121.364 144.58 120.785 143.044L96.3618 75.599H127.521Z"/>
</mask>
<path d="M-45.0483 75.599V73.599H-47.0483V75.599H-45.0483ZM-38.0083 75.599L-36.8469 73.9708L-37.3681 73.599H-38.0083V75.599ZM-0.11377 102.629L-1.27519 104.257L1.88623 106.513V102.629H-0.11377ZM-0.11377 75.599V73.599H-2.11377V75.599H-0.11377ZM24.3525 75.599H26.3525V73.599H24.3525V75.599ZM24.3525 145V147H26.3525V145H24.3525ZM15.0093 145L13.8975 146.662L14.4022 147H15.0093V145ZM-20.6689 121.142L-19.5572 119.479L-22.6689 117.399V121.142H-20.6689ZM-20.6689 145L-20.6689 147H-18.6689L-18.6689 145H-20.6689ZM-45.0483 145H-47.0483V147H-45.0483V145ZM-45.0483 77.599H-38.0083V73.599H-45.0483V77.599ZM-39.1697 77.2272L-1.27519 104.257L1.04765 101.001L-36.8469 73.9708L-39.1697 77.2272ZM1.88623 102.629L1.88623 75.599H-2.11377L-2.11377 102.629H1.88623ZM-0.11377 77.599H24.3525V73.599H-0.11377V77.599ZM22.3525 75.599L22.3525 145H26.3525L26.3525 75.599H22.3525ZM24.3525 143H15.0093V147H24.3525V143ZM16.121 143.337L-19.5572 119.479L-21.7807 122.805L13.8975 146.662L16.121 143.337ZM-22.6689 121.142V145H-18.6689V121.142H-22.6689ZM-20.6689 143H-45.0483V147H-20.6689L-20.6689 143ZM-43.0483 145L-43.0483 75.599H-47.0483L-47.0483 145H-43.0483ZM36.0864 75.599V73.599H34.0864V75.599H36.0864ZM86.1055 75.599H88.1055V73.599H86.1055V75.599ZM86.1055 95.5892V97.5892H88.1055V95.5892H86.1055ZM63.1167 95.5892V93.5892H61.1167V95.5892L63.1167 95.5892ZM63.1167 101.282L61.1167 101.282V103.282L63.1167 103.282V101.282ZM86.0186 101.282H88.0186V99.2821H86.0186V101.282ZM86.0186 118.317V120.317H88.0186V118.317H86.0186ZM63.1167 118.317V116.317H61.1167V118.317H63.1167ZM63.1167 124.879H61.1167V126.879H63.1167V124.879ZM87.6265 124.879H89.6265V122.879H87.6265V124.879ZM87.6265 145V147H89.6265V145H87.6265ZM36.0864 145H34.0864V147H36.0864V145ZM36.0864 77.599L86.1055 77.599V73.599L36.0864 73.599V77.599ZM84.1055 75.599V95.5892H88.1055V75.599H84.1055ZM86.1055 93.5892L63.1167 93.5892V97.5892H86.1055V93.5892ZM61.1167 95.5892V101.282L65.1167 101.282V95.5892L61.1167 95.5892ZM63.1167 103.282H86.0186V99.2821H63.1167V103.282ZM84.0186 101.282V118.317H88.0186V101.282H84.0186ZM86.0186 116.317H63.1167V120.317H86.0186V116.317ZM61.1167 118.317L61.1167 124.879H65.1167L65.1167 118.317H61.1167ZM63.1167 126.879H87.6265V122.879H63.1167L63.1167 126.879ZM85.6265 124.879V145H89.6265V124.879H85.6265ZM87.6265 143L36.0864 143V147L87.6265 147V143ZM38.0864 145L38.0864 75.599H34.0864L34.0864 145H38.0864ZM127.521 75.599L129.424 74.9867L128.978 73.599H127.521V75.599ZM135.473 100.326L133.569 100.938L134.757 104.632L137.076 101.522L135.473 100.326ZM152.812 77.0765L154.416 78.2722L154.42 78.267L152.812 77.0765ZM156.289 75.5555L155.18 77.2196L155.23 77.2529L155.281 77.2831L156.289 75.5555ZM157.636 77.0765L155.981 78.1995L155.991 78.2133L156 78.227L157.636 77.0765ZM173.802 100.065L172.166 101.216L174.482 104.508L175.707 100.674L173.802 100.065ZM181.625 75.599V73.599H180.164L179.72 74.9899L181.625 75.599ZM206.482 75.599L208.378 76.2351L209.262 73.599H206.482V75.599ZM183.797 143.218L181.901 142.582L181.899 142.59L181.896 142.597L183.797 143.218ZM181.668 146.434L180.46 144.84L180.433 144.86L180.407 144.882L181.668 146.434ZM172.499 143.566L174.149 142.436L174.142 142.427L172.499 143.566ZM153.073 115.536L154.717 114.397L153.13 112.107L151.468 114.343L153.073 115.536ZM132.17 143.653L133.77 144.853L133.775 144.846L132.17 143.653ZM129.259 146.391L128.203 144.692L128.192 144.698L128.182 144.705L129.259 146.391ZM123.044 146.347L124.221 144.73L124.212 144.723L123.044 146.347ZM120.785 143.044L118.904 143.725L118.909 143.738L118.913 143.75L120.785 143.044ZM96.3618 75.599V73.599H93.5105L94.4813 76.28L96.3618 75.599ZM125.617 76.2113L133.569 100.938L137.377 99.7137L129.424 74.9867L125.617 76.2113ZM137.076 101.522L154.416 78.2722L151.209 75.8809L133.87 99.1304L137.076 101.522ZM154.42 78.267C154.688 77.9043 154.908 77.6313 155.081 77.4357C155.267 77.2252 155.348 77.1642 155.336 77.173L152.983 73.9381C152.389 74.3706 151.78 75.1108 151.205 75.8861L154.42 78.267ZM155.336 77.173C155.342 77.1687 155.327 77.1805 155.292 77.1922C155.256 77.2041 155.223 77.2079 155.203 77.2079V73.2079C154.383 73.2079 153.627 73.47 152.983 73.9381L155.336 77.173ZM155.203 77.2079C155.194 77.2079 155.183 77.2072 155.172 77.2055C155.162 77.2037 155.153 77.2015 155.147 77.1996C155.142 77.1979 155.141 77.1972 155.146 77.1996C155.151 77.202 155.162 77.208 155.18 77.2196L157.398 73.8914C156.76 73.4655 156.017 73.2079 155.203 73.2079V77.2079ZM155.281 77.2831C155.189 77.2291 155.223 77.2265 155.389 77.414C155.538 77.5818 155.735 77.8365 155.981 78.1995L159.291 75.9535C158.987 75.5054 158.684 75.101 158.384 74.7618C158.101 74.4422 157.737 74.0848 157.297 73.828L155.281 77.2831ZM156 78.227L172.166 101.216L175.438 98.9149L159.272 75.9261L156 78.227ZM175.707 100.674L183.53 76.2081L179.72 74.9899L171.897 99.4562L175.707 100.674ZM181.625 77.599H206.482V73.599H181.625V77.599ZM204.586 74.9629L181.901 142.582L185.694 143.854L208.378 76.2351L204.586 74.9629ZM181.896 142.597C181.528 143.725 181.019 144.416 180.46 144.84L182.876 148.028C184.229 147.003 185.14 145.55 185.699 143.839L181.896 142.597ZM180.407 144.882C179.804 145.372 179.227 145.564 178.626 145.564V149.564C180.226 149.564 181.678 149.003 182.929 147.986L180.407 144.882ZM178.626 145.564C177.281 145.564 175.773 144.808 174.149 142.436L170.848 144.696C172.874 147.654 175.451 149.564 178.626 149.564V145.564ZM174.142 142.427L154.717 114.397L151.429 116.675L170.855 144.705L174.142 142.427ZM151.468 114.343L130.565 142.459L133.775 144.846L154.678 116.729L151.468 114.343ZM130.57 142.453C129.828 143.442 129.035 144.174 128.203 144.692L130.315 148.089C131.626 147.274 132.774 146.181 133.77 144.853L130.57 142.453ZM128.182 144.705C127.41 145.198 126.721 145.39 126.086 145.39V149.39C127.596 149.39 129.022 148.915 130.336 148.076L128.182 144.705ZM126.086 145.39C125.481 145.39 124.872 145.203 124.221 144.73L121.868 147.965C123.129 148.882 124.548 149.39 126.086 149.39V145.39ZM124.212 144.723C123.716 144.367 123.154 143.659 122.656 142.338L118.913 143.75C119.574 145.501 120.519 146.995 121.877 147.971L124.212 144.723ZM122.665 142.363L98.2423 74.918L94.4813 76.28L118.904 143.725L122.665 142.363ZM96.3618 77.599H127.521V73.599H96.3618V77.599Z" fill="white" mask="url(#path-21-outside-6_149_339)"/>
<mask id="path-23-outside-7_149_339" maskUnits="userSpaceOnUse" x="-48" y="154" width="258" height="77" fill="black">
<rect fill="white" x="-48" y="154" width="258" height="77"/>
<path d="M-45.0483 156.599H-38.0083L-0.11377 183.629L-0.11377 156.599H24.3525L24.3525 226H15.0093L-20.6689 202.142V226H-45.0483L-45.0483 156.599ZM36.0864 156.599H86.1055V176.589H63.1167V182.282H86.0186V199.317H63.1167L63.1167 205.879H87.6265V226L36.0864 226L36.0864 156.599ZM127.521 156.599L135.473 181.326L152.812 158.077C153.392 157.294 153.841 156.787 154.16 156.556C154.478 156.324 154.826 156.208 155.203 156.208C155.579 156.208 155.941 156.324 156.289 156.556C156.637 156.758 157.086 157.265 157.636 158.077L173.802 181.065L181.625 156.599L206.482 156.599L183.797 224.218C183.334 225.638 182.624 226.71 181.668 227.434C180.741 228.187 179.727 228.564 178.626 228.564C176.366 228.564 174.324 227.231 172.499 224.566L153.073 196.536L132.17 224.653C131.301 225.812 130.331 226.724 129.259 227.391C128.216 228.057 127.158 228.39 126.086 228.39C125.014 228.39 124 228.042 123.044 227.347C122.117 226.681 121.364 225.58 120.785 224.044L96.3618 156.599H127.521Z"/>
</mask>
<path d="M-45.0483 156.599V154.599H-47.0483V156.599H-45.0483ZM-38.0083 156.599L-36.8469 154.971L-37.3681 154.599H-38.0083V156.599ZM-0.11377 183.629L-1.27519 185.257L1.88623 187.513V183.629H-0.11377ZM-0.11377 156.599V154.599H-2.11377V156.599H-0.11377ZM24.3525 156.599H26.3525V154.599H24.3525V156.599ZM24.3525 226V228H26.3525V226H24.3525ZM15.0093 226L13.8975 227.662L14.4022 228H15.0093V226ZM-20.6689 202.142L-19.5572 200.479L-22.6689 198.399V202.142H-20.6689ZM-20.6689 226L-20.6689 228H-18.6689L-18.6689 226H-20.6689ZM-45.0483 226H-47.0483V228H-45.0483V226ZM-45.0483 158.599H-38.0083V154.599H-45.0483V158.599ZM-39.1697 158.227L-1.27519 185.257L1.04765 182.001L-36.8469 154.971L-39.1697 158.227ZM1.88623 183.629L1.88623 156.599H-2.11377L-2.11377 183.629H1.88623ZM-0.11377 158.599H24.3525V154.599H-0.11377V158.599ZM22.3525 156.599L22.3525 226H26.3525L26.3525 156.599H22.3525ZM24.3525 224H15.0093V228H24.3525V224ZM16.121 224.337L-19.5572 200.479L-21.7807 203.805L13.8975 227.662L16.121 224.337ZM-22.6689 202.142V226H-18.6689V202.142H-22.6689ZM-20.6689 224H-45.0483V228H-20.6689L-20.6689 224ZM-43.0483 226L-43.0483 156.599H-47.0483L-47.0483 226H-43.0483ZM36.0864 156.599V154.599H34.0864V156.599H36.0864ZM86.1055 156.599H88.1055V154.599H86.1055V156.599ZM86.1055 176.589V178.589H88.1055V176.589H86.1055ZM63.1167 176.589V174.589H61.1167V176.589H63.1167ZM63.1167 182.282H61.1167V184.282H63.1167V182.282ZM86.0186 182.282H88.0186V180.282H86.0186V182.282ZM86.0186 199.317V201.317H88.0186V199.317H86.0186ZM63.1167 199.317V197.317H61.1167V199.317H63.1167ZM63.1167 205.879H61.1167V207.879H63.1167V205.879ZM87.6265 205.879H89.6265V203.879H87.6265V205.879ZM87.6265 226V228H89.6265V226H87.6265ZM36.0864 226H34.0864V228H36.0864V226ZM36.0864 158.599H86.1055V154.599H36.0864V158.599ZM84.1055 156.599V176.589H88.1055V156.599H84.1055ZM86.1055 174.589H63.1167V178.589H86.1055V174.589ZM61.1167 176.589V182.282H65.1167V176.589H61.1167ZM63.1167 184.282H86.0186V180.282H63.1167V184.282ZM84.0186 182.282V199.317H88.0186V182.282H84.0186ZM86.0186 197.317H63.1167V201.317H86.0186V197.317ZM61.1167 199.317L61.1167 205.879H65.1167L65.1167 199.317H61.1167ZM63.1167 207.879H87.6265V203.879H63.1167L63.1167 207.879ZM85.6265 205.879V226H89.6265V205.879H85.6265ZM87.6265 224L36.0864 224V228L87.6265 228V224ZM38.0864 226L38.0864 156.599H34.0864L34.0864 226H38.0864ZM127.521 156.599L129.424 155.987L128.978 154.599H127.521V156.599ZM135.473 181.326L133.569 181.938L134.757 185.632L137.076 182.522L135.473 181.326ZM152.812 158.077L154.416 159.272L154.42 159.267L152.812 158.077ZM156.289 156.556L155.18 158.22L155.23 158.253L155.281 158.283L156.289 156.556ZM157.636 158.077L155.981 159.2L155.991 159.213L156 159.227L157.636 158.077ZM173.802 181.065L172.166 182.216L174.482 185.508L175.707 181.674L173.802 181.065ZM181.625 156.599V154.599H180.164L179.72 155.99L181.625 156.599ZM206.482 156.599L208.378 157.235L209.262 154.599H206.482V156.599ZM183.797 224.218L181.901 223.582L181.899 223.59L181.896 223.597L183.797 224.218ZM181.668 227.434L180.46 225.84L180.433 225.86L180.407 225.882L181.668 227.434ZM172.499 224.566L174.149 223.436L174.142 223.427L172.499 224.566ZM153.073 196.536L154.717 195.397L153.13 193.107L151.468 195.343L153.073 196.536ZM132.17 224.653L133.77 225.853L133.775 225.846L132.17 224.653ZM129.259 227.391L128.203 225.692L128.192 225.698L128.182 225.705L129.259 227.391ZM123.044 227.347L124.221 225.73L124.212 225.723L123.044 227.347ZM120.785 224.044L118.904 224.725L118.909 224.738L118.913 224.75L120.785 224.044ZM96.3618 156.599V154.599H93.5105L94.4813 157.28L96.3618 156.599ZM125.617 157.211L133.569 181.938L137.377 180.714L129.424 155.987L125.617 157.211ZM137.076 182.522L154.416 159.272L151.209 156.881L133.87 180.13L137.076 182.522ZM154.42 159.267C154.688 158.904 154.908 158.631 155.081 158.436C155.267 158.225 155.348 158.164 155.336 158.173L152.983 154.938C152.389 155.371 151.78 156.111 151.205 156.886L154.42 159.267ZM155.336 158.173C155.342 158.169 155.327 158.181 155.292 158.192C155.256 158.204 155.223 158.208 155.203 158.208V154.208C154.383 154.208 153.627 154.47 152.983 154.938L155.336 158.173ZM155.203 158.208C155.194 158.208 155.183 158.207 155.172 158.205C155.162 158.204 155.153 158.201 155.147 158.2C155.142 158.198 155.141 158.197 155.146 158.2C155.151 158.202 155.162 158.208 155.18 158.22L157.398 154.891C156.76 154.466 156.017 154.208 155.203 154.208V158.208ZM155.281 158.283C155.189 158.229 155.223 158.227 155.389 158.414C155.538 158.582 155.735 158.837 155.981 159.2L159.291 156.954C158.987 156.505 158.684 156.101 158.384 155.762C158.101 155.442 157.737 155.085 157.297 154.828L155.281 158.283ZM156 159.227L172.166 182.216L175.438 179.915L159.272 156.926L156 159.227ZM175.707 181.674L183.53 157.208L179.72 155.99L171.897 180.456L175.707 181.674ZM181.625 158.599L206.482 158.599V154.599L181.625 154.599V158.599ZM204.586 155.963L181.901 223.582L185.694 224.854L208.378 157.235L204.586 155.963ZM181.896 223.597C181.528 224.725 181.019 225.416 180.46 225.84L182.876 229.028C184.229 228.003 185.14 226.55 185.699 224.839L181.896 223.597ZM180.407 225.882C179.804 226.372 179.227 226.564 178.626 226.564V230.564C180.226 230.564 181.678 230.003 182.929 228.986L180.407 225.882ZM178.626 226.564C177.281 226.564 175.773 225.808 174.149 223.436L170.848 225.696C172.874 228.654 175.451 230.564 178.626 230.564V226.564ZM174.142 223.427L154.717 195.397L151.429 197.675L170.855 225.705L174.142 223.427ZM151.468 195.343L130.565 223.459L133.775 225.846L154.678 197.729L151.468 195.343ZM130.57 223.453C129.828 224.442 129.035 225.174 128.203 225.692L130.315 229.089C131.626 228.274 132.774 227.181 133.77 225.853L130.57 223.453ZM128.182 225.705C127.41 226.198 126.721 226.39 126.086 226.39V230.39C127.596 230.39 129.022 229.915 130.336 229.076L128.182 225.705ZM126.086 226.39C125.481 226.39 124.872 226.203 124.221 225.73L121.868 228.965C123.129 229.882 124.548 230.39 126.086 230.39V226.39ZM124.212 225.723C123.716 225.367 123.154 224.659 122.656 223.338L118.913 224.75C119.574 226.501 120.519 227.995 121.877 228.971L124.212 225.723ZM122.665 223.363L98.2423 155.918L94.4813 157.28L118.904 224.725L122.665 223.363ZM96.3618 158.599H127.521V154.599H96.3618V158.599Z" fill="white" mask="url(#path-23-outside-7_149_339)"/>
<mask id="path-25-outside-8_149_339" maskUnits="userSpaceOnUse" x="-48" y="235" width="258" height="77" fill="black">
<rect fill="white" x="-48" y="235" width="258" height="77"/>
<path d="M-45.0483 237.599H-38.0083L-0.11377 264.629L-0.11377 237.599H24.3525L24.3525 307H15.0093L-20.6689 283.142V307H-45.0483L-45.0483 237.599ZM36.0864 237.599H86.1055V257.589H63.1167V263.282H86.0186V280.317H63.1167L63.1167 286.879H87.6265V307H36.0864L36.0864 237.599ZM127.521 237.599L135.473 262.326L152.812 239.077C153.392 238.294 153.841 237.787 154.16 237.556C154.478 237.324 154.826 237.208 155.203 237.208C155.579 237.208 155.941 237.324 156.289 237.556C156.637 237.758 157.086 238.265 157.636 239.077L173.802 262.065L181.625 237.599L206.482 237.599L183.797 305.218C183.334 306.638 182.624 307.71 181.668 308.434C180.741 309.187 179.727 309.564 178.626 309.564C176.366 309.564 174.324 308.231 172.499 305.566L153.073 277.536L132.17 305.653C131.301 306.812 130.331 307.724 129.259 308.391C128.216 309.057 127.158 309.39 126.086 309.39C125.014 309.39 124 309.042 123.044 308.347C122.117 307.681 121.364 306.58 120.785 305.044L96.3618 237.599H127.521Z"/>
</mask>
<path d="M-45.0483 237.599V235.599H-47.0483V237.599H-45.0483ZM-38.0083 237.599L-36.8469 235.971L-37.3681 235.599H-38.0083V237.599ZM-0.11377 264.629L-1.27519 266.257L1.88623 268.513V264.629H-0.11377ZM-0.11377 237.599V235.599H-2.11377V237.599H-0.11377ZM24.3525 237.599H26.3525V235.599H24.3525V237.599ZM24.3525 307V309H26.3525V307H24.3525ZM15.0093 307L13.8975 308.662L14.4022 309H15.0093V307ZM-20.6689 283.142L-19.5572 281.479L-22.6689 279.399V283.142H-20.6689ZM-20.6689 307L-20.6689 309H-18.6689L-18.6689 307H-20.6689ZM-45.0483 307H-47.0483V309H-45.0483V307ZM-45.0483 239.599H-38.0083V235.599H-45.0483V239.599ZM-39.1697 239.227L-1.27519 266.257L1.04765 263.001L-36.8469 235.971L-39.1697 239.227ZM1.88623 264.629L1.88623 237.599H-2.11377L-2.11377 264.629H1.88623ZM-0.11377 239.599H24.3525V235.599H-0.11377V239.599ZM22.3525 237.599L22.3525 307H26.3525L26.3525 237.599H22.3525ZM24.3525 305H15.0093V309H24.3525V305ZM16.121 305.337L-19.5572 281.479L-21.7807 284.805L13.8975 308.662L16.121 305.337ZM-22.6689 283.142V307H-18.6689V283.142H-22.6689ZM-20.6689 305H-45.0483V309H-20.6689L-20.6689 305ZM-43.0483 307L-43.0483 237.599H-47.0483L-47.0483 307H-43.0483ZM36.0864 237.599V235.599H34.0864V237.599H36.0864ZM86.1055 237.599H88.1055V235.599H86.1055V237.599ZM86.1055 257.589V259.589H88.1055V257.589H86.1055ZM63.1167 257.589V255.589H61.1167V257.589H63.1167ZM63.1167 263.282H61.1167V265.282H63.1167V263.282ZM86.0186 263.282H88.0186V261.282H86.0186V263.282ZM86.0186 280.317V282.317H88.0186V280.317H86.0186ZM63.1167 280.317V278.317H61.1167V280.317H63.1167ZM63.1167 286.879H61.1167V288.879H63.1167V286.879ZM87.6265 286.879H89.6265V284.879H87.6265V286.879ZM87.6265 307V309H89.6265V307H87.6265ZM36.0864 307H34.0864V309H36.0864V307ZM36.0864 239.599H86.1055V235.599H36.0864V239.599ZM84.1055 237.599V257.589H88.1055V237.599H84.1055ZM86.1055 255.589H63.1167V259.589H86.1055V255.589ZM61.1167 257.589V263.282H65.1167V257.589H61.1167ZM63.1167 265.282H86.0186V261.282H63.1167V265.282ZM84.0186 263.282V280.317H88.0186V263.282H84.0186ZM86.0186 278.317H63.1167V282.317H86.0186V278.317ZM61.1167 280.317L61.1167 286.879H65.1167L65.1167 280.317H61.1167ZM63.1167 288.879H87.6265V284.879H63.1167L63.1167 288.879ZM85.6265 286.879V307H89.6265V286.879H85.6265ZM87.6265 305H36.0864V309H87.6265V305ZM38.0864 307L38.0864 237.599H34.0864L34.0864 307H38.0864ZM127.521 237.599L129.424 236.987L128.978 235.599H127.521V237.599ZM135.473 262.326L133.569 262.938L134.757 266.632L137.076 263.522L135.473 262.326ZM152.812 239.077L154.416 240.272L154.42 240.267L152.812 239.077ZM156.289 237.556L155.18 239.22L155.23 239.253L155.281 239.283L156.289 237.556ZM157.636 239.077L155.981 240.2L155.991 240.213L156 240.227L157.636 239.077ZM173.802 262.065L172.166 263.216L174.482 266.508L175.707 262.674L173.802 262.065ZM181.625 237.599V235.599H180.164L179.72 236.99L181.625 237.599ZM206.482 237.599L208.378 238.235L209.262 235.599H206.482V237.599ZM183.797 305.218L181.901 304.582L181.899 304.59L181.896 304.597L183.797 305.218ZM181.668 308.434L180.46 306.84L180.433 306.86L180.407 306.882L181.668 308.434ZM172.499 305.566L174.149 304.436L174.142 304.427L172.499 305.566ZM153.073 277.536L154.717 276.397L153.13 274.107L151.468 276.343L153.073 277.536ZM132.17 305.653L133.77 306.853L133.775 306.846L132.17 305.653ZM129.259 308.391L128.203 306.692L128.192 306.698L128.182 306.705L129.259 308.391ZM123.044 308.347L124.221 306.73L124.212 306.723L123.044 308.347ZM120.785 305.044L118.904 305.725L118.909 305.738L118.913 305.75L120.785 305.044ZM96.3618 237.599V235.599H93.5105L94.4813 238.28L96.3618 237.599ZM125.617 238.211L133.569 262.938L137.377 261.714L129.424 236.987L125.617 238.211ZM137.076 263.522L154.416 240.272L151.209 237.881L133.87 261.13L137.076 263.522ZM154.42 240.267C154.688 239.904 154.908 239.631 155.081 239.436C155.267 239.225 155.348 239.164 155.336 239.173L152.983 235.938C152.389 236.371 151.78 237.111 151.205 237.886L154.42 240.267ZM155.336 239.173C155.342 239.169 155.327 239.181 155.292 239.192C155.256 239.204 155.223 239.208 155.203 239.208V235.208C154.383 235.208 153.627 235.47 152.983 235.938L155.336 239.173ZM155.203 239.208C155.194 239.208 155.183 239.207 155.172 239.205C155.162 239.204 155.153 239.201 155.147 239.2C155.142 239.198 155.141 239.197 155.146 239.2C155.151 239.202 155.162 239.208 155.18 239.22L157.398 235.891C156.76 235.466 156.017 235.208 155.203 235.208V239.208ZM155.281 239.283C155.189 239.229 155.223 239.227 155.389 239.414C155.538 239.582 155.735 239.837 155.981 240.2L159.291 237.954C158.987 237.505 158.684 237.101 158.384 236.762C158.101 236.442 157.737 236.085 157.297 235.828L155.281 239.283ZM156 240.227L172.166 263.216L175.438 260.915L159.272 237.926L156 240.227ZM175.707 262.674L183.53 238.208L179.72 236.99L171.897 261.456L175.707 262.674ZM181.625 239.599L206.482 239.599V235.599L181.625 235.599V239.599ZM204.586 236.963L181.901 304.582L185.694 305.854L208.378 238.235L204.586 236.963ZM181.896 304.597C181.528 305.725 181.019 306.416 180.46 306.84L182.876 310.028C184.229 309.003 185.14 307.55 185.699 305.839L181.896 304.597ZM180.407 306.882C179.804 307.372 179.227 307.564 178.626 307.564V311.564C180.226 311.564 181.678 311.003 182.929 309.986L180.407 306.882ZM178.626 307.564C177.281 307.564 175.773 306.808 174.149 304.436L170.848 306.696C172.874 309.654 175.451 311.564 178.626 311.564V307.564ZM174.142 304.427L154.717 276.397L151.429 278.675L170.855 306.705L174.142 304.427ZM151.468 276.343L130.565 304.459L133.775 306.846L154.678 278.729L151.468 276.343ZM130.57 304.453C129.828 305.442 129.035 306.174 128.203 306.692L130.315 310.089C131.626 309.274 132.774 308.181 133.77 306.853L130.57 304.453ZM128.182 306.705C127.41 307.198 126.721 307.39 126.086 307.39V311.39C127.596 311.39 129.022 310.915 130.336 310.076L128.182 306.705ZM126.086 307.39C125.481 307.39 124.872 307.203 124.221 306.73L121.868 309.965C123.129 310.882 124.548 311.39 126.086 311.39V307.39ZM124.212 306.723C123.716 306.367 123.154 305.659 122.656 304.338L118.913 305.75C119.574 307.501 120.519 308.995 121.877 309.971L124.212 306.723ZM122.665 304.363L98.2423 236.918L94.4813 238.28L118.904 305.725L122.665 304.363ZM96.3618 239.599H127.521V235.599H96.3618V239.599Z" fill="white" mask="url(#path-25-outside-8_149_339)"/>
</g>
</svg>
