<svg width="300" height="1020" viewBox="0 0 300 1020" fill="none" xmlns="http://www.w3.org/2000/svg">
<rect x="9.91821e-05" width="300" height="1020" rx="15" fill="#1E1E1E"/>
<mask id="mask0_29_23" style="mask-type:alpha" maskUnits="userSpaceOnUse" x="0" y="0" width="300" height="1020">
<rect x="9.91821e-05" width="300" height="1020" rx="15" fill="#1E1E1E"/>
</mask>
<g mask="url(#mask0_29_23)">
<path d="M-5.40088 213.048L-5.40088 206.008L21.6294 168.114L-5.40088 168.114L-5.40088 143.647L64 143.647L64 152.991L40.1421 188.669L64 188.669L64 213.048L-5.40088 213.048ZM-5.40088 131.914L-5.40089 81.8945L14.5893 81.8945L14.5894 104.883L20.2822 104.883L20.2822 81.9814L37.3174 81.9814L37.3174 104.883L43.8794 104.883L43.8794 80.3735L64 80.3735L64 131.914L-5.40088 131.914ZM-5.40089 40.4795L19.3262 32.5269L-3.92335 15.1875C-4.70558 14.6081 -5.21257 14.159 -5.44435 13.8403C-5.67612 13.5216 -5.792 13.174 -5.792 12.7974C-5.792 12.4207 -5.67612 12.0586 -5.44435 11.7109C-5.24155 11.3633 -4.73455 10.9142 -3.92335 10.3638L19.0654 -5.80225L-5.40089 -13.6245L-5.40089 -38.4819L62.2183 -15.7974C63.6378 -15.3338 64.7098 -14.624 65.4341 -13.668C66.1873 -12.7409 66.564 -11.7269 66.564 -10.626C66.564 -8.36621 65.2313 -6.32373 62.5659 -4.49854L34.5361 14.9268L62.6528 35.8296C63.8117 36.6987 64.7243 37.6693 65.3906 38.7412C66.057 39.7842 66.3901 40.8416 66.3901 41.9136C66.3901 42.9855 66.0425 43.9995 65.3472 44.9556C64.6808 45.8826 63.5799 46.6359 62.0444 47.2153L-5.40089 71.6382L-5.40089 40.4795Z" fill="#0AFF02"/>
<path d="M75.5991 213.048L75.5991 206.008L102.629 168.114L75.5991 168.114L75.5991 143.647L145 143.647L145 152.991L121.142 188.669L145 188.669L145 213.048L75.5991 213.048ZM75.5991 131.914L75.5991 81.8945L95.5894 81.8945L95.5894 104.883L101.282 104.883L101.282 81.9814L118.317 81.9814L118.317 104.883L124.879 104.883L124.879 80.3735L145 80.3735L145 131.914L75.5991 131.914ZM75.5991 40.4795L100.326 32.5269L77.0767 15.1875C76.2944 14.6081 75.7874 14.159 75.5557 13.8403C75.3239 13.5216 75.208 13.174 75.208 12.7974C75.208 12.4207 75.3239 12.0586 75.5557 11.7109C75.7585 11.3633 76.2655 10.9142 77.0767 10.3638L100.065 -5.80225L75.5991 -13.6245L75.5991 -38.4819L143.218 -15.7974C144.638 -15.3338 145.71 -14.624 146.434 -13.668C147.187 -12.7409 147.564 -11.7269 147.564 -10.626C147.564 -8.36621 146.231 -6.32373 143.566 -4.49854L115.536 14.9268L143.653 35.8296C144.812 36.6987 145.724 37.6693 146.391 38.7412C147.057 39.7842 147.39 40.8416 147.39 41.9136C147.39 42.9855 147.042 43.9995 146.347 44.9556C145.681 45.8826 144.58 46.6359 143.044 47.2153L75.5991 71.6382L75.5991 40.4795Z" fill="#0AFF02"/>
<path d="M156.599 213.048L156.599 206.008L183.629 168.114L156.599 168.114L156.599 143.647L226 143.647L226 152.991L202.142 188.669L226 188.669L226 213.048L156.599 213.048ZM156.599 131.914L156.599 81.8945L176.589 81.8945L176.589 104.883L182.282 104.883L182.282 81.9814L199.317 81.9814L199.317 104.883L205.879 104.883L205.879 80.3735L226 80.3735L226 131.914L156.599 131.914ZM156.599 40.4795L181.326 32.5269L158.077 15.1875C157.294 14.6081 156.787 14.159 156.556 13.8403C156.324 13.5216 156.208 13.174 156.208 12.7974C156.208 12.4207 156.324 12.0586 156.556 11.7109C156.758 11.3633 157.265 10.9142 158.077 10.3638L181.065 -5.80225L156.599 -13.6245L156.599 -38.4819L224.218 -15.7974C225.638 -15.3338 226.71 -14.624 227.434 -13.668C228.187 -12.7409 228.564 -11.7269 228.564 -10.626C228.564 -8.36621 227.231 -6.32373 224.566 -4.49854L196.536 14.9268L224.653 35.8296C225.812 36.6987 226.724 37.6693 227.391 38.7412C228.057 39.7842 228.39 40.8416 228.39 41.9136C228.39 42.9855 228.042 43.9995 227.347 44.9556C226.681 45.8826 225.58 46.6359 224.044 47.2153L156.599 71.6382L156.599 40.4795Z" fill="#0AFF02"/>
<path d="M237.599 213.048L237.599 206.008L264.629 168.114L237.599 168.114L237.599 143.647L307 143.647L307 152.991L283.142 188.669L307 188.669L307 213.048L237.599 213.048ZM237.599 131.914L237.599 81.8945L257.589 81.8945L257.589 104.883L263.282 104.883L263.282 81.9814L280.317 81.9814L280.317 104.883L286.879 104.883L286.879 80.3735L307 80.3735L307 131.914L237.599 131.914ZM237.599 40.4795L262.326 32.5269L239.077 15.1875C238.294 14.6081 237.787 14.159 237.556 13.8403C237.324 13.5216 237.208 13.174 237.208 12.7974C237.208 12.4207 237.324 12.0586 237.556 11.7109C237.758 11.3633 238.265 10.9142 239.077 10.3638L262.065 -5.80225L237.599 -13.6245L237.599 -38.4819L305.218 -15.7974C306.638 -15.3338 307.71 -14.624 308.434 -13.668C309.187 -12.7409 309.564 -11.7269 309.564 -10.626C309.564 -8.36621 308.231 -6.32373 305.566 -4.49854L277.536 14.9268L305.653 35.8296C306.812 36.6987 307.724 37.6693 308.391 38.7412C309.057 39.7842 309.39 40.8416 309.39 41.9136C309.39 42.9855 309.042 43.9995 308.347 44.9556C307.681 45.8826 306.58 46.6359 305.044 47.2153L237.599 71.6382L237.599 40.4795Z" fill="#0AFF02"/>
<path d="M-5.40088 781.048L-5.40088 774.008L21.6294 736.114L-5.40088 736.114L-5.40088 711.647L64 711.647L64 720.991L40.1421 756.669L64 756.669L64 781.048L-5.40088 781.048ZM-5.40088 699.914L-5.40089 649.895L14.5893 649.895L14.5894 672.883L20.2822 672.883L20.2822 649.981L37.3174 649.981L37.3174 672.883L43.8794 672.883L43.8794 648.374L64 648.374L64 699.914L-5.40088 699.914ZM-5.40089 608.479L19.3262 600.527L-3.92335 583.188C-4.70558 582.608 -5.21257 582.159 -5.44435 581.84C-5.67612 581.522 -5.792 581.174 -5.792 580.797C-5.792 580.421 -5.67612 580.059 -5.44435 579.711C-5.24155 579.363 -4.73455 578.914 -3.92335 578.364L19.0654 562.198L-5.40089 554.375L-5.40089 529.518L62.2183 552.203C63.6378 552.666 64.7098 553.376 65.4341 554.332C66.1873 555.259 66.564 556.273 66.564 557.374C66.564 559.634 65.2313 561.676 62.5659 563.501L34.5361 582.927L62.6528 603.83C63.8117 604.699 64.7243 605.669 65.3906 606.741C66.057 607.784 66.3901 608.842 66.3901 609.914C66.3901 610.986 66.0425 612 65.3472 612.956C64.6808 613.883 63.5799 614.636 62.0444 615.215L-5.40089 639.638L-5.40089 608.479Z" fill="#0AFF02"/>
<path d="M75.5991 781.048L75.5991 774.008L102.629 736.114L75.5991 736.114L75.5991 711.647L145 711.647L145 720.991L121.142 756.669L145 756.669L145 781.048L75.5991 781.048ZM75.5991 699.914L75.5991 649.895L95.5894 649.895L95.5894 672.883L101.282 672.883L101.282 649.981L118.317 649.981L118.317 672.883L124.879 672.883L124.879 648.374L145 648.374L145 699.914L75.5991 699.914ZM75.5991 608.479L100.326 600.527L77.0767 583.188C76.2944 582.608 75.7874 582.159 75.5557 581.84C75.3239 581.522 75.208 581.174 75.208 580.797C75.208 580.421 75.3239 580.059 75.5557 579.711C75.7585 579.363 76.2655 578.914 77.0767 578.364L100.065 562.198L75.5991 554.375L75.5991 529.518L143.218 552.203C144.638 552.666 145.71 553.376 146.434 554.332C147.187 555.259 147.564 556.273 147.564 557.374C147.564 559.634 146.231 561.676 143.566 563.501L115.536 582.927L143.653 603.83C144.812 604.699 145.724 605.669 146.391 606.741C147.057 607.784 147.39 608.842 147.39 609.914C147.39 610.986 147.042 612 146.347 612.956C145.681 613.883 144.58 614.636 143.044 615.215L75.5991 639.638L75.5991 608.479Z" fill="#0AFF02"/>
<path d="M156.599 781.048L156.599 774.008L183.629 736.114L156.599 736.114L156.599 711.647L226 711.647L226 720.991L202.142 756.669L226 756.669L226 781.048L156.599 781.048ZM156.599 699.914L156.599 649.895L176.589 649.895L176.589 672.883L182.282 672.883L182.282 649.981L199.317 649.981L199.317 672.883L205.879 672.883L205.879 648.374L226 648.374L226 699.914L156.599 699.914ZM156.599 608.479L181.326 600.527L158.077 583.188C157.294 582.608 156.787 582.159 156.556 581.84C156.324 581.522 156.208 581.174 156.208 580.797C156.208 580.421 156.324 580.059 156.556 579.711C156.758 579.363 157.265 578.914 158.077 578.364L181.065 562.198L156.599 554.375L156.599 529.518L224.218 552.203C225.638 552.666 226.71 553.376 227.434 554.332C228.187 555.259 228.564 556.273 228.564 557.374C228.564 559.634 227.231 561.676 224.566 563.501L196.536 582.927L224.653 603.83C225.812 604.699 226.724 605.669 227.391 606.741C228.057 607.784 228.39 608.842 228.39 609.914C228.39 610.986 228.042 612 227.347 612.956C226.681 613.883 225.58 614.636 224.044 615.215L156.599 639.638L156.599 608.479Z" fill="#0AFF02"/>
<path d="M237.599 781.048L237.599 774.008L264.629 736.114L237.599 736.114L237.599 711.647L307 711.647L307 720.991L283.142 756.669L307 756.669L307 781.048L237.599 781.048ZM237.599 699.914L237.599 649.895L257.589 649.895L257.589 672.883L263.282 672.883L263.282 649.981L280.317 649.981L280.317 672.883L286.879 672.883L286.879 648.374L307 648.374L307 699.914L237.599 699.914ZM237.599 608.479L262.326 600.527L239.077 583.188C238.294 582.608 237.787 582.159 237.556 581.84C237.324 581.522 237.208 581.174 237.208 580.797C237.208 580.421 237.324 580.059 237.556 579.711C237.758 579.363 238.265 578.914 239.077 578.364L262.065 562.198L237.599 554.375L237.599 529.518L305.218 552.203C306.638 552.666 307.71 553.376 308.434 554.332C309.187 555.259 309.564 556.273 309.564 557.374C309.564 559.634 308.231 561.676 305.566 563.501L277.536 582.927L305.653 603.83C306.812 604.699 307.724 605.669 308.391 606.741C309.057 607.784 309.39 608.842 309.39 609.914C309.39 610.986 309.042 612 308.347 612.956C307.681 613.883 306.58 614.636 305.044 615.215L237.599 639.638L237.599 608.479Z" fill="#0AFF02"/>
<mask id="path-11-outside-1_29_23" maskUnits="userSpaceOnUse" x="-8.00001" y="242" width="77" height="258" fill="black">
<rect fill="white" x="-8.00001" y="242" width="77" height="258"/>
<path d="M-5.40088 497.048L-5.40088 490.008L21.6294 452.114L-5.40088 452.114L-5.40088 427.647L64 427.647L64 436.991L40.1421 472.669L64 472.669L64 497.048L-5.40088 497.048ZM-5.40088 415.914L-5.40089 365.895L14.5893 365.895L14.5894 388.883L20.2822 388.883L20.2822 365.981L37.3174 365.981L37.3174 388.883L43.8794 388.883L43.8794 364.374L64 364.374L64 415.914L-5.40088 415.914ZM-5.40089 324.479L19.3262 316.527L-3.92335 299.188C-4.70558 298.608 -5.21257 298.159 -5.44435 297.84C-5.67612 297.522 -5.792 297.174 -5.792 296.797C-5.792 296.421 -5.67612 296.059 -5.44435 295.711C-5.24155 295.363 -4.73455 294.914 -3.92335 294.364L19.0654 278.198L-5.40089 270.375L-5.40089 245.518L62.2183 268.203C63.6378 268.666 64.7098 269.376 65.4341 270.332C66.1873 271.259 66.564 272.273 66.564 273.374C66.564 275.634 65.2313 277.676 62.5659 279.501L34.5361 298.927L62.6528 319.83C63.8117 320.699 64.7243 321.669 65.3906 322.741C66.057 323.784 66.3901 324.842 66.3901 325.914C66.3901 326.986 66.0425 328 65.3472 328.956C64.6808 329.883 63.5799 330.636 62.0444 331.215L-5.40089 355.638L-5.40089 324.479Z"/>
</mask>
<path d="M-5.40088 497.048L-7.40088 497.048L-7.40088 499.048L-5.40088 499.048L-5.40088 497.048ZM-5.40088 490.008L-7.0291 488.847L-7.40088 489.368L-7.40088 490.008L-5.40088 490.008ZM21.6294 452.114L23.2576 453.275L25.5127 450.114L21.6294 450.114L21.6294 452.114ZM-5.40088 452.114L-7.40088 452.114L-7.40088 454.114L-5.40088 454.114L-5.40088 452.114ZM-5.40088 427.647L-5.40088 425.647L-7.40088 425.647L-7.40088 427.647L-5.40088 427.647ZM64 427.647L66 427.647L66 425.647L64 425.647L64 427.647ZM64 436.991L65.6625 438.102L66 437.598L66 436.991L64 436.991ZM40.1421 472.669L38.4795 471.557L36.3987 474.669L40.1421 474.669L40.1421 472.669ZM64 472.669L66 472.669L66 470.669L64 470.669L64 472.669ZM64 497.048L64 499.048L66 499.048L66 497.048L64 497.048ZM-3.40088 497.048L-3.40088 490.008L-7.40088 490.008L-7.40088 497.048L-3.40088 497.048ZM-3.77266 491.17L23.2576 453.275L20.0012 450.952L-7.0291 488.847L-3.77266 491.17ZM21.6294 450.114L-5.40088 450.114L-5.40088 454.114L21.6294 454.114L21.6294 450.114ZM-3.40088 452.114L-3.40088 427.647L-7.40088 427.647L-7.40088 452.114L-3.40088 452.114ZM-5.40088 429.647L64 429.647L64 425.647L-5.40088 425.647L-5.40088 429.647ZM62 427.647L62 436.991L66 436.991L66 427.647L62 427.647ZM62.3375 435.879L38.4795 471.557L41.8046 473.781L65.6625 438.102L62.3375 435.879ZM40.1421 474.669L64 474.669L64 470.669L40.1421 470.669L40.1421 474.669ZM62 472.669L62 497.048L66 497.048L66 472.669L62 472.669ZM64 495.048L-5.40088 495.048L-5.40088 499.048L64 499.048L64 495.048ZM-5.40088 415.914L-7.40088 415.914L-7.40088 417.914L-5.40088 417.914L-5.40088 415.914ZM-5.40089 365.895L-5.40089 363.895L-7.40089 363.895L-7.40089 365.895L-5.40089 365.895ZM14.5893 365.895L16.5893 365.895L16.5893 363.895L14.5893 363.895L14.5893 365.895ZM14.5894 388.883L12.5894 388.883L12.5894 390.883L14.5894 390.883L14.5894 388.883ZM20.2822 388.883L20.2822 390.883L22.2822 390.883L22.2822 388.883L20.2822 388.883ZM20.2822 365.981L20.2822 363.981L18.2822 363.981L18.2822 365.981L20.2822 365.981ZM37.3174 365.981L39.3174 365.981L39.3174 363.981L37.3174 363.981L37.3174 365.981ZM37.3174 388.883L35.3174 388.883L35.3174 390.883L37.3174 390.883L37.3174 388.883ZM43.8794 388.883L43.8794 390.883L45.8794 390.883L45.8794 388.883L43.8794 388.883ZM43.8794 364.374L43.8794 362.374L41.8794 362.374L41.8794 364.374L43.8794 364.374ZM64 364.374L66 364.374L66 362.374L64 362.374L64 364.374ZM64 415.914L64 417.914L66 417.914L66 415.914L64 415.914ZM-3.40088 415.914L-3.40089 365.895L-7.40089 365.895L-7.40088 415.914L-3.40088 415.914ZM-5.40089 367.895L14.5893 367.895L14.5893 363.895L-5.40089 363.895L-5.40089 367.895ZM12.5893 365.895L12.5894 388.883L16.5894 388.883L16.5893 365.895L12.5893 365.895ZM14.5894 390.883L20.2822 390.883L20.2822 386.883L14.5893 386.883L14.5894 390.883ZM22.2822 388.883L22.2822 365.981L18.2822 365.981L18.2822 388.883L22.2822 388.883ZM20.2822 367.981L37.3174 367.981L37.3174 363.981L20.2822 363.981L20.2822 367.981ZM35.3174 365.981L35.3174 388.883L39.3174 388.883L39.3174 365.981L35.3174 365.981ZM37.3174 390.883L43.8794 390.883L43.8794 386.883L37.3174 386.883L37.3174 390.883ZM45.8794 388.883L45.8794 364.374L41.8794 364.374L41.8794 388.883L45.8794 388.883ZM43.8794 366.374L64 366.374L64 362.374L43.8794 362.374L43.8794 366.374ZM62 364.374L62 415.914L66 415.914L66 364.374L62 364.374ZM64 413.914L-5.40088 413.914L-5.40088 417.914L64 417.914L64 413.914ZM-5.40089 324.479L-6.01323 322.576L-7.40089 323.022L-7.40089 324.479L-5.40089 324.479ZM19.3262 316.527L19.9385 318.431L23.6318 317.243L20.5218 314.924L19.3262 316.527ZM-3.92335 299.188L-2.72766 297.584L-2.73289 297.58L-3.92335 299.188ZM-5.44435 295.711L-3.78024 296.82L-3.74699 296.77L-3.71679 296.719L-5.44435 295.711ZM-3.92335 294.364L-2.80035 296.019L-2.78654 296.009L-2.7729 296L-3.92335 294.364ZM19.0654 278.198L20.2159 279.834L23.5083 277.518L19.6745 276.293L19.0654 278.198ZM-5.40089 270.375L-7.40089 270.375L-7.40089 271.836L-6.00995 272.28L-5.40089 270.375ZM-5.40089 245.518L-4.76478 243.622L-7.40089 242.738L-7.40089 245.518L-5.40089 245.518ZM62.2183 268.203L61.5821 270.099L61.5898 270.101L61.5974 270.104L62.2183 268.203ZM65.4341 270.332L63.8399 271.54L63.8604 271.567L63.8818 271.593L65.4341 270.332ZM62.5659 279.501L61.4359 277.851L61.4267 277.858L62.5659 279.501ZM34.5361 298.927L33.3969 297.283L31.1072 298.87L33.3429 300.532L34.5361 298.927ZM62.6528 319.83L63.8528 318.23L63.8461 318.225L62.6528 319.83ZM65.3906 322.741L63.692 323.797L63.6986 323.808L63.7052 323.818L65.3906 322.741ZM65.3472 328.956L63.7297 327.779L63.7231 327.788L65.3472 328.956ZM62.0444 331.215L62.7254 333.096L62.738 333.091L62.7505 333.087L62.0444 331.215ZM-5.40089 355.638L-7.40089 355.638L-7.40089 358.49L-4.71993 357.519L-5.40089 355.638ZM-4.78854 326.383L19.9385 318.431L18.7138 314.623L-6.01323 322.576L-4.78854 326.383ZM20.5218 314.924L-2.72767 297.584L-5.11903 300.791L18.1305 318.13L20.5218 314.924ZM-2.73289 297.58C-3.09554 297.312 -3.36854 297.092 -3.5642 296.919C-3.77471 296.733 -3.83565 296.652 -3.82687 296.664L-7.06182 299.017C-6.62929 299.611 -5.88907 300.22 -5.1138 300.795L-2.73289 297.58ZM-3.82687 296.664C-3.8312 296.658 -3.81934 296.673 -3.80772 296.708C-3.7958 296.744 -3.792 296.777 -3.792 296.797L-7.792 296.797C-7.792 297.617 -7.52994 298.373 -7.06182 299.017L-3.82687 296.664ZM-3.792 296.797C-3.792 296.806 -3.79272 296.817 -3.79443 296.828C-3.79614 296.838 -3.79841 296.847 -3.80024 296.853C-3.80203 296.858 -3.80269 296.859 -3.80032 296.854C-3.79789 296.849 -3.79193 296.838 -3.78024 296.82L-7.10845 294.602C-7.53434 295.24 -7.792 295.983 -7.792 296.797L-3.792 296.797ZM-3.71679 296.719C-3.77079 296.811 -3.77334 296.777 -3.58593 296.611C-3.41807 296.462 -3.16336 296.265 -2.80035 296.019L-5.04635 292.709C-5.49453 293.013 -5.89893 293.316 -6.23807 293.616C-6.55765 293.899 -6.9151 294.263 -7.1719 294.703L-3.71679 296.719ZM-2.7729 296L20.2159 279.834L17.915 276.562L-5.0738 292.728L-2.7729 296ZM19.6745 276.293L-4.79183 268.47L-6.00995 272.28L18.4564 280.103L19.6745 276.293ZM-3.40089 270.375L-3.40089 245.518L-7.40089 245.518L-7.40089 270.375L-3.40089 270.375ZM-6.037 247.414L61.5821 270.099L62.8544 266.306L-4.76478 243.622L-6.037 247.414ZM61.5974 270.104C62.7252 270.472 63.4163 270.981 63.8399 271.54L67.0283 269.124C66.0033 267.771 64.5505 266.86 62.8391 266.301L61.5974 270.104ZM63.8818 271.593C64.3718 272.196 64.564 272.773 64.564 273.374L68.564 273.374C68.564 271.774 68.0029 270.322 66.9863 269.071L63.8818 271.593ZM64.564 273.374C64.564 274.719 63.808 276.227 61.4359 277.851L63.6959 281.152C66.6546 279.126 68.564 276.549 68.564 273.374L64.564 273.374ZM61.4267 277.858L33.3969 297.283L35.6753 300.571L63.7051 281.145L61.4267 277.858ZM33.3429 300.532L61.4596 321.435L63.8461 318.225L35.7294 297.322L33.3429 300.532ZM61.4528 321.43C62.4422 322.172 63.1746 322.965 63.692 323.797L67.0892 321.685C66.274 320.374 65.1812 319.226 63.8528 318.23L61.4528 321.43ZM63.7052 323.818C64.1986 324.59 64.3901 325.279 64.3901 325.914L68.3901 325.914C68.3901 324.404 67.9153 322.978 67.076 321.664L63.7052 323.818ZM64.3901 325.914C64.3901 326.519 64.2033 327.128 63.7297 327.779L66.9646 330.132C67.8817 328.871 68.3901 327.452 68.3901 325.914L64.3901 325.914ZM63.7231 327.788C63.3669 328.284 62.6589 328.846 61.3383 329.344L62.7505 333.087C64.5009 332.426 65.9948 331.481 66.9712 330.123L63.7231 327.788ZM61.3635 329.335L-6.08184 353.758L-4.71993 357.519L62.7254 333.096L61.3635 329.335ZM-3.40089 355.638L-3.40089 324.479L-7.40089 324.479L-7.40089 355.638L-3.40089 355.638Z" fill="white" mask="url(#path-11-outside-1_29_23)"/>
<mask id="path-13-outside-2_29_23" maskUnits="userSpaceOnUse" x="73" y="242" width="77" height="258" fill="black">
<rect fill="white" x="73" y="242" width="77" height="258"/>
<path d="M75.5991 497.048L75.5991 490.008L102.629 452.114L75.5991 452.114L75.5991 427.647L145 427.647L145 436.991L121.142 472.669L145 472.669L145 497.048L75.5991 497.048ZM75.5991 415.914L75.5991 365.895L95.5894 365.895L95.5894 388.883L101.282 388.883L101.282 365.981L118.317 365.981L118.317 388.883L124.879 388.883L124.879 364.374L145 364.374L145 415.914L75.5991 415.914ZM75.5991 324.479L100.326 316.527L77.0767 299.188C76.2944 298.608 75.7874 298.159 75.5557 297.84C75.3239 297.522 75.208 297.174 75.208 296.797C75.208 296.421 75.3239 296.059 75.5557 295.711C75.7585 295.363 76.2655 294.914 77.0767 294.364L100.065 278.198L75.5991 270.375L75.5991 245.518L143.218 268.203C144.638 268.666 145.71 269.376 146.434 270.332C147.187 271.259 147.564 272.273 147.564 273.374C147.564 275.634 146.231 277.676 143.566 279.501L115.536 298.927L143.653 319.83C144.812 320.699 145.724 321.669 146.391 322.741C147.057 323.784 147.39 324.842 147.39 325.914C147.39 326.986 147.042 328 146.347 328.956C145.681 329.883 144.58 330.636 143.044 331.215L75.5991 355.638L75.5991 324.479Z"/>
</mask>
<path d="M75.5991 497.048L73.5991 497.048L73.5991 499.048L75.5991 499.048L75.5991 497.048ZM75.5991 490.008L73.9709 488.847L73.5991 489.368L73.5991 490.008L75.5991 490.008ZM102.629 452.114L104.258 453.275L106.513 450.114L102.629 450.114L102.629 452.114ZM75.5991 452.114L73.5991 452.114L73.5991 454.114L75.5991 454.114L75.5991 452.114ZM75.5991 427.647L75.5991 425.647L73.5991 425.647L73.5991 427.647L75.5991 427.647ZM145 427.647L147 427.647L147 425.647L145 425.647L145 427.647ZM145 436.991L146.663 438.102L147 437.598L147 436.991L145 436.991ZM121.142 472.669L119.48 471.557L117.399 474.669L121.142 474.669L121.142 472.669ZM145 472.669L147 472.669L147 470.669L145 470.669L145 472.669ZM145 497.048L145 499.048L147 499.048L147 497.048L145 497.048ZM77.5991 497.048L77.5991 490.008L73.5991 490.008L73.5991 497.048L77.5991 497.048ZM77.2274 491.17L104.258 453.275L101.001 450.952L73.9709 488.847L77.2274 491.17ZM102.629 450.114L75.5991 450.114L75.5991 454.114L102.629 454.114L102.629 450.114ZM77.5991 452.114L77.5991 427.647L73.5991 427.647L73.5991 452.114L77.5991 452.114ZM75.5991 429.647L145 429.647L145 425.647L75.5991 425.647L75.5991 429.647ZM143 427.647L143 436.991L147 436.991L147 427.647L143 427.647ZM143.337 435.879L119.48 471.557L122.805 473.781L146.663 438.102L143.337 435.879ZM121.142 474.669L145 474.669L145 470.669L121.142 470.669L121.142 474.669ZM143 472.669L143 497.048L147 497.048L147 472.669L143 472.669ZM145 495.048L75.5991 495.048L75.5991 499.048L145 499.048L145 495.048ZM75.5991 415.914L73.5991 415.914L73.5991 417.914L75.5991 417.914L75.5991 415.914ZM75.5991 365.895L75.5991 363.895L73.5991 363.895L73.5991 365.895L75.5991 365.895ZM95.5894 365.895L97.5894 365.895L97.5894 363.895L95.5894 363.895L95.5894 365.895ZM95.5894 388.883L93.5894 388.883L93.5894 390.883L95.5894 390.883L95.5894 388.883ZM101.282 388.883L101.282 390.883L103.282 390.883L103.282 388.883L101.282 388.883ZM101.282 365.981L101.282 363.981L99.2822 363.981L99.2822 365.981L101.282 365.981ZM118.317 365.981L120.317 365.981L120.317 363.981L118.317 363.981L118.317 365.981ZM118.317 388.883L116.317 388.883L116.317 390.883L118.317 390.883L118.317 388.883ZM124.879 388.883L124.879 390.883L126.879 390.883L126.879 388.883L124.879 388.883ZM124.879 364.374L124.879 362.374L122.879 362.374L122.879 364.374L124.879 364.374ZM145 364.374L147 364.374L147 362.374L145 362.374L145 364.374ZM145 415.914L145 417.914L147 417.914L147 415.914L145 415.914ZM77.5991 415.914L77.5991 365.895L73.5991 365.895L73.5991 415.914L77.5991 415.914ZM75.5991 367.895L95.5894 367.895L95.5894 363.895L75.5991 363.895L75.5991 367.895ZM93.5894 365.895L93.5894 388.883L97.5894 388.883L97.5894 365.895L93.5894 365.895ZM95.5894 390.883L101.282 390.883L101.282 386.883L95.5894 386.883L95.5894 390.883ZM103.282 388.883L103.282 365.981L99.2822 365.981L99.2822 388.883L103.282 388.883ZM101.282 367.981L118.317 367.981L118.317 363.981L101.282 363.981L101.282 367.981ZM116.317 365.981L116.317 388.883L120.317 388.883L120.317 365.981L116.317 365.981ZM118.317 390.883L124.879 390.883L124.879 386.883L118.317 386.883L118.317 390.883ZM126.879 388.883L126.879 364.374L122.879 364.374L122.879 388.883L126.879 388.883ZM124.879 366.374L145 366.374L145 362.374L124.879 362.374L124.879 366.374ZM143 364.374L143 415.914L147 415.914L147 364.374L143 364.374ZM145 413.914L75.5991 413.914L75.5991 417.914L145 417.914L145 413.914ZM75.5991 324.479L74.9868 322.576L73.5991 323.022L73.5991 324.479L75.5991 324.479ZM100.326 316.527L100.939 318.431L104.632 317.243L101.522 314.924L100.326 316.527ZM77.0767 299.188L78.2724 297.584L78.2671 297.58L77.0767 299.188ZM75.5557 295.711L77.2198 296.82L77.253 296.77L77.2832 296.719L75.5557 295.711ZM77.0767 294.364L78.1997 296.019L78.2135 296.009L78.2271 296L77.0767 294.364ZM100.065 278.198L101.216 279.834L104.508 277.518L100.674 276.293L100.065 278.198ZM75.5991 270.375L73.5991 270.375L73.5991 271.836L74.9901 272.28L75.5991 270.375ZM75.5991 245.518L76.2352 243.622L73.5991 242.738L73.5991 245.518L75.5991 245.518ZM143.218 268.203L142.582 270.099L142.59 270.101L142.597 270.104L143.218 268.203ZM146.434 270.332L144.84 271.54L144.86 271.567L144.882 271.593L146.434 270.332ZM143.566 279.501L142.436 277.851L142.427 277.858L143.566 279.501ZM115.536 298.927L114.397 297.283L112.107 298.87L114.343 300.532L115.536 298.927ZM143.653 319.83L144.853 318.23L144.846 318.225L143.653 319.83ZM146.391 322.741L144.692 323.797L144.699 323.808L144.705 323.818L146.391 322.741ZM146.347 328.956L144.73 327.779L144.723 327.788L146.347 328.956ZM143.044 331.215L143.725 333.096L143.738 333.091L143.751 333.087L143.044 331.215ZM75.5991 355.638L73.5991 355.638L73.5991 358.49L76.2801 357.519L75.5991 355.638ZM76.2115 326.383L100.939 318.431L99.7138 314.623L74.9868 322.576L76.2115 326.383ZM101.522 314.924L78.2723 297.584L75.881 300.791L99.1305 318.13L101.522 314.924ZM78.2671 297.58C77.9045 297.312 77.6315 297.092 77.4358 296.919C77.2253 296.733 77.1644 296.652 77.1731 296.664L73.9382 299.017C74.3707 299.611 75.1109 300.22 75.8862 300.795L78.2671 297.58ZM77.1731 296.664C77.1688 296.658 77.1807 296.673 77.1923 296.708C77.2042 296.744 77.208 296.777 77.208 296.797L73.208 296.797C73.208 297.617 73.4701 298.373 73.9382 299.017L77.1731 296.664ZM77.208 296.797C77.208 296.806 77.2073 296.817 77.2056 296.828C77.2039 296.838 77.2016 296.847 77.1998 296.853C77.198 296.858 77.1973 296.859 77.1997 296.854C77.2021 296.849 77.2081 296.838 77.2198 296.82L73.8916 294.602C73.4657 295.24 73.208 295.983 73.208 296.797L77.208 296.797ZM77.2832 296.719C77.2292 296.811 77.2267 296.777 77.4141 296.611C77.5819 296.462 77.8367 296.265 78.1997 296.019L75.9537 292.709C75.5055 293.013 75.1011 293.316 74.7619 293.616C74.4424 293.899 74.0849 294.263 73.8281 294.703L77.2832 296.719ZM78.2271 296L101.216 279.834L98.915 276.562L75.9262 292.728L78.2271 296ZM100.674 276.293L76.2082 268.47L74.9901 272.28L99.4564 280.103L100.674 276.293ZM77.5991 270.375L77.5991 245.518L73.5991 245.518L73.5991 270.375L77.5991 270.375ZM74.963 247.414L142.582 270.099L143.854 266.306L76.2352 243.622L74.963 247.414ZM142.597 270.104C143.725 270.472 144.416 270.981 144.84 271.54L148.028 269.124C147.003 267.771 145.551 266.86 143.839 266.301L142.597 270.104ZM144.882 271.593C145.372 272.196 145.564 272.773 145.564 273.374L149.564 273.374C149.564 271.774 149.003 270.322 147.986 269.071L144.882 271.593ZM145.564 273.374C145.564 274.719 144.808 276.227 142.436 277.851L144.696 281.152C147.655 279.126 149.564 276.549 149.564 273.374L145.564 273.374ZM142.427 277.858L114.397 297.283L116.675 300.571L144.705 281.145L142.427 277.858ZM114.343 300.532L142.46 321.435L144.846 318.225L116.729 297.322L114.343 300.532ZM142.453 321.43C143.442 322.172 144.175 322.965 144.692 323.797L148.089 321.685C147.274 320.374 146.181 319.226 144.853 318.23L142.453 321.43ZM144.705 323.818C145.199 324.59 145.39 325.279 145.39 325.914L149.39 325.914C149.39 324.404 148.915 322.978 148.076 321.664L144.705 323.818ZM145.39 325.914C145.39 326.519 145.203 327.128 144.73 327.779L147.965 330.132C148.882 328.871 149.39 327.452 149.39 325.914L145.39 325.914ZM144.723 327.788C144.367 328.284 143.659 328.846 142.338 329.344L143.751 333.087C145.501 332.426 146.995 331.481 147.971 330.123L144.723 327.788ZM142.363 329.335L74.9182 353.758L76.2801 357.519L143.725 333.096L142.363 329.335ZM77.5991 355.638L77.5991 324.479L73.5991 324.479L73.5991 355.638L77.5991 355.638Z" fill="white" mask="url(#path-13-outside-2_29_23)"/>
<mask id="path-15-outside-3_29_23" maskUnits="userSpaceOnUse" x="154" y="242" width="77" height="258" fill="black">
<rect fill="white" x="154" y="242" width="77" height="258"/>
<path d="M156.599 497.048L156.599 490.008L183.629 452.114L156.599 452.114L156.599 427.647L226 427.647L226 436.991L202.142 472.669L226 472.669L226 497.048L156.599 497.048ZM156.599 415.914L156.599 365.895L176.589 365.895L176.589 388.883L182.282 388.883L182.282 365.981L199.317 365.981L199.317 388.883L205.879 388.883L205.879 364.374L226 364.374L226 415.914L156.599 415.914ZM156.599 324.479L181.326 316.527L158.077 299.188C157.294 298.608 156.787 298.159 156.556 297.84C156.324 297.522 156.208 297.174 156.208 296.797C156.208 296.421 156.324 296.059 156.556 295.711C156.758 295.363 157.265 294.914 158.077 294.364L181.065 278.198L156.599 270.375L156.599 245.518L224.218 268.203C225.638 268.666 226.71 269.376 227.434 270.332C228.187 271.259 228.564 272.273 228.564 273.374C228.564 275.634 227.231 277.676 224.566 279.501L196.536 298.927L224.653 319.83C225.812 320.699 226.724 321.669 227.391 322.741C228.057 323.784 228.39 324.842 228.39 325.914C228.39 326.986 228.042 328 227.347 328.956C226.681 329.883 225.58 330.636 224.044 331.215L156.599 355.638L156.599 324.479Z"/>
</mask>
<path d="M156.599 497.048L154.599 497.048L154.599 499.048L156.599 499.048L156.599 497.048ZM156.599 490.008L154.971 488.847L154.599 489.368L154.599 490.008L156.599 490.008ZM183.629 452.114L185.258 453.275L187.513 450.114L183.629 450.114L183.629 452.114ZM156.599 452.114L154.599 452.114L154.599 454.114L156.599 454.114L156.599 452.114ZM156.599 427.647L156.599 425.647L154.599 425.647L154.599 427.647L156.599 427.647ZM226 427.647L228 427.647L228 425.647L226 425.647L226 427.647ZM226 436.991L227.663 438.102L228 437.598L228 436.991L226 436.991ZM202.142 472.669L200.48 471.557L198.399 474.669L202.142 474.669L202.142 472.669ZM226 472.669L228 472.669L228 470.669L226 470.669L226 472.669ZM226 497.048L226 499.048L228 499.048L228 497.048L226 497.048ZM158.599 497.048L158.599 490.008L154.599 490.008L154.599 497.048L158.599 497.048ZM158.227 491.17L185.258 453.275L182.001 450.952L154.971 488.847L158.227 491.17ZM183.629 450.114L156.599 450.114L156.599 454.114L183.629 454.114L183.629 450.114ZM158.599 452.114L158.599 427.647L154.599 427.647L154.599 452.114L158.599 452.114ZM156.599 429.647L226 429.647L226 425.647L156.599 425.647L156.599 429.647ZM224 427.647L224 436.991L228 436.991L228 427.647L224 427.647ZM224.337 435.879L200.48 471.557L203.805 473.781L227.663 438.102L224.337 435.879ZM202.142 474.669L226 474.669L226 470.669L202.142 470.669L202.142 474.669ZM224 472.669L224 497.048L228 497.048L228 472.669L224 472.669ZM226 495.048L156.599 495.048L156.599 499.048L226 499.048L226 495.048ZM156.599 415.914L154.599 415.914L154.599 417.914L156.599 417.914L156.599 415.914ZM156.599 365.895L156.599 363.895L154.599 363.895L154.599 365.895L156.599 365.895ZM176.589 365.895L178.589 365.895L178.589 363.895L176.589 363.895L176.589 365.895ZM176.589 388.883L174.589 388.883L174.589 390.883L176.589 390.883L176.589 388.883ZM182.282 388.883L182.282 390.883L184.282 390.883L184.282 388.883L182.282 388.883ZM182.282 365.981L182.282 363.981L180.282 363.981L180.282 365.981L182.282 365.981ZM199.317 365.981L201.317 365.981L201.317 363.981L199.317 363.981L199.317 365.981ZM199.317 388.883L197.317 388.883L197.317 390.883L199.317 390.883L199.317 388.883ZM205.879 388.883L205.879 390.883L207.879 390.883L207.879 388.883L205.879 388.883ZM205.879 364.374L205.879 362.374L203.879 362.374L203.879 364.374L205.879 364.374ZM226 364.374L228 364.374L228 362.374L226 362.374L226 364.374ZM226 415.914L226 417.914L228 417.914L228 415.914L226 415.914ZM158.599 415.914L158.599 365.895L154.599 365.895L154.599 415.914L158.599 415.914ZM156.599 367.895L176.589 367.895L176.589 363.895L156.599 363.895L156.599 367.895ZM174.589 365.895L174.589 388.883L178.589 388.883L178.589 365.895L174.589 365.895ZM176.589 390.883L182.282 390.883L182.282 386.883L176.589 386.883L176.589 390.883ZM184.282 388.883L184.282 365.981L180.282 365.981L180.282 388.883L184.282 388.883ZM182.282 367.981L199.317 367.981L199.317 363.981L182.282 363.981L182.282 367.981ZM197.317 365.981L197.317 388.883L201.317 388.883L201.317 365.981L197.317 365.981ZM199.317 390.883L205.879 390.883L205.879 386.883L199.317 386.883L199.317 390.883ZM207.879 388.883L207.879 364.374L203.879 364.374L203.879 388.883L207.879 388.883ZM205.879 366.374L226 366.374L226 362.374L205.879 362.374L205.879 366.374ZM224 364.374L224 415.914L228 415.914L228 364.374L224 364.374ZM226 413.914L156.599 413.914L156.599 417.914L226 417.914L226 413.914ZM156.599 324.479L155.987 322.576L154.599 323.022L154.599 324.479L156.599 324.479ZM181.326 316.527L181.939 318.431L185.632 317.243L182.522 314.924L181.326 316.527ZM158.077 299.188L159.272 297.584L159.267 297.58L158.077 299.188ZM156.556 295.711L158.22 296.82L158.253 296.77L158.283 296.719L156.556 295.711ZM158.077 294.364L159.2 296.019L159.213 296.009L159.227 296L158.077 294.364ZM181.065 278.198L182.216 279.834L185.508 277.518L181.674 276.293L181.065 278.198ZM156.599 270.375L154.599 270.375L154.599 271.836L155.99 272.28L156.599 270.375ZM156.599 245.518L157.235 243.622L154.599 242.738L154.599 245.518L156.599 245.518ZM224.218 268.203L223.582 270.099L223.59 270.101L223.597 270.104L224.218 268.203ZM227.434 270.332L225.84 271.54L225.86 271.567L225.882 271.593L227.434 270.332ZM224.566 279.501L223.436 277.851L223.427 277.858L224.566 279.501ZM196.536 298.927L195.397 297.283L193.107 298.87L195.343 300.532L196.536 298.927ZM224.653 319.83L225.853 318.23L225.846 318.225L224.653 319.83ZM227.391 322.741L225.692 323.797L225.699 323.808L225.705 323.818L227.391 322.741ZM227.347 328.956L225.73 327.779L225.723 327.788L227.347 328.956ZM224.044 331.215L224.725 333.096L224.738 333.091L224.751 333.087L224.044 331.215ZM156.599 355.638L154.599 355.638L154.599 358.49L157.28 357.519L156.599 355.638ZM157.211 326.383L181.939 318.431L180.714 314.623L155.987 322.576L157.211 326.383ZM182.522 314.924L159.272 297.584L156.881 300.791L180.13 318.13L182.522 314.924ZM159.267 297.58C158.904 297.312 158.631 297.092 158.436 296.919C158.225 296.733 158.164 296.652 158.173 296.664L154.938 299.017C155.371 299.611 156.111 300.22 156.886 300.795L159.267 297.58ZM158.173 296.664C158.169 296.658 158.181 296.673 158.192 296.708C158.204 296.744 158.208 296.777 158.208 296.797L154.208 296.797C154.208 297.617 154.47 298.373 154.938 299.017L158.173 296.664ZM158.208 296.797C158.208 296.806 158.207 296.817 158.206 296.828C158.204 296.838 158.202 296.847 158.2 296.853C158.198 296.858 158.197 296.859 158.2 296.854C158.202 296.849 158.208 296.838 158.22 296.82L154.892 294.602C154.466 295.24 154.208 295.983 154.208 296.797L158.208 296.797ZM158.283 296.719C158.229 296.811 158.227 296.777 158.414 296.611C158.582 296.462 158.837 296.265 159.2 296.019L156.954 292.709C156.505 293.013 156.101 293.316 155.762 293.616C155.442 293.899 155.085 294.263 154.828 294.703L158.283 296.719ZM159.227 296L182.216 279.834L179.915 276.562L156.926 292.728L159.227 296ZM181.674 276.293L157.208 268.47L155.99 272.28L180.456 280.103L181.674 276.293ZM158.599 270.375L158.599 245.518L154.599 245.518L154.599 270.375L158.599 270.375ZM155.963 247.414L223.582 270.099L224.854 266.306L157.235 243.622L155.963 247.414ZM223.597 270.104C224.725 270.472 225.416 270.981 225.84 271.54L229.028 269.124C228.003 267.771 226.551 266.86 224.839 266.301L223.597 270.104ZM225.882 271.593C226.372 272.196 226.564 272.773 226.564 273.374L230.564 273.374C230.564 271.774 230.003 270.322 228.986 269.071L225.882 271.593ZM226.564 273.374C226.564 274.719 225.808 276.227 223.436 277.851L225.696 281.152C228.655 279.126 230.564 276.549 230.564 273.374L226.564 273.374ZM223.427 277.858L195.397 297.283L197.675 300.571L225.705 281.145L223.427 277.858ZM195.343 300.532L223.46 321.435L225.846 318.225L197.729 297.322L195.343 300.532ZM223.453 321.43C224.442 322.172 225.175 322.965 225.692 323.797L229.089 321.685C228.274 320.374 227.181 319.226 225.853 318.23L223.453 321.43ZM225.705 323.818C226.199 324.59 226.39 325.279 226.39 325.914L230.39 325.914C230.39 324.404 229.915 322.978 229.076 321.664L225.705 323.818ZM226.39 325.914C226.39 326.519 226.203 327.128 225.73 327.779L228.965 330.132C229.882 328.871 230.39 327.452 230.39 325.914L226.39 325.914ZM225.723 327.788C225.367 328.284 224.659 328.846 223.338 329.344L224.751 333.087C226.501 332.426 227.995 331.481 228.971 330.123L225.723 327.788ZM223.363 329.335L155.918 353.758L157.28 357.519L224.725 333.096L223.363 329.335ZM158.599 355.638L158.599 324.479L154.599 324.479L154.599 355.638L158.599 355.638Z" fill="white" mask="url(#path-15-outside-3_29_23)"/>
<mask id="path-17-outside-4_29_23" maskUnits="userSpaceOnUse" x="235" y="242" width="77" height="258" fill="black">
<rect fill="white" x="235" y="242" width="77" height="258"/>
<path d="M237.599 497.048L237.599 490.008L264.629 452.114L237.599 452.114L237.599 427.647L307 427.647L307 436.991L283.142 472.669L307 472.669L307 497.048L237.599 497.048ZM237.599 415.914L237.599 365.895L257.589 365.895L257.589 388.883L263.282 388.883L263.282 365.981L280.317 365.981L280.317 388.883L286.879 388.883L286.879 364.374L307 364.374L307 415.914L237.599 415.914ZM237.599 324.479L262.326 316.527L239.077 299.188C238.294 298.608 237.787 298.159 237.556 297.84C237.324 297.522 237.208 297.174 237.208 296.797C237.208 296.421 237.324 296.059 237.556 295.711C237.758 295.363 238.265 294.914 239.077 294.364L262.065 278.198L237.599 270.375L237.599 245.518L305.218 268.203C306.638 268.666 307.71 269.376 308.434 270.332C309.187 271.259 309.564 272.273 309.564 273.374C309.564 275.634 308.231 277.676 305.566 279.501L277.536 298.927L305.653 319.83C306.812 320.699 307.724 321.669 308.391 322.741C309.057 323.784 309.39 324.842 309.39 325.914C309.39 326.986 309.042 328 308.347 328.956C307.681 329.883 306.58 330.636 305.044 331.215L237.599 355.638L237.599 324.479Z"/>
</mask>
<path d="M237.599 497.048L235.599 497.048L235.599 499.048L237.599 499.048L237.599 497.048ZM237.599 490.008L235.971 488.847L235.599 489.368L235.599 490.008L237.599 490.008ZM264.629 452.114L266.258 453.275L268.513 450.114L264.629 450.114L264.629 452.114ZM237.599 452.114L235.599 452.114L235.599 454.114L237.599 454.114L237.599 452.114ZM237.599 427.647L237.599 425.647L235.599 425.647L235.599 427.647L237.599 427.647ZM307 427.647L309 427.647L309 425.647L307 425.647L307 427.647ZM307 436.991L308.663 438.102L309 437.598L309 436.991L307 436.991ZM283.142 472.669L281.48 471.557L279.399 474.669L283.142 474.669L283.142 472.669ZM307 472.669L309 472.669L309 470.669L307 470.669L307 472.669ZM307 497.048L307 499.048L309 499.048L309 497.048L307 497.048ZM239.599 497.048L239.599 490.008L235.599 490.008L235.599 497.048L239.599 497.048ZM239.227 491.17L266.258 453.275L263.001 450.952L235.971 488.847L239.227 491.17ZM264.629 450.114L237.599 450.114L237.599 454.114L264.629 454.114L264.629 450.114ZM239.599 452.114L239.599 427.647L235.599 427.647L235.599 452.114L239.599 452.114ZM237.599 429.647L307 429.647L307 425.647L237.599 425.647L237.599 429.647ZM305 427.647L305 436.991L309 436.991L309 427.647L305 427.647ZM305.337 435.879L281.48 471.557L284.805 473.781L308.663 438.102L305.337 435.879ZM283.142 474.669L307 474.669L307 470.669L283.142 470.669L283.142 474.669ZM305 472.669L305 497.048L309 497.048L309 472.669L305 472.669ZM307 495.048L237.599 495.048L237.599 499.048L307 499.048L307 495.048ZM237.599 415.914L235.599 415.914L235.599 417.914L237.599 417.914L237.599 415.914ZM237.599 365.895L237.599 363.895L235.599 363.895L235.599 365.895L237.599 365.895ZM257.589 365.895L259.589 365.895L259.589 363.895L257.589 363.895L257.589 365.895ZM257.589 388.883L255.589 388.883L255.589 390.883L257.589 390.883L257.589 388.883ZM263.282 388.883L263.282 390.883L265.282 390.883L265.282 388.883L263.282 388.883ZM263.282 365.981L263.282 363.981L261.282 363.981L261.282 365.981L263.282 365.981ZM280.317 365.981L282.317 365.981L282.317 363.981L280.317 363.981L280.317 365.981ZM280.317 388.883L278.317 388.883L278.317 390.883L280.317 390.883L280.317 388.883ZM286.879 388.883L286.879 390.883L288.879 390.883L288.879 388.883L286.879 388.883ZM286.879 364.374L286.879 362.374L284.879 362.374L284.879 364.374L286.879 364.374ZM307 364.374L309 364.374L309 362.374L307 362.374L307 364.374ZM307 415.914L307 417.914L309 417.914L309 415.914L307 415.914ZM239.599 415.914L239.599 365.895L235.599 365.895L235.599 415.914L239.599 415.914ZM237.599 367.895L257.589 367.895L257.589 363.895L237.599 363.895L237.599 367.895ZM255.589 365.895L255.589 388.883L259.589 388.883L259.589 365.895L255.589 365.895ZM257.589 390.883L263.282 390.883L263.282 386.883L257.589 386.883L257.589 390.883ZM265.282 388.883L265.282 365.981L261.282 365.981L261.282 388.883L265.282 388.883ZM263.282 367.981L280.317 367.981L280.317 363.981L263.282 363.981L263.282 367.981ZM278.317 365.981L278.317 388.883L282.317 388.883L282.317 365.981L278.317 365.981ZM280.317 390.883L286.879 390.883L286.879 386.883L280.317 386.883L280.317 390.883ZM288.879 388.883L288.879 364.374L284.879 364.374L284.879 388.883L288.879 388.883ZM286.879 366.374L307 366.374L307 362.374L286.879 362.374L286.879 366.374ZM305 364.374L305 415.914L309 415.914L309 364.374L305 364.374ZM307 413.914L237.599 413.914L237.599 417.914L307 417.914L307 413.914ZM237.599 324.479L236.987 322.576L235.599 323.022L235.599 324.479L237.599 324.479ZM262.326 316.527L262.939 318.431L266.632 317.243L263.522 314.924L262.326 316.527ZM239.077 299.188L240.272 297.584L240.267 297.58L239.077 299.188ZM237.556 295.711L239.22 296.82L239.253 296.77L239.283 296.719L237.556 295.711ZM239.077 294.364L240.2 296.019L240.213 296.009L240.227 296L239.077 294.364ZM262.065 278.198L263.216 279.834L266.508 277.518L262.674 276.293L262.065 278.198ZM237.599 270.375L235.599 270.375L235.599 271.836L236.99 272.28L237.599 270.375ZM237.599 245.518L238.235 243.622L235.599 242.738L235.599 245.518L237.599 245.518ZM305.218 268.203L304.582 270.099L304.59 270.101L304.597 270.104L305.218 268.203ZM308.434 270.332L306.84 271.54L306.86 271.567L306.882 271.593L308.434 270.332ZM305.566 279.501L304.436 277.851L304.427 277.858L305.566 279.501ZM277.536 298.927L276.397 297.283L274.107 298.87L276.343 300.532L277.536 298.927ZM305.653 319.83L306.853 318.23L306.846 318.225L305.653 319.83ZM308.391 322.741L306.692 323.797L306.699 323.808L306.705 323.818L308.391 322.741ZM308.347 328.956L306.73 327.779L306.723 327.788L308.347 328.956ZM305.044 331.215L305.725 333.096L305.738 333.091L305.751 333.087L305.044 331.215ZM237.599 355.638L235.599 355.638L235.599 358.49L238.28 357.519L237.599 355.638ZM238.211 326.383L262.939 318.431L261.714 314.623L236.987 322.576L238.211 326.383ZM263.522 314.924L240.272 297.584L237.881 300.791L261.13 318.13L263.522 314.924ZM240.267 297.58C239.904 297.312 239.631 297.092 239.436 296.919C239.225 296.733 239.164 296.652 239.173 296.664L235.938 299.017C236.371 299.611 237.111 300.22 237.886 300.795L240.267 297.58ZM239.173 296.664C239.169 296.658 239.181 296.673 239.192 296.708C239.204 296.744 239.208 296.777 239.208 296.797L235.208 296.797C235.208 297.617 235.47 298.373 235.938 299.017L239.173 296.664ZM239.208 296.797C239.208 296.806 239.207 296.817 239.206 296.828C239.204 296.838 239.202 296.847 239.2 296.853C239.198 296.858 239.197 296.859 239.2 296.854C239.202 296.849 239.208 296.838 239.22 296.82L235.892 294.602C235.466 295.24 235.208 295.983 235.208 296.797L239.208 296.797ZM239.283 296.719C239.229 296.811 239.227 296.777 239.414 296.611C239.582 296.462 239.837 296.265 240.2 296.019L237.954 292.709C237.505 293.013 237.101 293.316 236.762 293.616C236.442 293.899 236.085 294.263 235.828 294.703L239.283 296.719ZM240.227 296L263.216 279.834L260.915 276.562L237.926 292.728L240.227 296ZM262.674 276.293L238.208 268.47L236.99 272.28L261.456 280.103L262.674 276.293ZM239.599 270.375L239.599 245.518L235.599 245.518L235.599 270.375L239.599 270.375ZM236.963 247.414L304.582 270.099L305.854 266.306L238.235 243.622L236.963 247.414ZM304.597 270.104C305.725 270.472 306.416 270.981 306.84 271.54L310.028 269.124C309.003 267.771 307.551 266.86 305.839 266.301L304.597 270.104ZM306.882 271.593C307.372 272.196 307.564 272.773 307.564 273.374L311.564 273.374C311.564 271.774 311.003 270.322 309.986 269.071L306.882 271.593ZM307.564 273.374C307.564 274.719 306.808 276.227 304.436 277.851L306.696 281.152C309.655 279.126 311.564 276.549 311.564 273.374L307.564 273.374ZM304.427 277.858L276.397 297.283L278.675 300.571L306.705 281.145L304.427 277.858ZM276.343 300.532L304.46 321.435L306.846 318.225L278.729 297.322L276.343 300.532ZM304.453 321.43C305.442 322.172 306.175 322.965 306.692 323.797L310.089 321.685C309.274 320.374 308.181 319.226 306.853 318.23L304.453 321.43ZM306.705 323.818C307.199 324.59 307.39 325.279 307.39 325.914L311.39 325.914C311.39 324.404 310.915 322.978 310.076 321.664L306.705 323.818ZM307.39 325.914C307.39 326.519 307.203 327.128 306.73 327.779L309.965 330.132C310.882 328.871 311.39 327.452 311.39 325.914L307.39 325.914ZM306.723 327.788C306.367 328.284 305.659 328.846 304.338 329.344L305.751 333.087C307.501 332.426 308.995 331.481 309.971 330.123L306.723 327.788ZM304.363 329.335L236.918 353.758L238.28 357.519L305.725 333.096L304.363 329.335ZM239.599 355.638L239.599 324.479L235.599 324.479L235.599 355.638L239.599 355.638Z" fill="white" mask="url(#path-17-outside-4_29_23)"/>
<mask id="path-19-outside-5_29_23" maskUnits="userSpaceOnUse" x="-8.00001" y="810" width="77" height="258" fill="black">
<rect fill="white" x="-8.00001" y="810" width="77" height="258"/>
<path d="M-5.40088 1065.05L-5.40088 1058.01L21.6294 1020.11L-5.40088 1020.11L-5.40088 995.647L64 995.647L64 1004.99L40.1421 1040.67L64 1040.67L64 1065.05L-5.40088 1065.05ZM-5.40088 983.914L-5.40089 933.895L14.5893 933.895L14.5894 956.883L20.2822 956.883L20.2822 933.981L37.3174 933.981L37.3174 956.883L43.8794 956.883L43.8794 932.374L64 932.374L64 983.914L-5.40088 983.914ZM-5.40089 892.479L19.3262 884.527L-3.92335 867.188C-4.70558 866.608 -5.21257 866.159 -5.44435 865.84C-5.67612 865.522 -5.792 865.174 -5.792 864.797C-5.792 864.421 -5.67612 864.059 -5.44435 863.711C-5.24155 863.363 -4.73455 862.914 -3.92335 862.364L19.0654 846.198L-5.40089 838.375L-5.40089 813.518L62.2183 836.203C63.6378 836.666 64.7098 837.376 65.4341 838.332C66.1873 839.259 66.564 840.273 66.564 841.374C66.564 843.634 65.2313 845.676 62.5659 847.501L34.5361 866.927L62.6528 887.83C63.8117 888.699 64.7243 889.669 65.3906 890.741C66.057 891.784 66.3901 892.842 66.3901 893.914C66.3901 894.986 66.0425 896 65.3472 896.956C64.6808 897.883 63.5799 898.636 62.0444 899.215L-5.40089 923.638L-5.40089 892.479Z"/>
</mask>
<path d="M-5.40088 1065.05L-7.40088 1065.05L-7.40088 1067.05L-5.40088 1067.05L-5.40088 1065.05ZM-5.40088 1058.01L-7.0291 1056.85L-7.40088 1057.37L-7.40088 1058.01L-5.40088 1058.01ZM21.6294 1020.11L23.2576 1021.28L25.5127 1018.11L21.6294 1018.11L21.6294 1020.11ZM-5.40088 1020.11L-7.40088 1020.11L-7.40088 1022.11L-5.40088 1022.11L-5.40088 1020.11ZM-5.40088 995.647L-5.40088 993.647L-7.40088 993.647L-7.40088 995.647L-5.40088 995.647ZM64 995.647L66 995.647L66 993.647L64 993.647L64 995.647ZM64 1004.99L65.6625 1006.1L66 1005.6L66 1004.99L64 1004.99ZM40.1421 1040.67L38.4795 1039.56L36.3987 1042.67L40.1421 1042.67L40.1421 1040.67ZM64 1040.67L66 1040.67L66 1038.67L64 1038.67L64 1040.67ZM64 1065.05L64 1067.05L66 1067.05L66 1065.05L64 1065.05ZM-3.40088 1065.05L-3.40088 1058.01L-7.40088 1058.01L-7.40088 1065.05L-3.40088 1065.05ZM-3.77266 1059.17L23.2576 1021.28L20.0012 1018.95L-7.0291 1056.85L-3.77266 1059.17ZM21.6294 1018.11L-5.40088 1018.11L-5.40088 1022.11L21.6294 1022.11L21.6294 1018.11ZM-3.40088 1020.11L-3.40088 995.647L-7.40088 995.647L-7.40088 1020.11L-3.40088 1020.11ZM-5.40088 997.647L64 997.647L64 993.647L-5.40088 993.647L-5.40088 997.647ZM62 995.647L62 1004.99L66 1004.99L66 995.647L62 995.647ZM62.3375 1003.88L38.4795 1039.56L41.8046 1041.78L65.6625 1006.1L62.3375 1003.88ZM40.1421 1042.67L64 1042.67L64 1038.67L40.1421 1038.67L40.1421 1042.67ZM62 1040.67L62 1065.05L66 1065.05L66 1040.67L62 1040.67ZM64 1063.05L-5.40088 1063.05L-5.40088 1067.05L64 1067.05L64 1063.05ZM-5.40088 983.914L-7.40088 983.914L-7.40088 985.914L-5.40088 985.914L-5.40088 983.914ZM-5.40089 933.895L-5.40089 931.895L-7.40089 931.895L-7.40089 933.895L-5.40089 933.895ZM14.5893 933.895L16.5893 933.895L16.5893 931.895L14.5893 931.895L14.5893 933.895ZM14.5894 956.883L12.5894 956.883L12.5894 958.883L14.5894 958.883L14.5894 956.883ZM20.2822 956.883L20.2822 958.883L22.2822 958.883L22.2822 956.883L20.2822 956.883ZM20.2822 933.981L20.2822 931.981L18.2822 931.981L18.2822 933.981L20.2822 933.981ZM37.3174 933.981L39.3174 933.981L39.3174 931.981L37.3174 931.981L37.3174 933.981ZM37.3174 956.883L35.3174 956.883L35.3174 958.883L37.3174 958.883L37.3174 956.883ZM43.8794 956.883L43.8794 958.883L45.8794 958.883L45.8794 956.883L43.8794 956.883ZM43.8794 932.374L43.8794 930.374L41.8794 930.374L41.8794 932.374L43.8794 932.374ZM64 932.374L66 932.374L66 930.374L64 930.374L64 932.374ZM64 983.914L64 985.914L66 985.914L66 983.914L64 983.914ZM-3.40088 983.914L-3.40089 933.895L-7.40089 933.895L-7.40088 983.914L-3.40088 983.914ZM-5.40089 935.895L14.5893 935.895L14.5893 931.895L-5.40089 931.895L-5.40089 935.895ZM12.5893 933.895L12.5894 956.883L16.5894 956.883L16.5893 933.895L12.5893 933.895ZM14.5894 958.883L20.2822 958.883L20.2822 954.883L14.5893 954.883L14.5894 958.883ZM22.2822 956.883L22.2822 933.981L18.2822 933.981L18.2822 956.883L22.2822 956.883ZM20.2822 935.981L37.3174 935.981L37.3174 931.981L20.2822 931.981L20.2822 935.981ZM35.3174 933.981L35.3174 956.883L39.3174 956.883L39.3174 933.981L35.3174 933.981ZM37.3174 958.883L43.8794 958.883L43.8794 954.883L37.3174 954.883L37.3174 958.883ZM45.8794 956.883L45.8794 932.374L41.8794 932.374L41.8794 956.883L45.8794 956.883ZM43.8794 934.374L64 934.374L64 930.374L43.8794 930.374L43.8794 934.374ZM62 932.374L62 983.914L66 983.914L66 932.374L62 932.374ZM64 981.914L-5.40088 981.914L-5.40088 985.914L64 985.914L64 981.914ZM-5.40089 892.479L-6.01323 890.576L-7.40089 891.022L-7.40089 892.479L-5.40089 892.479ZM19.3262 884.527L19.9385 886.431L23.6318 885.243L20.5218 882.924L19.3262 884.527ZM-3.92335 867.188L-2.72766 865.584L-2.73289 865.58L-3.92335 867.188ZM-5.44435 863.711L-3.78024 864.82L-3.74699 864.77L-3.71679 864.719L-5.44435 863.711ZM-3.92335 862.364L-2.80035 864.019L-2.78654 864.009L-2.7729 864L-3.92335 862.364ZM19.0654 846.198L20.2159 847.834L23.5083 845.518L19.6745 844.293L19.0654 846.198ZM-5.40089 838.375L-7.40089 838.375L-7.40089 839.836L-6.00995 840.28L-5.40089 838.375ZM-5.40089 813.518L-4.76478 811.622L-7.40089 810.738L-7.40089 813.518L-5.40089 813.518ZM62.2183 836.203L61.5821 838.099L61.5898 838.101L61.5974 838.104L62.2183 836.203ZM65.4341 838.332L63.8399 839.54L63.8604 839.567L63.8818 839.593L65.4341 838.332ZM62.5659 847.501L61.4359 845.851L61.4267 845.858L62.5659 847.501ZM34.5361 866.927L33.3969 865.283L31.1072 866.87L33.3429 868.532L34.5361 866.927ZM62.6528 887.83L63.8528 886.23L63.8461 886.225L62.6528 887.83ZM65.3906 890.741L63.692 891.797L63.6986 891.808L63.7052 891.818L65.3906 890.741ZM65.3472 896.956L63.7297 895.779L63.7231 895.788L65.3472 896.956ZM62.0444 899.215L62.7254 901.096L62.738 901.091L62.7505 901.087L62.0444 899.215ZM-5.40089 923.638L-7.40089 923.638L-7.40089 926.49L-4.71993 925.519L-5.40089 923.638ZM-4.78854 894.383L19.9385 886.431L18.7138 882.623L-6.01323 890.576L-4.78854 894.383ZM20.5218 882.924L-2.72767 865.584L-5.11903 868.791L18.1305 886.13L20.5218 882.924ZM-2.73289 865.58C-3.09554 865.312 -3.36854 865.092 -3.5642 864.919C-3.77471 864.733 -3.83565 864.652 -3.82687 864.664L-7.06182 867.017C-6.62929 867.611 -5.88907 868.22 -5.1138 868.795L-2.73289 865.58ZM-3.82687 864.664C-3.8312 864.658 -3.81934 864.673 -3.80772 864.708C-3.7958 864.744 -3.792 864.777 -3.792 864.797L-7.792 864.797C-7.792 865.617 -7.52994 866.373 -7.06182 867.017L-3.82687 864.664ZM-3.792 864.797C-3.792 864.806 -3.79272 864.817 -3.79443 864.828C-3.79614 864.838 -3.79841 864.847 -3.80024 864.853C-3.80203 864.858 -3.80269 864.859 -3.80032 864.854C-3.79789 864.849 -3.79193 864.838 -3.78024 864.82L-7.10845 862.602C-7.53434 863.24 -7.792 863.983 -7.792 864.797L-3.792 864.797ZM-3.71679 864.719C-3.77079 864.811 -3.77334 864.777 -3.58593 864.611C-3.41807 864.462 -3.16336 864.265 -2.80035 864.019L-5.04635 860.709C-5.49453 861.013 -5.89893 861.316 -6.23807 861.616C-6.55765 861.899 -6.9151 862.263 -7.1719 862.703L-3.71679 864.719ZM-2.7729 864L20.2159 847.834L17.915 844.562L-5.0738 860.728L-2.7729 864ZM19.6745 844.293L-4.79183 836.47L-6.00995 840.28L18.4564 848.103L19.6745 844.293ZM-3.40089 838.375L-3.40089 813.518L-7.40089 813.518L-7.40089 838.375L-3.40089 838.375ZM-6.037 815.414L61.5821 838.099L62.8544 834.306L-4.76478 811.622L-6.037 815.414ZM61.5974 838.104C62.7252 838.472 63.4163 838.981 63.8399 839.54L67.0283 837.124C66.0033 835.771 64.5505 834.86 62.8391 834.301L61.5974 838.104ZM63.8818 839.593C64.3718 840.196 64.564 840.773 64.564 841.374L68.564 841.374C68.564 839.774 68.0029 838.322 66.9863 837.071L63.8818 839.593ZM64.564 841.374C64.564 842.719 63.808 844.227 61.4359 845.851L63.6959 849.152C66.6546 847.126 68.564 844.549 68.564 841.374L64.564 841.374ZM61.4267 845.858L33.3969 865.283L35.6753 868.571L63.7051 849.145L61.4267 845.858ZM33.3429 868.532L61.4596 889.435L63.8461 886.225L35.7294 865.322L33.3429 868.532ZM61.4528 889.43C62.4422 890.172 63.1746 890.965 63.692 891.797L67.0892 889.685C66.274 888.374 65.1812 887.226 63.8528 886.23L61.4528 889.43ZM63.7052 891.818C64.1986 892.59 64.3901 893.279 64.3901 893.914L68.3901 893.914C68.3901 892.404 67.9153 890.978 67.076 889.664L63.7052 891.818ZM64.3901 893.914C64.3901 894.519 64.2033 895.128 63.7297 895.779L66.9646 898.132C67.8817 896.871 68.3901 895.452 68.3901 893.914L64.3901 893.914ZM63.7231 895.788C63.3669 896.284 62.6589 896.846 61.3383 897.344L62.7505 901.087C64.5009 900.426 65.9948 899.481 66.9712 898.123L63.7231 895.788ZM61.3635 897.335L-6.08184 921.758L-4.71993 925.519L62.7254 901.096L61.3635 897.335ZM-3.40089 923.638L-3.40089 892.479L-7.40089 892.479L-7.40089 923.638L-3.40089 923.638Z" fill="white" mask="url(#path-19-outside-5_29_23)"/>
<mask id="path-21-outside-6_29_23" maskUnits="userSpaceOnUse" x="73" y="810" width="77" height="258" fill="black">
<rect fill="white" x="73" y="810" width="77" height="258"/>
<path d="M75.5991 1065.05L75.5991 1058.01L102.629 1020.11L75.5991 1020.11L75.5991 995.647L145 995.647L145 1004.99L121.142 1040.67L145 1040.67L145 1065.05L75.5991 1065.05ZM75.5991 983.914L75.5991 933.895L95.5894 933.895L95.5894 956.883L101.282 956.883L101.282 933.981L118.317 933.981L118.317 956.883L124.879 956.883L124.879 932.374L145 932.374L145 983.914L75.5991 983.914ZM75.5991 892.479L100.326 884.527L77.0767 867.188C76.2944 866.608 75.7874 866.159 75.5557 865.84C75.3239 865.522 75.208 865.174 75.208 864.797C75.208 864.421 75.3239 864.059 75.5557 863.711C75.7585 863.363 76.2655 862.914 77.0767 862.364L100.065 846.198L75.5991 838.375L75.5991 813.518L143.218 836.203C144.638 836.666 145.71 837.376 146.434 838.332C147.187 839.259 147.564 840.273 147.564 841.374C147.564 843.634 146.231 845.676 143.566 847.501L115.536 866.927L143.653 887.83C144.812 888.699 145.724 889.669 146.391 890.741C147.057 891.784 147.39 892.842 147.39 893.914C147.39 894.986 147.042 896 146.347 896.956C145.681 897.883 144.58 898.636 143.044 899.215L75.5991 923.638L75.5991 892.479Z"/>
</mask>
<path d="M75.5991 1065.05L73.5991 1065.05L73.5991 1067.05L75.5991 1067.05L75.5991 1065.05ZM75.5991 1058.01L73.9709 1056.85L73.5991 1057.37L73.5991 1058.01L75.5991 1058.01ZM102.629 1020.11L104.258 1021.28L106.513 1018.11L102.629 1018.11L102.629 1020.11ZM75.5991 1020.11L73.5991 1020.11L73.5991 1022.11L75.5991 1022.11L75.5991 1020.11ZM75.5991 995.647L75.5991 993.647L73.5991 993.647L73.5991 995.647L75.5991 995.647ZM145 995.647L147 995.647L147 993.647L145 993.647L145 995.647ZM145 1004.99L146.663 1006.1L147 1005.6L147 1004.99L145 1004.99ZM121.142 1040.67L119.48 1039.56L117.399 1042.67L121.142 1042.67L121.142 1040.67ZM145 1040.67L147 1040.67L147 1038.67L145 1038.67L145 1040.67ZM145 1065.05L145 1067.05L147 1067.05L147 1065.05L145 1065.05ZM77.5991 1065.05L77.5991 1058.01L73.5991 1058.01L73.5991 1065.05L77.5991 1065.05ZM77.2274 1059.17L104.258 1021.28L101.001 1018.95L73.9709 1056.85L77.2274 1059.17ZM102.629 1018.11L75.5991 1018.11L75.5991 1022.11L102.629 1022.11L102.629 1018.11ZM77.5991 1020.11L77.5991 995.647L73.5991 995.647L73.5991 1020.11L77.5991 1020.11ZM75.5991 997.647L145 997.647L145 993.647L75.5991 993.647L75.5991 997.647ZM143 995.647L143 1004.99L147 1004.99L147 995.647L143 995.647ZM143.337 1003.88L119.48 1039.56L122.805 1041.78L146.663 1006.1L143.337 1003.88ZM121.142 1042.67L145 1042.67L145 1038.67L121.142 1038.67L121.142 1042.67ZM143 1040.67L143 1065.05L147 1065.05L147 1040.67L143 1040.67ZM145 1063.05L75.5991 1063.05L75.5991 1067.05L145 1067.05L145 1063.05ZM75.5991 983.914L73.5991 983.914L73.5991 985.914L75.5991 985.914L75.5991 983.914ZM75.5991 933.895L75.5991 931.895L73.5991 931.895L73.5991 933.895L75.5991 933.895ZM95.5894 933.895L97.5894 933.895L97.5894 931.895L95.5894 931.895L95.5894 933.895ZM95.5894 956.883L93.5894 956.883L93.5894 958.883L95.5894 958.883L95.5894 956.883ZM101.282 956.883L101.282 958.883L103.282 958.883L103.282 956.883L101.282 956.883ZM101.282 933.981L101.282 931.981L99.2822 931.981L99.2822 933.981L101.282 933.981ZM118.317 933.981L120.317 933.981L120.317 931.981L118.317 931.981L118.317 933.981ZM118.317 956.883L116.317 956.883L116.317 958.883L118.317 958.883L118.317 956.883ZM124.879 956.883L124.879 958.883L126.879 958.883L126.879 956.883L124.879 956.883ZM124.879 932.374L124.879 930.374L122.879 930.374L122.879 932.374L124.879 932.374ZM145 932.374L147 932.374L147 930.374L145 930.374L145 932.374ZM145 983.914L145 985.914L147 985.914L147 983.914L145 983.914ZM77.5991 983.914L77.5991 933.895L73.5991 933.895L73.5991 983.914L77.5991 983.914ZM75.5991 935.895L95.5894 935.895L95.5894 931.895L75.5991 931.895L75.5991 935.895ZM93.5894 933.895L93.5894 956.883L97.5894 956.883L97.5894 933.895L93.5894 933.895ZM95.5894 958.883L101.282 958.883L101.282 954.883L95.5894 954.883L95.5894 958.883ZM103.282 956.883L103.282 933.981L99.2822 933.981L99.2822 956.883L103.282 956.883ZM101.282 935.981L118.317 935.981L118.317 931.981L101.282 931.981L101.282 935.981ZM116.317 933.981L116.317 956.883L120.317 956.883L120.317 933.981L116.317 933.981ZM118.317 958.883L124.879 958.883L124.879 954.883L118.317 954.883L118.317 958.883ZM126.879 956.883L126.879 932.374L122.879 932.374L122.879 956.883L126.879 956.883ZM124.879 934.374L145 934.374L145 930.374L124.879 930.374L124.879 934.374ZM143 932.374L143 983.914L147 983.914L147 932.374L143 932.374ZM145 981.914L75.5991 981.914L75.5991 985.914L145 985.914L145 981.914ZM75.5991 892.479L74.9868 890.576L73.5991 891.022L73.5991 892.479L75.5991 892.479ZM100.326 884.527L100.939 886.431L104.632 885.243L101.522 882.924L100.326 884.527ZM77.0767 867.188L78.2724 865.584L78.2671 865.58L77.0767 867.188ZM75.5557 863.711L77.2198 864.82L77.253 864.77L77.2832 864.719L75.5557 863.711ZM77.0767 862.364L78.1997 864.019L78.2135 864.009L78.2271 864L77.0767 862.364ZM100.065 846.198L101.216 847.834L104.508 845.518L100.674 844.293L100.065 846.198ZM75.5991 838.375L73.5991 838.375L73.5991 839.836L74.9901 840.28L75.5991 838.375ZM75.5991 813.518L76.2352 811.622L73.5991 810.738L73.5991 813.518L75.5991 813.518ZM143.218 836.203L142.582 838.099L142.59 838.101L142.597 838.104L143.218 836.203ZM146.434 838.332L144.84 839.54L144.86 839.567L144.882 839.593L146.434 838.332ZM143.566 847.501L142.436 845.851L142.427 845.858L143.566 847.501ZM115.536 866.927L114.397 865.283L112.107 866.87L114.343 868.532L115.536 866.927ZM143.653 887.83L144.853 886.23L144.846 886.225L143.653 887.83ZM146.391 890.741L144.692 891.797L144.699 891.808L144.705 891.818L146.391 890.741ZM146.347 896.956L144.73 895.779L144.723 895.788L146.347 896.956ZM143.044 899.215L143.725 901.096L143.738 901.091L143.751 901.087L143.044 899.215ZM75.5991 923.638L73.5991 923.638L73.5991 926.49L76.2801 925.519L75.5991 923.638ZM76.2115 894.383L100.939 886.431L99.7138 882.623L74.9868 890.576L76.2115 894.383ZM101.522 882.924L78.2723 865.584L75.881 868.791L99.1305 886.13L101.522 882.924ZM78.2671 865.58C77.9045 865.312 77.6315 865.092 77.4358 864.919C77.2253 864.733 77.1644 864.652 77.1731 864.664L73.9382 867.017C74.3707 867.611 75.1109 868.22 75.8862 868.795L78.2671 865.58ZM77.1731 864.664C77.1688 864.658 77.1807 864.673 77.1923 864.708C77.2042 864.744 77.208 864.777 77.208 864.797L73.208 864.797C73.208 865.617 73.4701 866.373 73.9382 867.017L77.1731 864.664ZM77.208 864.797C77.208 864.806 77.2073 864.817 77.2056 864.828C77.2039 864.838 77.2016 864.847 77.1998 864.853C77.198 864.858 77.1973 864.859 77.1997 864.854C77.2021 864.849 77.2081 864.838 77.2198 864.82L73.8916 862.602C73.4657 863.24 73.208 863.983 73.208 864.797L77.208 864.797ZM77.2832 864.719C77.2292 864.811 77.2267 864.777 77.4141 864.611C77.5819 864.462 77.8367 864.265 78.1997 864.019L75.9537 860.709C75.5055 861.013 75.1011 861.316 74.7619 861.616C74.4424 861.899 74.0849 862.263 73.8281 862.703L77.2832 864.719ZM78.2271 864L101.216 847.834L98.915 844.562L75.9262 860.728L78.2271 864ZM100.674 844.293L76.2082 836.47L74.9901 840.28L99.4564 848.103L100.674 844.293ZM77.5991 838.375L77.5991 813.518L73.5991 813.518L73.5991 838.375L77.5991 838.375ZM74.963 815.414L142.582 838.099L143.854 834.306L76.2352 811.622L74.963 815.414ZM142.597 838.104C143.725 838.472 144.416 838.981 144.84 839.54L148.028 837.124C147.003 835.771 145.551 834.86 143.839 834.301L142.597 838.104ZM144.882 839.593C145.372 840.196 145.564 840.773 145.564 841.374L149.564 841.374C149.564 839.774 149.003 838.322 147.986 837.071L144.882 839.593ZM145.564 841.374C145.564 842.719 144.808 844.227 142.436 845.851L144.696 849.152C147.655 847.126 149.564 844.549 149.564 841.374L145.564 841.374ZM142.427 845.858L114.397 865.283L116.675 868.571L144.705 849.145L142.427 845.858ZM114.343 868.532L142.46 889.435L144.846 886.225L116.729 865.322L114.343 868.532ZM142.453 889.43C143.442 890.172 144.175 890.965 144.692 891.797L148.089 889.685C147.274 888.374 146.181 887.226 144.853 886.23L142.453 889.43ZM144.705 891.818C145.199 892.59 145.39 893.279 145.39 893.914L149.39 893.914C149.39 892.404 148.915 890.978 148.076 889.664L144.705 891.818ZM145.39 893.914C145.39 894.519 145.203 895.128 144.73 895.779L147.965 898.132C148.882 896.871 149.39 895.452 149.39 893.914L145.39 893.914ZM144.723 895.788C144.367 896.284 143.659 896.846 142.338 897.344L143.751 901.087C145.501 900.426 146.995 899.481 147.971 898.123L144.723 895.788ZM142.363 897.335L74.9182 921.758L76.2801 925.519L143.725 901.096L142.363 897.335ZM77.5991 923.638L77.5991 892.479L73.5991 892.479L73.5991 923.638L77.5991 923.638Z" fill="white" mask="url(#path-21-outside-6_29_23)"/>
<mask id="path-23-outside-7_29_23" maskUnits="userSpaceOnUse" x="154" y="810" width="77" height="258" fill="black">
<rect fill="white" x="154" y="810" width="77" height="258"/>
<path d="M156.599 1065.05L156.599 1058.01L183.629 1020.11L156.599 1020.11L156.599 995.647L226 995.647L226 1004.99L202.142 1040.67L226 1040.67L226 1065.05L156.599 1065.05ZM156.599 983.914L156.599 933.895L176.589 933.895L176.589 956.883L182.282 956.883L182.282 933.981L199.317 933.981L199.317 956.883L205.879 956.883L205.879 932.374L226 932.374L226 983.914L156.599 983.914ZM156.599 892.479L181.326 884.527L158.077 867.188C157.294 866.608 156.787 866.159 156.556 865.84C156.324 865.522 156.208 865.174 156.208 864.797C156.208 864.421 156.324 864.059 156.556 863.711C156.758 863.363 157.265 862.914 158.077 862.364L181.065 846.198L156.599 838.375L156.599 813.518L224.218 836.203C225.638 836.666 226.71 837.376 227.434 838.332C228.187 839.259 228.564 840.273 228.564 841.374C228.564 843.634 227.231 845.676 224.566 847.501L196.536 866.927L224.653 887.83C225.812 888.699 226.724 889.669 227.391 890.741C228.057 891.784 228.39 892.842 228.39 893.914C228.39 894.986 228.042 896 227.347 896.956C226.681 897.883 225.58 898.636 224.044 899.215L156.599 923.638L156.599 892.479Z"/>
</mask>
<path d="M156.599 1065.05L154.599 1065.05L154.599 1067.05L156.599 1067.05L156.599 1065.05ZM156.599 1058.01L154.971 1056.85L154.599 1057.37L154.599 1058.01L156.599 1058.01ZM183.629 1020.11L185.258 1021.28L187.513 1018.11L183.629 1018.11L183.629 1020.11ZM156.599 1020.11L154.599 1020.11L154.599 1022.11L156.599 1022.11L156.599 1020.11ZM156.599 995.647L156.599 993.647L154.599 993.647L154.599 995.647L156.599 995.647ZM226 995.647L228 995.647L228 993.647L226 993.647L226 995.647ZM226 1004.99L227.663 1006.1L228 1005.6L228 1004.99L226 1004.99ZM202.142 1040.67L200.48 1039.56L198.399 1042.67L202.142 1042.67L202.142 1040.67ZM226 1040.67L228 1040.67L228 1038.67L226 1038.67L226 1040.67ZM226 1065.05L226 1067.05L228 1067.05L228 1065.05L226 1065.05ZM158.599 1065.05L158.599 1058.01L154.599 1058.01L154.599 1065.05L158.599 1065.05ZM158.227 1059.17L185.258 1021.28L182.001 1018.95L154.971 1056.85L158.227 1059.17ZM183.629 1018.11L156.599 1018.11L156.599 1022.11L183.629 1022.11L183.629 1018.11ZM158.599 1020.11L158.599 995.647L154.599 995.647L154.599 1020.11L158.599 1020.11ZM156.599 997.647L226 997.647L226 993.647L156.599 993.647L156.599 997.647ZM224 995.647L224 1004.99L228 1004.99L228 995.647L224 995.647ZM224.337 1003.88L200.48 1039.56L203.805 1041.78L227.663 1006.1L224.337 1003.88ZM202.142 1042.67L226 1042.67L226 1038.67L202.142 1038.67L202.142 1042.67ZM224 1040.67L224 1065.05L228 1065.05L228 1040.67L224 1040.67ZM226 1063.05L156.599 1063.05L156.599 1067.05L226 1067.05L226 1063.05ZM156.599 983.914L154.599 983.914L154.599 985.914L156.599 985.914L156.599 983.914ZM156.599 933.895L156.599 931.895L154.599 931.895L154.599 933.895L156.599 933.895ZM176.589 933.895L178.589 933.895L178.589 931.895L176.589 931.895L176.589 933.895ZM176.589 956.883L174.589 956.883L174.589 958.883L176.589 958.883L176.589 956.883ZM182.282 956.883L182.282 958.883L184.282 958.883L184.282 956.883L182.282 956.883ZM182.282 933.981L182.282 931.981L180.282 931.981L180.282 933.981L182.282 933.981ZM199.317 933.981L201.317 933.981L201.317 931.981L199.317 931.981L199.317 933.981ZM199.317 956.883L197.317 956.883L197.317 958.883L199.317 958.883L199.317 956.883ZM205.879 956.883L205.879 958.883L207.879 958.883L207.879 956.883L205.879 956.883ZM205.879 932.374L205.879 930.374L203.879 930.374L203.879 932.374L205.879 932.374ZM226 932.374L228 932.374L228 930.374L226 930.374L226 932.374ZM226 983.914L226 985.914L228 985.914L228 983.914L226 983.914ZM158.599 983.914L158.599 933.895L154.599 933.895L154.599 983.914L158.599 983.914ZM156.599 935.895L176.589 935.895L176.589 931.895L156.599 931.895L156.599 935.895ZM174.589 933.895L174.589 956.883L178.589 956.883L178.589 933.895L174.589 933.895ZM176.589 958.883L182.282 958.883L182.282 954.883L176.589 954.883L176.589 958.883ZM184.282 956.883L184.282 933.981L180.282 933.981L180.282 956.883L184.282 956.883ZM182.282 935.981L199.317 935.981L199.317 931.981L182.282 931.981L182.282 935.981ZM197.317 933.981L197.317 956.883L201.317 956.883L201.317 933.981L197.317 933.981ZM199.317 958.883L205.879 958.883L205.879 954.883L199.317 954.883L199.317 958.883ZM207.879 956.883L207.879 932.374L203.879 932.374L203.879 956.883L207.879 956.883ZM205.879 934.374L226 934.374L226 930.374L205.879 930.374L205.879 934.374ZM224 932.374L224 983.914L228 983.914L228 932.374L224 932.374ZM226 981.914L156.599 981.914L156.599 985.914L226 985.914L226 981.914ZM156.599 892.479L155.987 890.576L154.599 891.022L154.599 892.479L156.599 892.479ZM181.326 884.527L181.939 886.431L185.632 885.243L182.522 882.924L181.326 884.527ZM158.077 867.188L159.272 865.584L159.267 865.58L158.077 867.188ZM156.556 863.711L158.22 864.82L158.253 864.77L158.283 864.719L156.556 863.711ZM158.077 862.364L159.2 864.019L159.213 864.009L159.227 864L158.077 862.364ZM181.065 846.198L182.216 847.834L185.508 845.518L181.674 844.293L181.065 846.198ZM156.599 838.375L154.599 838.375L154.599 839.836L155.99 840.28L156.599 838.375ZM156.599 813.518L157.235 811.622L154.599 810.738L154.599 813.518L156.599 813.518ZM224.218 836.203L223.582 838.099L223.59 838.101L223.597 838.104L224.218 836.203ZM227.434 838.332L225.84 839.54L225.86 839.567L225.882 839.593L227.434 838.332ZM224.566 847.501L223.436 845.851L223.427 845.858L224.566 847.501ZM196.536 866.927L195.397 865.283L193.107 866.87L195.343 868.532L196.536 866.927ZM224.653 887.83L225.853 886.23L225.846 886.225L224.653 887.83ZM227.391 890.741L225.692 891.797L225.699 891.808L225.705 891.818L227.391 890.741ZM227.347 896.956L225.73 895.779L225.723 895.788L227.347 896.956ZM224.044 899.215L224.725 901.096L224.738 901.091L224.751 901.087L224.044 899.215ZM156.599 923.638L154.599 923.638L154.599 926.49L157.28 925.519L156.599 923.638ZM157.211 894.383L181.939 886.431L180.714 882.623L155.987 890.576L157.211 894.383ZM182.522 882.924L159.272 865.584L156.881 868.791L180.13 886.13L182.522 882.924ZM159.267 865.58C158.904 865.312 158.631 865.092 158.436 864.919C158.225 864.733 158.164 864.652 158.173 864.664L154.938 867.017C155.371 867.611 156.111 868.22 156.886 868.795L159.267 865.58ZM158.173 864.664C158.169 864.658 158.181 864.673 158.192 864.708C158.204 864.744 158.208 864.777 158.208 864.797L154.208 864.797C154.208 865.617 154.47 866.373 154.938 867.017L158.173 864.664ZM158.208 864.797C158.208 864.806 158.207 864.817 158.206 864.828C158.204 864.838 158.202 864.847 158.2 864.853C158.198 864.858 158.197 864.859 158.2 864.854C158.202 864.849 158.208 864.838 158.22 864.82L154.892 862.602C154.466 863.24 154.208 863.983 154.208 864.797L158.208 864.797ZM158.283 864.719C158.229 864.811 158.227 864.777 158.414 864.611C158.582 864.462 158.837 864.265 159.2 864.019L156.954 860.709C156.505 861.013 156.101 861.316 155.762 861.616C155.442 861.899 155.085 862.263 154.828 862.703L158.283 864.719ZM159.227 864L182.216 847.834L179.915 844.562L156.926 860.728L159.227 864ZM181.674 844.293L157.208 836.47L155.99 840.28L180.456 848.103L181.674 844.293ZM158.599 838.375L158.599 813.518L154.599 813.518L154.599 838.375L158.599 838.375ZM155.963 815.414L223.582 838.099L224.854 834.306L157.235 811.622L155.963 815.414ZM223.597 838.104C224.725 838.472 225.416 838.981 225.84 839.54L229.028 837.124C228.003 835.771 226.551 834.86 224.839 834.301L223.597 838.104ZM225.882 839.593C226.372 840.196 226.564 840.773 226.564 841.374L230.564 841.374C230.564 839.774 230.003 838.322 228.986 837.071L225.882 839.593ZM226.564 841.374C226.564 842.719 225.808 844.227 223.436 845.851L225.696 849.152C228.655 847.126 230.564 844.549 230.564 841.374L226.564 841.374ZM223.427 845.858L195.397 865.283L197.675 868.571L225.705 849.145L223.427 845.858ZM195.343 868.532L223.46 889.435L225.846 886.225L197.729 865.322L195.343 868.532ZM223.453 889.43C224.442 890.172 225.175 890.965 225.692 891.797L229.089 889.685C228.274 888.374 227.181 887.226 225.853 886.23L223.453 889.43ZM225.705 891.818C226.199 892.59 226.39 893.279 226.39 893.914L230.39 893.914C230.39 892.404 229.915 890.978 229.076 889.664L225.705 891.818ZM226.39 893.914C226.39 894.519 226.203 895.128 225.73 895.779L228.965 898.132C229.882 896.871 230.39 895.452 230.39 893.914L226.39 893.914ZM225.723 895.788C225.367 896.284 224.659 896.846 223.338 897.344L224.751 901.087C226.501 900.426 227.995 899.481 228.971 898.123L225.723 895.788ZM223.363 897.335L155.918 921.758L157.28 925.519L224.725 901.096L223.363 897.335ZM158.599 923.638L158.599 892.479L154.599 892.479L154.599 923.638L158.599 923.638Z" fill="white" mask="url(#path-23-outside-7_29_23)"/>
<mask id="path-25-outside-8_29_23" maskUnits="userSpaceOnUse" x="235" y="810" width="77" height="258" fill="black">
<rect fill="white" x="235" y="810" width="77" height="258"/>
<path d="M237.599 1065.05L237.599 1058.01L264.629 1020.11L237.599 1020.11L237.599 995.647L307 995.647L307 1004.99L283.142 1040.67L307 1040.67L307 1065.05L237.599 1065.05ZM237.599 983.914L237.599 933.895L257.589 933.895L257.589 956.883L263.282 956.883L263.282 933.981L280.317 933.981L280.317 956.883L286.879 956.883L286.879 932.374L307 932.374L307 983.914L237.599 983.914ZM237.599 892.479L262.326 884.527L239.077 867.188C238.294 866.608 237.787 866.159 237.556 865.84C237.324 865.522 237.208 865.174 237.208 864.797C237.208 864.421 237.324 864.059 237.556 863.711C237.758 863.363 238.265 862.914 239.077 862.364L262.065 846.198L237.599 838.375L237.599 813.518L305.218 836.203C306.638 836.666 307.71 837.376 308.434 838.332C309.187 839.259 309.564 840.273 309.564 841.374C309.564 843.634 308.231 845.676 305.566 847.501L277.536 866.927L305.653 887.83C306.812 888.699 307.724 889.669 308.391 890.741C309.057 891.784 309.39 892.842 309.39 893.914C309.39 894.986 309.042 896 308.347 896.956C307.681 897.883 306.58 898.636 305.044 899.215L237.599 923.638L237.599 892.479Z"/>
</mask>
<path d="M237.599 1065.05L235.599 1065.05L235.599 1067.05L237.599 1067.05L237.599 1065.05ZM237.599 1058.01L235.971 1056.85L235.599 1057.37L235.599 1058.01L237.599 1058.01ZM264.629 1020.11L266.258 1021.28L268.513 1018.11L264.629 1018.11L264.629 1020.11ZM237.599 1020.11L235.599 1020.11L235.599 1022.11L237.599 1022.11L237.599 1020.11ZM237.599 995.647L237.599 993.647L235.599 993.647L235.599 995.647L237.599 995.647ZM307 995.647L309 995.647L309 993.647L307 993.647L307 995.647ZM307 1004.99L308.663 1006.1L309 1005.6L309 1004.99L307 1004.99ZM283.142 1040.67L281.48 1039.56L279.399 1042.67L283.142 1042.67L283.142 1040.67ZM307 1040.67L309 1040.67L309 1038.67L307 1038.67L307 1040.67ZM307 1065.05L307 1067.05L309 1067.05L309 1065.05L307 1065.05ZM239.599 1065.05L239.599 1058.01L235.599 1058.01L235.599 1065.05L239.599 1065.05ZM239.227 1059.17L266.258 1021.28L263.001 1018.95L235.971 1056.85L239.227 1059.17ZM264.629 1018.11L237.599 1018.11L237.599 1022.11L264.629 1022.11L264.629 1018.11ZM239.599 1020.11L239.599 995.647L235.599 995.647L235.599 1020.11L239.599 1020.11ZM237.599 997.647L307 997.647L307 993.647L237.599 993.647L237.599 997.647ZM305 995.647L305 1004.99L309 1004.99L309 995.647L305 995.647ZM305.337 1003.88L281.48 1039.56L284.805 1041.78L308.663 1006.1L305.337 1003.88ZM283.142 1042.67L307 1042.67L307 1038.67L283.142 1038.67L283.142 1042.67ZM305 1040.67L305 1065.05L309 1065.05L309 1040.67L305 1040.67ZM307 1063.05L237.599 1063.05L237.599 1067.05L307 1067.05L307 1063.05ZM237.599 983.914L235.599 983.914L235.599 985.914L237.599 985.914L237.599 983.914ZM237.599 933.895L237.599 931.895L235.599 931.895L235.599 933.895L237.599 933.895ZM257.589 933.895L259.589 933.895L259.589 931.895L257.589 931.895L257.589 933.895ZM257.589 956.883L255.589 956.883L255.589 958.883L257.589 958.883L257.589 956.883ZM263.282 956.883L263.282 958.883L265.282 958.883L265.282 956.883L263.282 956.883ZM263.282 933.981L263.282 931.981L261.282 931.981L261.282 933.981L263.282 933.981ZM280.317 933.981L282.317 933.981L282.317 931.981L280.317 931.981L280.317 933.981ZM280.317 956.883L278.317 956.883L278.317 958.883L280.317 958.883L280.317 956.883ZM286.879 956.883L286.879 958.883L288.879 958.883L288.879 956.883L286.879 956.883ZM286.879 932.374L286.879 930.374L284.879 930.374L284.879 932.374L286.879 932.374ZM307 932.374L309 932.374L309 930.374L307 930.374L307 932.374ZM307 983.914L307 985.914L309 985.914L309 983.914L307 983.914ZM239.599 983.914L239.599 933.895L235.599 933.895L235.599 983.914L239.599 983.914ZM237.599 935.895L257.589 935.895L257.589 931.895L237.599 931.895L237.599 935.895ZM255.589 933.895L255.589 956.883L259.589 956.883L259.589 933.895L255.589 933.895ZM257.589 958.883L263.282 958.883L263.282 954.883L257.589 954.883L257.589 958.883ZM265.282 956.883L265.282 933.981L261.282 933.981L261.282 956.883L265.282 956.883ZM263.282 935.981L280.317 935.981L280.317 931.981L263.282 931.981L263.282 935.981ZM278.317 933.981L278.317 956.883L282.317 956.883L282.317 933.981L278.317 933.981ZM280.317 958.883L286.879 958.883L286.879 954.883L280.317 954.883L280.317 958.883ZM288.879 956.883L288.879 932.374L284.879 932.374L284.879 956.883L288.879 956.883ZM286.879 934.374L307 934.374L307 930.374L286.879 930.374L286.879 934.374ZM305 932.374L305 983.914L309 983.914L309 932.374L305 932.374ZM307 981.914L237.599 981.914L237.599 985.914L307 985.914L307 981.914ZM237.599 892.479L236.987 890.576L235.599 891.022L235.599 892.479L237.599 892.479ZM262.326 884.527L262.939 886.431L266.632 885.243L263.522 882.924L262.326 884.527ZM239.077 867.188L240.272 865.584L240.267 865.58L239.077 867.188ZM237.556 863.711L239.22 864.82L239.253 864.77L239.283 864.719L237.556 863.711ZM239.077 862.364L240.2 864.019L240.213 864.009L240.227 864L239.077 862.364ZM262.065 846.198L263.216 847.834L266.508 845.518L262.674 844.293L262.065 846.198ZM237.599 838.375L235.599 838.375L235.599 839.836L236.99 840.28L237.599 838.375ZM237.599 813.518L238.235 811.622L235.599 810.738L235.599 813.518L237.599 813.518ZM305.218 836.203L304.582 838.099L304.59 838.101L304.597 838.104L305.218 836.203ZM308.434 838.332L306.84 839.54L306.86 839.567L306.882 839.593L308.434 838.332ZM305.566 847.501L304.436 845.851L304.427 845.858L305.566 847.501ZM277.536 866.927L276.397 865.283L274.107 866.87L276.343 868.532L277.536 866.927ZM305.653 887.83L306.853 886.23L306.846 886.225L305.653 887.83ZM308.391 890.741L306.692 891.797L306.699 891.808L306.705 891.818L308.391 890.741ZM308.347 896.956L306.73 895.779L306.723 895.788L308.347 896.956ZM305.044 899.215L305.725 901.096L305.738 901.091L305.751 901.087L305.044 899.215ZM237.599 923.638L235.599 923.638L235.599 926.49L238.28 925.519L237.599 923.638ZM238.211 894.383L262.939 886.431L261.714 882.623L236.987 890.576L238.211 894.383ZM263.522 882.924L240.272 865.584L237.881 868.791L261.13 886.13L263.522 882.924ZM240.267 865.58C239.904 865.312 239.631 865.092 239.436 864.919C239.225 864.733 239.164 864.652 239.173 864.664L235.938 867.017C236.371 867.611 237.111 868.22 237.886 868.795L240.267 865.58ZM239.173 864.664C239.169 864.658 239.181 864.673 239.192 864.708C239.204 864.744 239.208 864.777 239.208 864.797L235.208 864.797C235.208 865.617 235.47 866.373 235.938 867.017L239.173 864.664ZM239.208 864.797C239.208 864.806 239.207 864.817 239.206 864.828C239.204 864.838 239.202 864.847 239.2 864.853C239.198 864.858 239.197 864.859 239.2 864.854C239.202 864.849 239.208 864.838 239.22 864.82L235.892 862.602C235.466 863.24 235.208 863.983 235.208 864.797L239.208 864.797ZM239.283 864.719C239.229 864.811 239.227 864.777 239.414 864.611C239.582 864.462 239.837 864.265 240.2 864.019L237.954 860.709C237.505 861.013 237.101 861.316 236.762 861.616C236.442 861.899 236.085 862.263 235.828 862.703L239.283 864.719ZM240.227 864L263.216 847.834L260.915 844.562L237.926 860.728L240.227 864ZM262.674 844.293L238.208 836.47L236.99 840.28L261.456 848.103L262.674 844.293ZM239.599 838.375L239.599 813.518L235.599 813.518L235.599 838.375L239.599 838.375ZM236.963 815.414L304.582 838.099L305.854 834.306L238.235 811.622L236.963 815.414ZM304.597 838.104C305.725 838.472 306.416 838.981 306.84 839.54L310.028 837.124C309.003 835.771 307.551 834.86 305.839 834.301L304.597 838.104ZM306.882 839.593C307.372 840.196 307.564 840.773 307.564 841.374L311.564 841.374C311.564 839.774 311.003 838.322 309.986 837.071L306.882 839.593ZM307.564 841.374C307.564 842.719 306.808 844.227 304.436 845.851L306.696 849.152C309.655 847.126 311.564 844.549 311.564 841.374L307.564 841.374ZM304.427 845.858L276.397 865.283L278.675 868.571L306.705 849.145L304.427 845.858ZM276.343 868.532L304.46 889.435L306.846 886.225L278.729 865.322L276.343 868.532ZM304.453 889.43C305.442 890.172 306.175 890.965 306.692 891.797L310.089 889.685C309.274 888.374 308.181 887.226 306.853 886.23L304.453 889.43ZM306.705 891.818C307.199 892.59 307.39 893.279 307.39 893.914L311.39 893.914C311.39 892.404 310.915 890.978 310.076 889.664L306.705 891.818ZM307.39 893.914C307.39 894.519 307.203 895.128 306.73 895.779L309.965 898.132C310.882 896.871 311.39 895.452 311.39 893.914L307.39 893.914ZM306.723 895.788C306.367 896.284 305.659 896.846 304.338 897.344L305.751 901.087C307.501 900.426 308.995 899.481 309.971 898.123L306.723 895.788ZM304.363 897.335L236.918 921.758L238.28 925.519L305.725 901.096L304.363 897.335ZM239.599 923.638L239.599 892.479L235.599 892.479L235.599 923.638L239.599 923.638Z" fill="white" mask="url(#path-25-outside-8_29_23)"/>
</g>
</svg>
