<svg width="1245" height="300" viewBox="0 0 1245 300" fill="none" xmlns="http://www.w3.org/2000/svg">
<rect y="300" width="300" height="1245" rx="15" transform="rotate(-90 0 300)" fill="#1E1E1E"/>
<mask id="mask0_42_199" style="mask-type:alpha" maskUnits="userSpaceOnUse" x="0" y="0" width="1246" height="300">
<rect y="300" width="300" height="1245" rx="15" transform="rotate(-90 0 300)" fill="#1E1E1E"/>
</mask>
<g mask="url(#mask0_42_199)">
<mask id="path-3-outside-1_42_199" maskUnits="userSpaceOnUse" x="-35" y="-145" width="1422" height="606" fill="black">
<rect fill="white" x="-35" y="-145" width="1422" height="606"/>
<path d="M-17.7625 445.675C-17.7625 446.968 -17.2775 447.615 -16.3075 447.615C-6.93085 447.615 23.6242 419.323 75.3575 362.74C126.767 306.48 182.057 241.49 241.227 167.77C192.081 200.427 146.491 235.185 104.457 272.045C54.3408 315.372 19.2591 354.98 -0.787523 390.87C-12.1042 411.24 -17.7625 429.508 -17.7625 445.675ZM-27.9475 458.285C-31.1809 458.285 -32.7975 456.183 -32.7975 451.98C-32.7975 430.317 -23.7442 405.905 -5.63752 378.745C12.1458 351.585 35.9108 324.587 65.6575 297.75C119.977 247.957 181.734 200.75 250.927 156.13C303.631 89.8467 346.957 31.485 380.907 -18.955C415.181 -69.7184 432.317 -103.022 432.317 -118.865C432.317 -123.715 431.509 -126.625 429.892 -127.595C428.599 -128.565 425.204 -129.05 419.707 -129.05C395.457 -129.05 365.872 -119.673 330.952 -100.92C296.356 -82.49 264.346 -60.8267 234.922 -35.93C205.499 -11.3567 180.279 13.8633 159.262 39.73C138.246 65.5967 127.737 85.4817 127.737 99.385C127.737 111.348 135.497 117.33 151.017 117.33C166.537 117.33 186.746 110.863 211.642 97.93C236.539 84.9966 257.717 72.0633 275.177 59.13L301.852 39.73L306.217 40.7C284.877 59.4533 259.657 77.2366 230.557 94.05C218.271 101.163 204.206 107.792 188.362 113.935C172.842 119.755 159.262 122.665 147.622 122.665C128.546 122.665 119.007 114.582 119.007 98.415C119.007 82.2483 128.222 61.07 146.652 34.88C165.082 8.36665 188.201 -17.5 216.007 -42.72C243.814 -68.2634 276.309 -90.25 313.492 -108.68C350.676 -127.11 385.596 -136.325 418.252 -136.325C426.336 -136.325 431.671 -134.708 434.257 -131.475C436.844 -128.242 438.137 -122.583 438.137 -114.5C438.137 -72.79 391.416 7.71997 297.972 127.03C320.606 113.127 332.892 106.175 334.832 106.175C337.096 106.175 338.227 106.66 338.227 107.63C338.227 108.6 337.581 109.57 336.287 110.54C327.557 114.42 312.361 122.988 290.697 136.245C227.971 215.138 163.142 288.535 96.2125 356.435C29.2825 424.335 -12.1042 458.285 -27.9475 458.285ZM587.373 252.16C602.57 252.16 650.1 225.323 729.963 171.65L762.458 151.28C764.722 149.987 767.147 149.34 769.733 149.34C772.32 149.34 773.613 149.663 773.613 150.31C773.613 150.957 773.128 151.603 772.158 152.25L737.238 173.59C732.388 176.823 722.688 183.452 708.138 193.475C693.588 203.175 681.787 210.935 672.733 216.755C663.68 222.575 653.01 229.203 640.723 236.64C616.473 250.867 597.558 257.98 583.978 257.98C578.805 257.333 576.218 252.645 576.218 243.915C576.218 235.185 581.392 220.958 591.738 201.235C602.085 181.512 614.372 161.303 628.598 140.61C643.148 119.917 657.698 99.87 672.248 80.47C686.798 61.07 698.762 45.2266 708.138 32.94C717.515 20.3299 721.88 14.0249 721.233 14.0249C719.617 14.0249 705.552 26.4733 679.038 51.37C652.525 75.9433 623.263 102.942 591.253 132.365C559.243 161.788 526.91 188.948 494.253 213.845C461.597 238.418 439.125 250.705 426.838 250.705C421.988 250.705 419.563 248.118 419.563 242.945C419.563 219.018 446.723 174.075 501.043 108.115C523.677 80.6316 546.31 52.9866 568.943 25.18C591.577 -2.62671 610.815 -29.625 626.658 -55.8151C642.502 -82.3284 650.423 -103.668 650.423 -119.835C650.423 -124.362 649.13 -127.918 646.543 -130.505C643.957 -133.092 641.047 -134.708 637.813 -135.355C634.903 -136.002 630.538 -136.487 624.718 -136.81C606.935 -136.487 587.05 -129.535 565.063 -115.955C543.077 -102.698 522.383 -85.8851 502.983 -65.515C483.583 -45.4684 465.638 -24.4517 449.148 -2.46503C432.982 19.5216 420.048 40.0533 410.348 59.13C400.648 78.2066 395.798 92.11 395.798 100.84C395.798 109.247 398.87 113.45 405.013 113.45C417.3 113.45 434.437 105.852 456.423 90.655C478.733 75.4583 497.972 60.2616 514.138 45.065L537.903 22.27C539.843 20.33 541.46 19.36 542.753 19.36C544.047 19.36 544.693 19.845 544.693 20.815C544.693 21.4616 543.723 22.755 541.783 24.695L532.568 33.91C528.365 38.1133 520.12 45.55 507.833 56.22C495.547 66.89 483.907 76.2666 472.913 84.35C462.243 92.4333 450.603 99.87 437.993 106.66C425.383 113.45 415.037 116.845 406.953 116.845C391.11 116.845 383.188 108.6 383.188 92.11C383.188 79.1766 387.877 62.8483 397.253 43.125C406.953 23.4016 420.048 3.03163 436.538 -17.985C453.352 -39.325 471.782 -59.3717 491.828 -78.125C511.875 -96.8784 533.862 -112.237 557.788 -124.2C582.038 -136.163 604.51 -142.145 625.203 -142.145C646.22 -142.145 656.728 -133.577 656.728 -116.44C656.728 -93.4834 648.807 -66.97 632.963 -36.9C617.12 -6.83004 597.882 22.27 575.248 50.4C552.938 78.2066 530.467 105.043 507.833 130.91C485.523 156.453 466.447 179.41 450.603 199.78C434.76 219.827 426.838 233.892 426.838 241.975C426.838 243.592 427.647 244.4 429.263 244.4C442.843 244.4 474.045 224.515 522.868 184.745C571.692 144.652 616.958 104.72 658.668 64.95L721.718 5.29496C748.555 -21.5417 771.512 -46.115 790.588 -68.4251C809.665 -91.0584 820.012 -103.183 821.628 -104.8C825.832 -110.943 829.712 -114.015 833.268 -114.015C836.825 -114.015 840.22 -113.368 843.453 -112.075C846.687 -111.105 848.303 -109.973 848.303 -108.68C848.303 -105.447 823.568 -73.2751 774.098 -12.1651C724.952 48.6216 699.732 79.985 698.438 81.925C697.145 83.5416 691.002 90.9783 680.008 104.235C669.015 117.492 658.668 130.425 648.968 143.035C639.268 155.322 629.083 168.74 618.413 183.29C594.81 215.623 583.008 236.963 583.008 247.31C583.008 250.543 584.463 252.16 587.373 252.16ZM873.727 248.765C886.014 248.765 899.594 238.903 914.467 219.18C929.341 199.457 943.082 175.207 955.692 146.43C968.302 117.33 979.942 87.4216 990.612 56.7049C1001.61 25.9883 1010.17 -1.3334 1016.32 -25.2601C1022.46 -49.5101 1025.53 -63.8984 1025.53 -68.4251C1025.53 -72.9517 1025.21 -75.2151 1024.56 -75.2151C1021.65 -75.2151 1003.22 -57.2701 969.272 -21.3801C935.322 14.1866 908.324 41.9933 888.277 62.0399C868.231 82.0866 844.789 104.397 817.952 128.97C762.339 179.41 698.966 224.192 627.832 263.315C625.892 264.285 623.952 264.77 622.012 264.77C620.072 264.77 619.102 264.123 619.102 262.83C619.102 261.537 620.234 260.405 622.497 259.435C670.351 234.862 717.719 203.337 764.602 164.86C812.779 125.09 851.741 90.17 881.487 60.1C911.234 29.7066 933.867 6.26494 949.387 -10.2251C964.907 -26.7151 983.337 -46.4384 1004.68 -69.3951C1026.34 -92.3517 1042.83 -109.812 1054.15 -121.775C1056.09 -123.715 1057.7 -124.685 1059 -124.685C1060.29 -124.685 1060.94 -123.715 1060.94 -121.775C1060.94 -111.752 1057.87 -92.9984 1051.72 -65.5151C1045.58 -38.0317 1036.53 -6.02173 1024.56 30.5149C1012.6 66.7283 999.181 101.648 984.307 135.275C969.434 168.902 951.812 197.355 931.442 220.635C911.072 243.592 890.702 255.07 870.332 255.07C857.722 255.07 847.699 248.442 840.262 235.185C833.149 222.252 829.592 205.277 829.592 184.26C829.592 162.92 834.766 143.358 845.112 125.575C847.699 121.048 849.962 118.785 851.902 118.785C853.519 118.785 854.651 120.078 855.297 122.665C852.064 128.162 849.154 137.7 846.567 151.28C843.981 164.537 842.687 177.955 842.687 191.535C842.687 229.688 853.034 248.765 873.727 248.765ZM1375.96 -130.505C1375.96 -133.415 1374.35 -134.87 1371.11 -134.87C1358.5 -134.87 1329.08 -110.62 1282.84 -62.1201C1304.83 -66.0001 1325.85 -76.1851 1345.89 -92.6751C1365.94 -109.165 1375.96 -121.775 1375.96 -130.505ZM1090.78 -87.8251C1090.78 -79.0951 1081.73 -65.1917 1063.62 -46.1151C1045.84 -27.3617 1030.64 -17.9851 1018.03 -17.9851C1008.98 -17.9851 1004.45 -22.0267 1004.45 -30.1101C1004.45 -45.9534 1016.9 -64.5451 1041.8 -85.8851C1066.7 -107.548 1094.34 -118.38 1124.73 -118.38C1135.08 -118.38 1148.01 -114.015 1163.53 -105.285C1179.05 -96.8784 1195.71 -87.8251 1213.49 -78.1251C1231.6 -68.4251 1247.92 -62.7668 1262.47 -61.1501C1316.79 -114.823 1353.65 -141.66 1373.05 -141.66C1380.81 -141.66 1384.69 -138.75 1384.69 -132.93C1384.69 -121.613 1373.38 -107.063 1350.74 -89.2801C1328.43 -71.8201 1304.18 -60.9884 1277.99 -56.7851C1228.2 -3.75841 1174.37 59.9383 1116.49 134.305C1058.94 208.348 1030.16 250.22 1030.16 259.92C1030.16 260.89 1030.48 261.375 1031.13 261.375C1032.1 261.375 1033.07 261.052 1034.04 260.405C1035.33 259.758 1036.63 258.95 1037.92 257.98C1039.54 257.333 1040.83 256.687 1041.8 256.04C1042.77 255.393 1043.42 255.07 1043.74 255.07C1044.06 255.07 1044.22 255.555 1044.22 256.525C1044.22 260.082 1038.57 265.902 1027.25 273.985C1016.26 282.068 1008.66 286.11 1004.45 286.11C999.28 286.11 996.694 283.2 996.694 277.38C996.694 262.183 1025.79 217.078 1083.99 142.065C1142.52 67.0516 1199.91 1.25326 1256.17 -55.3301C1237.42 -55.6534 1220.44 -58.5634 1205.24 -64.0601C1190.37 -69.8801 1178.89 -76.0234 1170.81 -82.4901C1148.82 -99.9501 1127.32 -108.68 1106.3 -108.68C1085.61 -108.68 1065.89 -98.9801 1047.13 -79.5801C1028.38 -60.1801 1019 -44.3367 1019 -32.0501C1019 -28.1701 1020.62 -26.2301 1023.85 -26.2301C1032.91 -26.2301 1043.9 -33.1817 1056.83 -47.0851C1070.09 -60.9884 1079.31 -74.0834 1084.48 -86.3701C1086.1 -89.2801 1087.23 -90.7351 1087.87 -90.7351C1089.81 -90.7351 1090.78 -89.7651 1090.78 -87.8251Z"/>
</mask>
<path d="M75.3575 362.74L76.8335 364.09L76.8339 364.089L75.3575 362.74ZM241.227 167.77L242.787 169.022L240.121 166.104L241.227 167.77ZM104.457 272.045L105.766 273.558L105.776 273.549L104.457 272.045ZM-0.787522 390.87L-2.53361 389.895L-2.53584 389.899L-0.787522 390.87ZM-5.63752 378.745L-3.97342 379.854L-3.96882 379.848L-3.96428 379.841L-5.63752 378.745ZM65.6575 297.75L66.9972 299.235L67.0031 299.23L67.0089 299.224L65.6575 297.75ZM250.927 156.13L252.011 157.811L252.288 157.632L252.493 157.375L250.927 156.13ZM380.907 -18.955L379.25 -20.0742L379.248 -20.0718L380.907 -18.955ZM429.892 -127.595L428.692 -125.995L428.775 -125.933L428.863 -125.88L429.892 -127.595ZM330.952 -100.92L331.893 -99.1549L331.899 -99.158L330.952 -100.92ZM234.922 -35.93L236.205 -34.3949L236.214 -34.4033L234.922 -35.93ZM159.262 39.73L157.71 38.4688L159.262 39.73ZM211.642 97.93L210.72 96.1552L211.642 97.93ZM275.177 59.13L274.001 57.5125L273.994 57.5177L273.987 57.5229L275.177 59.13ZM301.852 39.73L302.286 37.7776L301.406 37.5819L300.676 38.1125L301.852 39.73ZM306.217 40.7L307.538 42.2023L310.497 39.6021L306.651 38.7476L306.217 40.7ZM230.557 94.05L229.557 92.3183L229.555 92.3191L230.557 94.05ZM188.362 113.935L189.065 115.808L189.075 115.804L189.086 115.8L188.362 113.935ZM146.652 34.88L148.288 36.031L148.295 36.0215L146.652 34.88ZM216.007 -42.72L217.351 -41.2386L217.36 -41.2471L216.007 -42.72ZM313.492 -108.68L314.381 -106.888L313.492 -108.68ZM434.257 -131.475L435.819 -132.724L434.257 -131.475ZM297.972 127.03L296.398 125.797L299.019 128.734L297.972 127.03ZM336.287 110.54L337.1 112.368L337.306 112.276L337.487 112.14L336.287 110.54ZM290.697 136.245L289.654 134.539L289.352 134.724L289.132 135L290.697 136.245ZM96.2125 356.435L97.6368 357.839H97.6368L96.2125 356.435ZM-19.7625 445.675C-19.7625 446.514 -19.6154 447.508 -18.9988 448.33C-18.301 449.26 -17.2805 449.615 -16.3075 449.615L-16.3075 445.615C-16.3299 445.615 -16.2551 445.611 -16.1318 445.666C-15.9969 445.726 -15.879 445.823 -15.7988 445.93C-15.727 446.026 -15.7205 446.082 -15.7313 446.039C-15.7427 445.993 -15.7625 445.88 -15.7625 445.675L-19.7625 445.675ZM-16.3075 449.615C-14.6893 449.615 -12.8632 449.022 -10.93 448.09C-8.95917 447.14 -6.69418 445.746 -4.14786 443.942C0.946848 440.333 7.33502 434.961 15 427.864C30.3388 413.661 50.9549 392.394 76.8335 364.09L73.8814 361.39C48.0267 389.669 27.4987 410.84 12.2824 424.929C4.66994 431.977 -1.57209 437.215 -6.4603 440.678C-8.90544 442.411 -10.9701 443.669 -12.6671 444.487C-14.4017 445.324 -15.5816 445.615 -16.3075 445.615L-16.3075 449.615ZM76.8339 364.089C128.279 307.791 183.597 242.768 242.787 169.022L239.668 166.518C180.518 240.212 125.256 305.169 73.8811 361.391L76.8339 364.089ZM240.121 166.104C190.904 198.807 145.243 233.619 103.139 270.541L105.776 273.549C147.739 236.751 193.258 202.046 242.334 169.436L240.121 166.104ZM103.149 270.532C52.9508 313.93 17.6747 353.715 -2.53361 389.895L0.958564 391.845C20.8436 356.245 55.7308 316.814 105.765 273.558L103.149 270.532ZM-2.53584 389.899C-13.9493 410.443 -19.7625 429.051 -19.7625 445.675L-15.7625 445.675C-15.7625 429.966 -10.2591 412.037 0.960792 391.841L-2.53584 389.899ZM-27.9475 456.285C-29.0949 456.285 -29.6538 455.939 -29.9998 455.489C-30.4222 454.94 -30.7975 453.881 -30.7975 451.98L-34.7975 451.98C-34.7975 454.282 -34.3645 456.376 -33.1703 457.928C-31.8996 459.58 -30.0335 460.285 -27.9475 460.285L-27.9475 456.285ZM-30.7975 451.98C-30.7975 430.865 -21.965 406.842 -3.97342 379.854L-7.30162 377.636C-25.5233 404.968 -34.7975 429.769 -34.7975 451.98L-30.7975 451.98ZM-3.96428 379.841C13.7061 352.853 37.3495 325.982 66.9972 299.235L64.3178 296.265C34.4721 323.191 10.5855 350.317 -7.31075 377.649L-3.96428 379.841ZM67.0089 299.224C121.237 249.516 182.902 202.377 252.011 157.811L249.844 154.449C180.566 199.123 118.718 246.398 64.306 296.276L67.0089 299.224ZM252.493 157.375C305.217 91.0647 348.578 32.6589 382.567 -17.8383L379.248 -20.0718C345.337 30.3111 302.044 88.6286 249.362 154.885L252.493 157.375ZM382.565 -17.8359C399.722 -43.2476 412.623 -64.338 421.243 -81.09C429.81 -97.738 434.317 -110.411 434.317 -118.865L430.317 -118.865C430.317 -111.476 426.257 -99.5754 417.687 -82.9201C409.17 -66.3687 396.366 -45.4258 379.25 -20.0742L382.565 -17.8359ZM434.317 -118.865C434.317 -121.376 434.111 -123.518 433.638 -125.22C433.176 -126.885 432.369 -128.441 430.921 -129.31L428.863 -125.88C429.032 -125.779 429.438 -125.395 429.784 -124.15C430.12 -122.942 430.317 -121.204 430.317 -118.865L434.317 -118.865ZM431.092 -129.195C430.011 -130.006 428.395 -130.418 426.659 -130.666C424.829 -130.928 422.501 -131.05 419.707 -131.05L419.707 -127.05C422.41 -127.05 424.528 -126.93 426.093 -126.706C427.753 -126.469 428.48 -126.154 428.692 -125.995L431.092 -129.195ZM419.707 -131.05C394.981 -131.05 365.053 -121.503 330.006 -102.682L331.899 -99.158C366.692 -117.843 395.934 -127.05 419.707 -127.05L419.707 -131.05ZM330.012 -102.685C295.292 -84.1896 263.164 -62.4467 233.631 -37.4568L236.214 -34.4033C265.527 -59.2066 297.419 -80.7905 331.893 -99.1549L330.012 -102.685ZM233.64 -37.4651C204.133 -12.8213 178.819 12.4888 157.71 38.4688L160.815 40.9912C181.739 15.2378 206.865 -9.89202 236.204 -34.395L233.64 -37.4651ZM157.71 38.4688C147.155 51.4601 139.187 63.0102 133.85 73.1093C128.528 83.1812 125.737 91.9661 125.737 99.385L129.737 99.385C129.737 92.9006 132.201 84.7914 137.387 74.9782C142.558 65.1923 150.353 53.8665 160.815 40.9912L157.71 38.4688ZM125.737 99.385C125.737 105.834 127.856 110.974 132.336 114.428C136.718 117.805 143.056 119.33 151.017 119.33L151.017 115.33C143.459 115.33 138.157 113.864 134.778 111.26C131.499 108.732 129.737 104.899 129.737 99.385L125.737 99.385ZM151.017 119.33C167.023 119.33 187.578 112.685 212.564 99.7048L210.72 96.1552C185.913 109.042 166.052 115.33 151.017 115.33L151.017 119.33ZM212.564 99.7048C237.529 86.736 258.803 73.7484 276.368 60.7371L273.987 57.5229C256.632 70.3783 235.549 83.2573 210.72 96.1552L212.564 99.7048ZM276.354 60.7475L303.029 41.3474L300.676 38.1125L274.001 57.5125L276.354 60.7475ZM301.419 41.6824L305.784 42.6524L306.651 38.7476L302.286 37.7776L301.419 41.6824ZM304.897 39.1977C283.672 57.8501 258.563 75.5591 229.557 92.3183L231.558 95.7817C260.752 78.9142 286.083 61.0565 307.538 42.2023L304.897 39.1977ZM229.555 92.3191C217.374 99.3718 203.405 105.957 187.639 112.07L189.086 115.8C205.007 109.626 219.168 102.955 231.56 95.7808L229.555 92.3191ZM187.66 112.062C172.277 117.831 158.944 120.665 147.622 120.665L147.622 124.665C159.581 124.665 173.408 121.679 189.065 115.808L187.66 112.062ZM147.622 120.665C138.319 120.665 131.714 118.687 127.454 115.077C123.258 111.52 121.007 106.095 121.007 98.415L117.007 98.415C117.007 106.901 119.527 113.601 124.868 118.128C130.146 122.601 137.849 124.665 147.622 124.665L147.622 120.665ZM121.007 98.415C121.007 82.9026 129.901 62.1599 148.288 36.031L145.017 33.729C126.544 59.98 117.007 81.594 117.007 98.415L121.007 98.415ZM148.295 36.0215C166.626 9.65057 189.639 -16.1042 217.351 -41.2386L214.664 -44.2015C186.763 -18.8958 163.539 7.08273 145.01 33.7384L148.295 36.0215ZM217.36 -41.2471C245.015 -66.6507 277.35 -88.5337 314.381 -106.888L312.604 -110.472C275.268 -91.9663 242.613 -69.876 214.654 -44.1929L217.36 -41.2471ZM314.381 -106.888C351.361 -125.217 385.976 -134.325 418.252 -134.325L418.252 -138.325C385.216 -138.325 349.991 -129.003 312.604 -110.472L314.381 -106.888ZM418.252 -134.325C426.254 -134.325 430.726 -132.687 432.696 -130.226L435.819 -132.724C432.615 -136.729 426.417 -138.325 418.252 -138.325L418.252 -134.325ZM432.696 -130.226C434.832 -127.555 436.137 -122.498 436.137 -114.5L440.137 -114.5C440.137 -122.669 438.856 -128.928 435.819 -132.724L432.696 -130.226ZM436.137 -114.5C436.137 -94.2259 424.719 -64.079 401.366 -23.8389C378.072 16.3024 343.093 66.1755 296.398 125.797L299.547 128.263C346.295 68.5745 381.399 18.5375 404.826 -21.8312C428.196 -62.1011 440.137 -93.0642 440.137 -114.5L436.137 -114.5ZM299.019 128.734C310.33 121.786 319.036 116.587 325.147 113.129C328.206 111.399 330.591 110.118 332.316 109.275C333.18 108.853 333.849 108.555 334.337 108.368C334.917 108.145 335.004 108.175 334.832 108.175L334.832 104.175C334.176 104.175 333.454 104.422 332.903 104.634C332.259 104.881 331.473 105.235 330.559 105.681C328.727 106.577 326.262 107.903 323.178 109.648C317.003 113.142 308.248 118.37 296.926 125.326L299.019 128.734ZM334.832 108.175C335.332 108.175 335.728 108.202 336.035 108.246C336.348 108.291 336.519 108.346 336.591 108.377C336.663 108.408 336.561 108.381 336.437 108.221C336.29 108.033 336.227 107.807 336.227 107.63L340.227 107.63C340.227 106.968 340.023 106.318 339.594 105.766C339.187 105.242 338.66 104.912 338.167 104.7C337.223 104.296 336.046 104.175 334.832 104.175L334.832 108.175ZM336.227 107.63C336.227 107.647 336.21 108.098 335.087 108.94L337.487 112.14C338.952 111.042 340.227 109.553 340.227 107.63L336.227 107.63ZM335.475 108.712C326.609 112.653 311.308 121.288 289.654 134.539L291.741 137.951C313.413 124.689 328.506 116.187 337.1 112.368L335.475 108.712ZM289.132 135C226.447 213.841 161.666 287.184 94.7881 355.031L97.6368 357.839C164.619 289.886 229.495 216.435 292.263 137.49L289.132 135ZM94.7881 355.031C61.3408 388.963 34.3191 414.367 13.7065 431.276C3.39712 439.733 -5.26526 446.029 -12.296 450.199C-19.4121 454.421 -24.5662 456.285 -27.9475 456.285L-27.9475 460.285C-23.4071 460.285 -17.4467 457.906 -10.2552 453.64C-2.97853 449.323 5.85951 442.887 16.2434 434.369C37.0175 417.328 64.1541 391.807 97.6368 357.839L94.7881 355.031ZM729.963 171.65L728.901 169.955L728.874 169.972L728.848 169.99L729.963 171.65ZM762.458 151.28L761.466 149.543L761.431 149.564L761.396 149.585L762.458 151.28ZM772.158 152.25L773.201 153.957L773.235 153.936L773.268 153.914L772.158 152.25ZM737.238 173.59L736.195 171.883L736.162 171.904L736.129 171.926L737.238 173.59ZM708.138 193.475L709.248 195.139L709.26 195.131L709.273 195.122L708.138 193.475ZM672.733 216.755L671.652 215.073L672.733 216.755ZM640.723 236.64L641.735 238.365L641.747 238.358L641.759 238.351L640.723 236.64ZM583.978 257.98L583.73 259.965L583.854 259.98L583.978 259.98L583.978 257.98ZM591.738 201.235L593.509 202.164L591.738 201.235ZM628.598 140.61L626.962 139.46L626.956 139.468L626.95 139.477L628.598 140.61ZM708.138 32.9399L709.728 34.1533L709.736 34.1434L709.743 34.1334L708.138 32.9399ZM679.038 51.37L680.398 52.8368L680.407 52.8279L679.038 51.37ZM591.253 132.365L589.9 130.893L591.253 132.365ZM494.253 213.845L495.456 215.443L495.466 215.435L494.253 213.845ZM501.043 108.115L499.499 106.844L501.043 108.115ZM568.943 25.18L567.392 23.9174L567.392 23.9174L568.943 25.18ZM626.658 -55.8151L628.369 -54.7798L628.375 -54.7891L626.658 -55.8151ZM646.543 -130.505L645.129 -129.091L645.129 -129.091L646.543 -130.505ZM637.813 -135.355L637.379 -133.403L637.4 -133.398L637.421 -133.394L637.813 -135.355ZM624.718 -136.81L624.829 -138.807L624.756 -138.811L624.682 -138.81L624.718 -136.81ZM565.063 -115.955L566.096 -114.242L566.105 -114.248L566.114 -114.253L565.063 -115.955ZM502.983 -65.515L504.42 -64.1242L504.426 -64.1299L504.431 -64.1357L502.983 -65.515ZM449.148 -2.46503L447.548 -3.66503L447.542 -3.65745L447.537 -3.6498L449.148 -2.46503ZM410.348 59.13L412.131 60.0365L410.348 59.13ZM456.423 90.655L455.297 89.002L455.286 89.0097L456.423 90.655ZM514.138 45.065L515.508 46.5222L515.515 46.5153L515.523 46.5083L514.138 45.065ZM537.903 22.27L539.288 23.7133L539.303 23.6989L539.317 23.6842L537.903 22.27ZM507.833 56.22L509.145 57.73L509.145 57.73L507.833 56.22ZM472.913 84.35L471.728 82.7387L471.717 82.7471L471.705 82.7558L472.913 84.35ZM437.993 106.66L437.045 104.899L437.993 106.66ZM397.253 43.125L395.458 42.2423L395.453 42.2543L395.447 42.2662L397.253 43.125ZM436.538 -17.985L434.967 -19.2228L434.965 -19.2196L436.538 -17.985ZM491.828 -78.125L493.194 -76.6645L491.828 -78.125ZM557.788 -124.2L556.903 -125.994L556.894 -125.989L557.788 -124.2ZM632.963 -36.9L631.194 -37.8323L632.963 -36.9ZM575.248 50.4L573.69 49.1462L573.688 49.1484L575.248 50.4ZM507.833 130.91L506.328 129.593L506.327 129.594L507.833 130.91ZM450.603 199.78L452.172 201.02L452.177 201.014L452.182 201.008L450.603 199.78ZM522.868 184.745L524.131 186.296L524.137 186.291L522.868 184.745ZM658.668 64.9499L657.294 63.4972L657.288 63.5025L658.668 64.9499ZM721.718 5.29496L723.093 6.74775L723.113 6.72874L723.132 6.70918L721.718 5.29496ZM790.588 -68.425L792.108 -67.1253L792.113 -67.1307L792.117 -67.1361L790.588 -68.425ZM821.628 -104.8L823.042 -103.386L823.174 -103.517L823.279 -103.671L821.628 -104.8ZM843.453 -112.075L842.71 -110.218L842.793 -110.185L842.878 -110.159L843.453 -112.075ZM774.098 -12.165L772.544 -13.4234L772.543 -13.4225L774.098 -12.165ZM698.438 81.925L700 83.1743L700.054 83.1066L700.102 83.0344L698.438 81.925ZM680.008 104.235L678.469 102.958L680.008 104.235ZM648.968 143.035L650.538 144.274L650.546 144.264L650.553 144.254L648.968 143.035ZM618.413 183.29L616.8 182.107L616.798 182.111L618.413 183.29ZM587.373 254.16C591.615 254.16 597.764 252.328 605.62 248.967C613.556 245.572 623.488 240.501 635.402 233.774C659.233 220.318 691.131 200.157 731.079 173.31L728.848 169.99C688.932 196.816 657.133 216.91 633.435 230.291C621.583 236.983 611.793 241.975 604.046 245.289C596.221 248.638 590.729 250.16 587.373 250.16L587.373 254.16ZM731.025 173.345L763.52 152.975L761.396 149.585L728.901 169.955L731.025 173.345ZM763.45 153.016C765.414 151.894 767.497 151.34 769.733 151.34L769.733 147.34C766.796 147.34 764.029 148.079 761.466 149.543L763.45 153.016ZM769.733 151.34C770.986 151.34 771.756 151.422 772.158 151.523C772.369 151.576 772.317 151.595 772.171 151.486C771.968 151.334 771.613 150.934 771.613 150.31L775.613 150.31C775.613 149.363 775.096 148.68 774.571 148.286C774.101 147.934 773.564 147.751 773.128 147.642C772.237 147.419 771.067 147.34 769.733 147.34L769.733 151.34ZM771.613 150.31C771.613 150.102 771.698 150.015 771.649 150.08C771.589 150.161 771.421 150.338 771.049 150.586L773.268 153.914C774.358 153.187 775.613 152.018 775.613 150.31L771.613 150.31ZM771.115 150.543L736.195 171.883L738.281 175.297L773.201 153.957L771.115 150.543ZM736.129 171.926C731.264 175.169 721.551 181.806 707.004 191.828L709.273 195.122C723.825 185.097 733.512 178.478 738.348 175.254L736.129 171.926ZM707.029 191.811C692.483 201.508 680.692 209.261 671.652 215.073L673.815 218.437C682.881 212.609 694.693 204.842 709.248 195.139L707.029 191.811ZM671.652 215.073C662.618 220.88 651.964 227.499 639.688 234.929L641.759 238.351C654.056 230.908 664.742 224.27 673.815 218.437L671.652 215.073ZM639.711 234.915C615.504 249.116 596.987 255.98 583.978 255.98L583.978 259.98C598.129 259.98 617.442 252.617 641.735 238.365L639.711 234.915ZM584.226 255.995C582.295 255.754 580.903 254.814 579.909 253.013C578.851 251.095 578.218 248.132 578.218 243.915L574.218 243.915C574.218 248.428 574.878 252.174 576.407 254.945C578 257.832 580.488 259.559 583.73 259.965L584.226 255.995ZM578.218 243.915C578.218 239.894 579.421 234.412 581.978 227.381C584.523 220.381 588.36 211.98 593.509 202.164L589.967 200.306C584.77 210.214 580.847 218.787 578.219 226.014C575.602 233.21 574.218 239.206 574.218 243.915L578.218 243.915ZM593.509 202.164C603.815 182.519 616.059 162.379 630.246 141.743L626.95 139.477C612.684 160.228 600.355 180.504 589.967 200.306L593.509 202.164ZM630.234 141.76C644.773 121.083 659.311 101.053 673.848 81.6699L670.648 79.27C656.085 98.687 641.523 118.75 626.962 139.46L630.234 141.76ZM673.848 81.6699C688.397 62.2722 700.356 46.4338 709.728 34.1533L706.548 31.7266C697.167 44.0195 685.2 59.8677 670.648 79.27L673.848 81.6699ZM709.743 34.1334C714.434 27.8249 717.886 23.0737 720.089 19.8921C721.185 18.3092 721.997 17.0773 722.501 16.2231C722.741 15.8173 722.968 15.4009 723.107 15.0385C723.156 14.911 723.307 14.52 723.295 14.0476C723.289 13.7961 723.23 13.2531 722.806 12.7515C722.322 12.1801 721.68 12.0249 721.233 12.0249L721.233 16.0249C720.826 16.0249 720.215 15.8821 719.752 15.3353C719.349 14.8584 719.302 14.3523 719.296 14.1501C719.291 13.926 719.328 13.7635 719.342 13.71C719.358 13.6426 719.374 13.6034 719.374 13.6025C719.374 13.6023 719.355 13.651 719.295 13.7653C719.239 13.8733 719.16 14.014 719.056 14.1912C718.63 14.9132 717.887 16.0457 716.8 17.6153C714.638 20.7387 711.219 25.445 706.533 31.7465L709.743 34.1334ZM721.233 12.0249C720.635 12.0249 720.125 12.2665 719.904 12.3752C719.599 12.5246 719.273 12.721 718.944 12.9378C718.28 13.375 717.44 14.001 716.443 14.7926C714.441 16.3823 711.671 18.7444 708.146 21.8635C701.091 28.1077 690.93 37.4602 677.669 49.912L680.407 52.8279C693.66 40.3831 703.788 31.063 710.797 24.8589C714.306 21.7538 717.012 19.4478 718.93 17.9255C719.893 17.161 720.625 16.6199 721.143 16.2791C721.405 16.1069 721.573 16.0115 721.665 15.9665C721.84 15.8807 721.629 16.0249 721.233 16.0249L721.233 12.0249ZM677.679 49.9031C651.168 74.4742 621.908 101.471 589.9 130.893L592.607 133.837C624.618 104.413 653.882 77.4124 680.398 52.8368L677.679 49.9031ZM589.9 130.893C557.932 160.277 525.646 187.397 493.041 212.254L495.466 215.435C528.174 190.5 560.554 163.3 592.607 133.837L589.9 130.893ZM493.051 212.247C476.76 224.505 463.064 233.657 451.947 239.735C440.752 245.857 432.443 248.705 426.838 248.705L426.838 252.705C433.52 252.705 442.59 249.41 453.866 243.245C465.221 237.036 479.09 227.758 495.456 215.443L493.051 212.247ZM426.838 248.705C424.756 248.705 423.552 248.156 422.841 247.397C422.107 246.614 421.563 245.254 421.563 242.945L417.563 242.945C417.563 245.809 418.232 248.329 419.923 250.133C421.637 251.961 424.071 252.705 426.838 252.705L426.838 248.705ZM421.563 242.945C421.563 231.58 428.077 214.778 441.645 192.327C455.154 169.973 475.456 142.332 502.587 109.386L499.499 106.844C472.311 139.858 451.873 167.668 438.221 190.258C424.629 212.75 417.563 230.384 417.563 242.945L421.563 242.945ZM502.587 109.386C525.223 81.9001 547.859 54.2521 570.494 26.4425L567.392 23.9174C544.761 51.7211 522.13 79.3632 499.499 106.844L502.587 109.386ZM570.494 26.4425C593.177 -1.42428 612.471 -28.4984 628.369 -54.7799L624.947 -56.8503C609.159 -30.7517 589.976 -3.82913 567.392 23.9174L570.494 26.4425ZM628.375 -54.7891C644.263 -81.3764 652.423 -103.106 652.423 -119.835L648.423 -119.835C648.423 -104.23 640.741 -83.2804 624.941 -56.841L628.375 -54.7891ZM652.423 -119.835C652.423 -124.759 651.004 -128.873 647.957 -131.919L645.129 -129.091C647.256 -126.964 648.423 -123.965 648.423 -119.835L652.423 -119.835ZM647.957 -131.919C645.123 -134.753 641.868 -136.584 638.205 -137.316L637.421 -133.394C640.225 -132.833 642.79 -131.43 645.129 -129.091L647.957 -131.919ZM638.247 -137.307C635.173 -137.991 630.676 -138.482 624.829 -138.807L624.607 -134.813C630.401 -134.491 634.633 -134.013 637.379 -133.403L638.247 -137.307ZM624.682 -138.81C606.413 -138.478 586.174 -131.345 564.012 -117.657L566.114 -114.253C587.925 -127.725 607.457 -134.496 624.755 -134.81L624.682 -138.81ZM564.03 -117.668C541.877 -104.311 521.046 -87.3813 501.535 -66.8944L504.431 -64.1357C523.72 -84.3888 544.276 -101.086 566.096 -114.242L564.03 -117.668ZM501.546 -66.9059C482.089 -46.8 464.089 -25.7196 447.548 -3.66503L450.748 -1.26502C467.187 -23.1837 485.078 -44.1368 504.42 -64.1242L501.546 -66.9059ZM447.537 -3.6498C431.322 18.4021 418.326 39.0273 408.565 58.2235L412.131 60.0365C421.77 41.0793 434.641 20.6412 450.759 -1.28025L447.537 -3.6498ZM408.565 58.2235C403.691 67.8095 400.012 76.1411 397.547 83.2062C395.092 90.2451 393.798 96.1486 393.798 100.84L397.798 100.84C397.798 96.8013 398.929 91.3882 401.324 84.5237C403.71 77.6855 407.305 69.5271 412.131 60.0365L408.565 58.2235ZM393.798 100.84C393.798 105.228 394.589 108.88 396.487 111.478C398.47 114.192 401.434 115.45 405.013 115.45L405.013 111.45C402.449 111.45 400.805 110.607 399.717 109.117C398.543 107.511 397.798 104.859 397.798 100.84L393.798 100.84ZM405.013 115.45C417.967 115.45 435.552 107.512 457.56 92.3002L455.286 89.0097C433.321 104.191 416.632 111.45 405.013 111.45L405.013 115.45ZM457.549 92.3079C479.928 77.0646 499.251 61.8037 515.508 46.5222L512.768 43.6077C496.692 58.7195 477.539 73.852 455.297 89.002L457.549 92.3079ZM515.523 46.5083L539.288 23.7133L536.519 20.8266L512.754 43.6216L515.523 46.5083ZM539.317 23.6842C540.219 22.7824 540.979 22.1747 541.6 21.8024C542.231 21.4238 542.598 21.36 542.753 21.36L542.753 17.36C541.615 17.36 540.527 17.7811 539.542 18.3725C538.545 18.9702 537.527 19.8175 536.489 20.8557L539.317 23.6842ZM542.753 21.36C542.958 21.36 543.071 21.3798 543.117 21.3912C543.16 21.402 543.104 21.3955 543.008 21.3237C542.901 21.2435 542.804 21.1256 542.744 20.9907C542.69 20.8674 542.693 20.7925 542.693 20.815L546.693 20.815C546.693 19.842 546.338 18.8214 545.408 18.1237C544.586 17.5071 543.592 17.36 542.753 17.36L542.753 21.36ZM542.693 20.815C542.693 20.5235 542.787 20.3975 542.722 20.5268C542.674 20.6236 542.568 20.8008 542.366 21.07C541.963 21.6067 541.311 22.3385 540.369 23.2808L543.197 26.1092C544.195 25.1115 544.998 24.2265 545.566 23.47C545.849 23.0924 546.106 22.7038 546.3 22.3156C546.478 21.9599 546.693 21.4298 546.693 20.815L542.693 20.815ZM540.369 23.2808L531.154 32.4958L533.982 35.3242L543.197 26.1092L540.369 23.2808ZM531.154 32.4958C527.007 36.6423 518.814 44.0354 506.522 54.7099L509.145 57.73C521.426 47.0646 529.722 39.5843 533.982 35.3242L531.154 32.4958ZM506.522 54.7099C494.268 65.351 482.671 74.6927 471.728 82.7387L474.098 85.9613C485.142 77.8405 496.825 68.429 509.145 57.73L506.522 54.7099ZM471.705 82.7558C461.123 90.7728 449.571 98.1545 437.045 104.899L438.941 108.421C451.636 101.585 463.363 94.0938 474.121 85.9442L471.705 82.7558ZM437.045 104.899C424.533 111.636 414.54 114.845 406.953 114.845L406.953 118.845C415.533 118.845 426.233 115.264 438.941 108.421L437.045 104.899ZM406.953 114.845C399.361 114.845 394.029 112.874 390.572 109.276C387.1 105.663 385.188 100.066 385.188 92.11L381.188 92.11C381.188 100.644 383.237 107.415 387.687 112.047C392.152 116.694 398.702 118.845 406.953 118.845L406.953 114.845ZM385.188 92.11C385.188 79.6112 389.734 63.5993 399.059 43.9837L395.447 42.2662C386.019 62.0972 381.188 78.742 381.188 92.11L385.188 92.11ZM399.048 44.0076C408.675 24.4322 421.69 4.17936 438.112 -16.7505L434.965 -19.2196C418.407 1.88391 405.231 22.3711 395.458 42.2423L399.048 44.0076ZM438.109 -16.7473C454.859 -38.0071 473.221 -57.9794 493.194 -76.6645L490.462 -79.5856C470.342 -60.764 451.844 -40.6429 434.967 -19.2228L438.109 -16.7473ZM493.194 -76.6645C513.104 -95.2897 534.933 -110.536 558.683 -122.411L556.894 -125.989C532.79 -113.937 510.645 -98.467 490.462 -79.5856L493.194 -76.6645ZM558.673 -122.406C582.729 -134.274 604.896 -140.145 625.203 -140.145L625.203 -144.145C604.124 -144.145 581.347 -138.053 556.903 -125.994L558.673 -122.406ZM625.203 -140.145C635.491 -140.145 642.836 -138.04 647.583 -134.169C652.252 -130.362 654.728 -124.58 654.728 -116.44L658.728 -116.44C658.728 -125.437 655.95 -132.508 650.111 -137.269C644.35 -141.966 635.932 -144.145 625.203 -144.145L625.203 -140.145ZM654.728 -116.44C654.728 -93.927 646.953 -67.7425 631.194 -37.8323L634.733 -35.9678C650.66 -66.1976 658.728 -93.0398 658.728 -116.44L654.728 -116.44ZM631.194 -37.8323C615.414 -7.88283 596.248 21.1102 573.69 49.1462L576.806 51.6537C599.515 23.4298 618.826 -5.77727 634.733 -35.9678L631.194 -37.8323ZM573.688 49.1484C551.395 76.9337 528.942 103.748 506.328 129.593L509.338 132.227C531.991 106.338 554.481 79.4796 576.808 51.6516L573.688 49.1484ZM506.327 129.594C483.999 155.158 464.897 178.145 449.024 198.552L452.182 201.008C467.996 180.675 487.047 157.749 509.34 132.226L506.327 129.594ZM449.034 198.54C441.08 208.604 435.069 217.223 431.037 224.382C427.044 231.471 424.838 237.39 424.838 241.975L428.838 241.975C428.838 238.477 430.593 233.322 434.522 226.345C438.411 219.44 444.283 211.003 452.172 201.02L449.034 198.54ZM424.838 241.975C424.838 243.092 425.119 244.296 426.03 245.208C426.942 246.119 428.147 246.4 429.263 246.4L429.263 242.4C428.763 242.4 428.755 242.276 428.859 242.38C428.962 242.483 428.838 242.475 428.838 241.975L424.838 241.975ZM429.263 246.4C433.08 246.4 437.884 245.022 443.564 242.499C449.286 239.959 456.078 236.174 463.924 231.173C479.62 221.17 499.695 206.201 524.131 186.296L521.605 183.194C497.218 203.059 477.28 217.918 461.775 227.8C454.02 232.741 447.414 236.413 441.941 238.844C436.426 241.293 432.237 242.4 429.263 242.4L429.263 246.4ZM524.137 186.291C572.995 146.169 618.299 106.205 660.048 66.3974L657.288 63.5025C615.617 103.235 570.388 143.134 521.599 183.199L524.137 186.291ZM660.043 66.4027L723.093 6.74775L720.344 3.84217L657.294 63.4972L660.043 66.4027ZM723.132 6.70918C749.996 -20.1543 772.99 -44.7663 792.108 -67.1253L789.068 -69.7248C770.033 -47.4638 747.114 -22.9292 720.304 3.88075L723.132 6.70918ZM792.117 -67.1361C811.247 -89.8323 821.505 -101.849 823.042 -103.386L820.214 -106.214C818.518 -104.518 808.083 -92.2845 789.059 -69.714L792.117 -67.1361ZM823.279 -103.671C825.318 -106.651 827.208 -108.778 828.932 -110.143C830.655 -111.507 832.088 -112.015 833.268 -112.015L833.268 -116.015C830.892 -116.015 828.606 -114.987 826.449 -113.279C824.294 -111.573 822.142 -109.092 819.978 -105.929L823.279 -103.671ZM833.268 -112.015C836.576 -112.015 839.718 -111.415 842.71 -110.218L844.196 -113.932C840.721 -115.322 837.074 -116.015 833.268 -116.015L833.268 -112.015ZM842.878 -110.159C844.414 -109.699 845.391 -109.247 845.944 -108.86C846.51 -108.464 846.303 -108.384 846.303 -108.68L850.303 -108.68C850.303 -110.27 849.288 -111.402 848.238 -112.137C847.173 -112.882 845.725 -113.481 844.028 -113.991L842.878 -110.159ZM846.303 -108.68C846.303 -108.948 846.382 -108.982 846.19 -108.557C846.04 -108.224 845.791 -107.753 845.422 -107.128C844.687 -105.885 843.561 -104.172 842.026 -101.975C838.96 -97.5868 834.345 -91.3811 828.166 -83.3454C815.815 -67.2799 797.276 -43.9751 772.544 -13.4234L775.653 -10.9067C800.39 -41.465 818.954 -64.8011 831.337 -80.9073C837.527 -88.9573 842.187 -95.2202 845.305 -99.6837C846.861 -101.912 848.054 -103.721 848.866 -105.094C849.27 -105.778 849.6 -106.389 849.836 -106.912C850.031 -107.344 850.303 -108.008 850.303 -108.68L846.303 -108.68ZM772.543 -13.4225C747.969 16.9712 729.376 40.0104 716.765 55.6941C710.459 63.5357 705.647 69.5406 702.33 73.7074C699.059 77.8153 697.159 80.2387 696.774 80.8155L700.102 83.0344C700.364 82.6412 702.101 80.4167 705.459 76.1988C708.77 72.0397 713.577 66.0409 719.882 58.2008C732.49 42.5212 751.08 19.4854 775.653 -10.9076L772.543 -13.4225ZM696.876 80.6756C695.597 82.2743 689.471 89.6909 678.469 102.958L681.548 105.512C692.532 92.2657 698.692 84.8089 700 83.1743L696.876 80.6756ZM678.469 102.958C667.461 116.232 657.099 129.185 647.383 141.816L650.553 144.254C660.237 131.665 670.569 118.751 681.548 105.512L678.469 102.958ZM647.398 141.796C637.682 154.103 627.482 167.541 616.8 182.107L620.026 184.473C630.684 169.939 640.855 156.54 650.538 144.274L647.398 141.796ZM616.798 182.111C604.974 198.308 596.068 211.803 590.109 222.577C587.13 227.964 584.868 232.706 583.347 236.791C581.834 240.852 581.008 244.382 581.008 247.31L585.008 247.31C585.008 245.065 585.657 242.048 587.095 238.187C588.524 234.35 590.688 229.796 593.61 224.513C599.453 213.947 608.249 200.605 620.029 184.469L616.798 182.111ZM581.008 247.31C581.008 249.186 581.426 250.966 582.613 252.285C583.836 253.645 585.552 254.16 587.373 254.16L587.373 250.16C586.284 250.16 585.818 249.867 585.586 249.61C585.318 249.312 585.008 248.667 585.008 247.31L581.008 247.31ZM914.468 219.18L916.064 220.384L914.468 219.18ZM955.692 146.43L957.524 147.233L957.528 147.225L955.692 146.43ZM990.612 56.7049L988.729 56.031L988.726 56.0398L988.723 56.0487L990.612 56.7049ZM1016.32 -25.2601L1018.25 -24.7627L1018.26 -24.7689L1016.32 -25.2601ZM969.272 -21.3801L970.719 -19.9991L970.725 -20.0057L969.272 -21.3801ZM817.952 128.97L819.296 130.451L819.303 130.445L817.952 128.97ZM627.832 263.315L628.727 265.104L628.762 265.086L628.796 265.067L627.832 263.315ZM622.497 259.435L623.285 261.273L623.349 261.246L623.411 261.214L622.497 259.435ZM764.602 164.86L765.871 166.406L765.876 166.402L764.602 164.86ZM881.487 60.1L882.909 61.5065L882.917 61.4989L881.487 60.1ZM949.387 -10.2251L950.844 -8.85433L949.387 -10.2251ZM1004.68 -69.3951L1003.22 -70.7677L1003.22 -70.7623L1003.21 -70.7568L1004.68 -69.3951ZM1054.15 -121.775L1052.73 -123.189L1052.71 -123.17L1052.69 -123.149L1054.15 -121.775ZM1051.72 -65.5151L1049.77 -65.9514L1051.72 -65.5151ZM1024.56 30.5149L1026.46 31.1423L1026.46 31.1373L1024.56 30.5149ZM984.308 135.275L986.137 136.084L984.308 135.275ZM931.442 220.635L932.939 221.962L932.948 221.952L931.442 220.635ZM840.262 235.185L838.51 236.149L838.514 236.156L838.518 236.163L840.262 235.185ZM845.112 125.575L846.841 126.581L846.845 126.574L846.849 126.567L845.112 125.575ZM855.297 122.665L857.021 123.679L857.436 122.974L857.238 122.18L855.297 122.665ZM846.567 151.28L848.53 151.663L848.532 151.654L846.567 151.28ZM873.727 250.765C880.423 250.765 887.294 248.077 894.303 242.987C901.309 237.899 908.559 230.337 916.064 220.384L912.871 217.976C905.503 227.747 898.526 234.977 891.952 239.75C885.381 244.522 879.319 246.765 873.727 246.765L873.727 250.765ZM916.064 220.384C931.053 200.508 944.868 176.115 957.524 147.233L953.861 145.627C941.297 174.298 927.629 198.405 912.871 217.976L916.064 220.384ZM957.528 147.225C970.158 118.078 981.816 88.1237 992.502 57.3612L988.723 56.0487C978.069 86.7196 966.447 116.581 953.857 145.635L957.528 147.225ZM992.496 57.3789C1003.5 26.6214 1012.09 -0.760996 1018.25 -24.7627L1014.38 -25.7575C1008.26 -1.9058 999.708 25.3552 988.729 56.031L992.496 57.3789ZM1018.26 -24.7689C1021.33 -36.904 1023.64 -46.5913 1025.18 -53.8213C1026.71 -60.9677 1027.53 -65.9113 1027.53 -68.4251L1023.53 -68.4251C1023.53 -66.4121 1022.82 -61.8983 1021.27 -54.6564C1019.74 -47.498 1017.45 -37.8661 1014.38 -25.7512L1018.26 -24.7689ZM1027.53 -68.4251C1027.53 -70.7103 1027.45 -72.5234 1027.27 -73.8004C1027.18 -74.4187 1027.05 -75.0509 1026.83 -75.5785C1026.68 -75.9156 1026.07 -77.2151 1024.56 -77.2151L1024.56 -73.2151C1023.99 -73.2151 1023.59 -73.4848 1023.38 -73.6947C1023.28 -73.7914 1023.22 -73.8763 1023.19 -73.9236C1023.16 -73.9722 1023.15 -74.0022 1023.15 -74.0028C1023.15 -74.0045 1023.15 -73.9893 1023.17 -73.9523C1023.18 -73.9159 1023.19 -73.8649 1023.21 -73.797C1023.24 -73.6593 1023.28 -73.4744 1023.31 -73.2347C1023.45 -72.2484 1023.53 -70.6665 1023.53 -68.4251L1027.53 -68.4251ZM1024.56 -77.2151C1023.94 -77.2151 1023.38 -76.9968 1023 -76.82C1022.57 -76.6219 1022.11 -76.3529 1021.64 -76.0426C1020.7 -75.42 1019.54 -74.5227 1018.18 -73.3811C1015.46 -71.0909 1011.78 -67.6863 1007.16 -63.1892C997.917 -54.1875 984.8 -40.7048 967.82 -22.7545L970.725 -20.0057C987.695 -37.9453 1000.77 -51.3801 1009.95 -60.3234C1014.55 -64.7989 1018.15 -68.1236 1020.76 -70.3197C1022.07 -71.4212 1023.09 -72.2062 1023.85 -72.7052C1024.23 -72.9557 1024.5 -73.1072 1024.67 -73.1895C1024.9 -73.2931 1024.82 -73.2151 1024.56 -73.2151L1024.56 -77.2151ZM967.826 -22.761C933.88 12.8013 906.894 40.5951 886.863 60.6257L889.692 63.4541C909.754 43.3914 936.765 15.5719 970.719 -19.9991L967.826 -22.761ZM886.863 60.6257C866.842 80.6468 843.423 102.936 816.602 127.495L819.303 130.445C846.156 105.857 869.619 83.5264 889.692 63.4541L886.863 60.6257ZM816.609 127.489C761.12 177.816 697.876 222.508 626.869 261.563L628.796 265.067C700.055 225.875 763.558 181.004 819.296 130.451L816.609 127.489ZM626.938 261.526C625.243 262.374 623.607 262.77 622.012 262.77L622.012 266.77C624.298 266.77 626.542 266.196 628.727 265.104L626.938 261.526ZM622.012 262.77C621.632 262.77 621.359 262.738 621.173 262.696C620.986 262.655 620.928 262.613 620.939 262.621C620.964 262.637 621.027 262.692 621.073 262.784C621.115 262.868 621.102 262.902 621.102 262.83L617.102 262.83C617.102 264.059 617.611 265.209 618.721 265.949C619.687 266.593 620.883 266.77 622.012 266.77L622.012 262.77ZM621.102 262.83C621.102 262.809 621.105 262.784 621.127 262.736C621.153 262.681 621.216 262.575 621.365 262.425C621.681 262.11 622.275 261.706 623.285 261.273L621.71 257.597C619.392 258.59 617.102 260.193 617.102 262.83L621.102 262.83ZM623.411 261.214C671.406 236.568 718.892 204.962 765.871 166.406L763.334 163.314C716.546 201.712 669.296 233.155 621.584 257.656L623.411 261.214ZM765.876 166.402C814.082 126.608 853.099 91.6409 882.909 61.5065L880.066 58.6934C850.383 88.699 811.476 123.572 763.329 163.318L765.876 166.402ZM882.917 61.4989C912.666 31.1028 935.31 7.65007 950.844 -8.85433L947.931 -11.5958C932.425 4.87982 909.802 28.3105 880.058 58.701L882.917 61.4989ZM950.844 -8.85433C966.368 -25.3482 984.801 -45.0747 1006.14 -68.0334L1003.21 -70.7568C981.874 -47.8021 963.447 -28.0819 947.931 -11.5958L950.844 -8.85433ZM1006.13 -68.0224C1027.8 -90.9789 1044.28 -108.438 1055.6 -120.401L1052.69 -123.149C1041.38 -111.185 1024.89 -93.7245 1003.22 -70.7677L1006.13 -68.0224ZM1055.56 -120.361C1056.46 -121.263 1057.22 -121.87 1057.84 -122.243C1058.48 -122.621 1058.84 -122.685 1059 -122.685L1059 -126.685C1057.86 -126.685 1056.77 -126.264 1055.79 -125.673C1054.79 -125.075 1053.77 -124.228 1052.73 -123.189L1055.56 -120.361ZM1059 -122.685C1059.07 -122.685 1059.04 -122.672 1058.95 -122.714C1058.86 -122.76 1058.8 -122.823 1058.79 -122.848C1058.78 -122.859 1058.82 -122.801 1058.86 -122.614C1058.91 -122.428 1058.94 -122.155 1058.94 -121.775L1062.94 -121.775C1062.94 -122.904 1062.76 -124.101 1062.12 -125.067C1061.38 -126.176 1060.23 -126.685 1059 -126.685L1059 -122.685ZM1058.94 -121.775C1058.94 -112.006 1055.92 -93.4611 1049.77 -65.9514L1053.67 -65.0788C1059.81 -92.5357 1062.94 -111.498 1062.94 -121.775L1058.94 -121.775ZM1049.77 -65.9514C1043.65 -38.5488 1034.61 -6.6033 1022.66 29.8926L1026.46 31.1373C1038.44 -5.44015 1047.51 -37.5147 1053.67 -65.0788L1049.77 -65.9514ZM1022.66 29.8876C1010.72 66.0415 997.325 100.901 982.478 134.466L986.137 136.084C1001.04 102.396 1014.48 67.415 1026.46 31.1423L1022.66 29.8876ZM982.478 134.466C967.672 167.942 950.152 196.215 929.937 219.318L932.948 221.952C953.473 198.494 971.196 169.862 986.137 136.084L982.478 134.466ZM929.947 219.308C909.763 242.054 889.893 253.07 870.332 253.07L870.332 257.07C891.512 257.07 912.382 245.129 932.938 221.962L929.947 219.308ZM870.332 253.07C858.606 253.07 849.176 246.986 842.007 234.206L838.518 236.163C846.223 249.897 856.839 257.07 870.332 257.07L870.332 253.07ZM842.015 234.221C835.118 221.682 831.593 205.074 831.593 184.26L827.593 184.26C827.593 205.479 831.18 222.821 838.51 236.149L842.015 234.221ZM831.593 184.26C831.593 163.26 836.679 144.047 846.841 126.581L843.384 124.569C832.853 142.67 827.593 162.58 827.593 184.26L831.593 184.26ZM846.849 126.567C848.102 124.374 849.212 122.849 850.164 121.897C851.152 120.909 851.719 120.785 851.902 120.785L851.902 116.785C850.146 116.785 848.611 117.793 847.336 119.068C846.025 120.379 844.71 122.249 843.376 124.583L846.849 126.567ZM851.902 120.785C852.094 120.785 852.245 120.828 852.459 121.072C852.731 121.384 853.072 122.011 853.357 123.15L857.238 122.18C856.876 120.732 856.328 119.419 855.469 118.438C854.55 117.388 853.327 116.785 851.902 116.785L851.902 120.785ZM853.574 121.651C850.152 127.467 847.194 137.301 844.603 150.906L848.532 151.654C851.114 138.099 853.976 128.856 857.021 123.679L853.574 121.651ZM844.605 150.897C841.993 164.28 840.687 177.827 840.687 191.535L844.687 191.535C844.687 178.083 845.969 164.793 848.53 151.663L844.605 150.897ZM840.687 191.535C840.687 210.727 843.279 225.435 848.689 235.411C851.411 240.429 854.869 244.292 859.1 246.892C863.336 249.495 868.236 250.765 873.727 250.765L873.727 246.765C868.872 246.765 864.719 245.65 861.195 243.484C857.666 241.315 854.657 238.024 852.206 233.504C847.27 224.403 844.687 210.496 844.687 191.535L840.687 191.535ZM1282.84 -62.1201L1281.4 -63.5001L1277.19 -59.0921L1283.19 -60.1505L1282.84 -62.1201ZM1345.89 -92.6751L1347.16 -91.1305L1345.89 -92.6751ZM1063.62 -46.1151L1062.17 -47.4919L1062.17 -47.4913L1063.62 -46.1151ZM1041.8 -85.8851L1043.1 -84.3666L1043.11 -84.3714L1043.11 -84.3763L1041.8 -85.8851ZM1163.53 -105.285L1162.55 -103.542L1162.57 -103.534L1162.58 -103.527L1163.53 -105.285ZM1213.49 -78.1251L1212.53 -76.3693L1212.54 -76.3657L1212.54 -76.3621L1213.49 -78.1251ZM1262.47 -61.1501L1262.25 -59.1623L1263.2 -59.057L1263.88 -59.7274L1262.47 -61.1501ZM1350.74 -89.2801L1351.98 -87.7051L1351.98 -87.7074L1350.74 -89.2801ZM1277.99 -56.7851L1277.68 -58.7598L1277 -58.6517L1276.54 -58.1542L1277.99 -56.7851ZM1116.49 134.305L1114.91 133.077L1114.91 133.078L1116.49 134.305ZM1034.04 260.405L1033.14 258.616L1033.03 258.672L1032.93 258.741L1034.04 260.405ZM1037.92 257.98L1037.18 256.123L1036.93 256.221L1036.72 256.38L1037.92 257.98ZM1041.8 256.04L1042.91 257.704L1041.8 256.04ZM1027.25 273.985L1026.09 272.357L1026.07 272.365L1026.06 272.374L1027.25 273.985ZM1083.99 142.065L1082.42 140.835L1082.41 140.839L1083.99 142.065ZM1256.17 -55.3301L1257.59 -53.9199L1260.9 -57.2488L1256.2 -57.3298L1256.17 -55.3301ZM1205.24 -64.0601L1204.51 -62.1976L1204.54 -62.1881L1204.56 -62.1793L1205.24 -64.0601ZM1170.81 -82.4901L1172.06 -84.0518L1172.05 -84.0563L1170.81 -82.4901ZM1047.13 -79.5801L1048.57 -78.19L1047.13 -79.5801ZM1056.83 -47.0851L1055.39 -48.4652L1055.38 -48.4563L1055.37 -48.4473L1056.83 -47.0851ZM1084.48 -86.3701L1082.73 -87.3414L1082.68 -87.2464L1082.64 -87.1462L1084.48 -86.3701ZM1377.96 -130.505C1377.96 -132.326 1377.45 -134.042 1376.09 -135.265C1374.77 -136.453 1372.99 -136.87 1371.11 -136.87L1371.11 -132.87C1372.47 -132.87 1373.12 -132.56 1373.41 -132.292C1373.67 -132.06 1373.96 -131.594 1373.96 -130.505L1377.96 -130.505ZM1371.11 -136.87C1367.41 -136.87 1362.83 -135.127 1357.5 -132.056C1352.12 -128.947 1345.72 -124.324 1338.32 -118.226C1323.51 -106.026 1304.53 -87.7718 1281.4 -63.5001L1284.29 -60.74C1307.39 -84.9684 1326.24 -103.089 1340.86 -115.139C1348.17 -121.166 1354.38 -125.637 1359.5 -128.591C1364.69 -131.581 1368.51 -132.87 1371.11 -132.87L1371.11 -136.87ZM1283.19 -60.1505C1305.57 -64.0995 1326.9 -74.4576 1347.16 -91.1305L1344.62 -94.2197C1324.8 -77.9125 1304.09 -67.9007 1282.5 -64.0896L1283.19 -60.1505ZM1347.16 -91.1305C1357.24 -99.4178 1364.88 -106.795 1370.01 -113.256C1375.1 -119.653 1377.96 -125.44 1377.96 -130.505L1373.96 -130.505C1373.96 -126.84 1371.82 -121.958 1366.88 -115.745C1361.99 -109.596 1354.6 -102.422 1344.62 -94.2197L1347.16 -91.1305ZM1088.78 -87.8251C1088.78 -84.0633 1086.79 -78.8155 1082.32 -71.9414C1077.88 -65.1327 1071.19 -56.9868 1062.17 -47.4919L1065.07 -44.7382C1074.17 -54.32 1081.05 -62.6641 1085.67 -69.7587C1090.25 -76.788 1092.78 -82.8568 1092.78 -87.8251L1088.78 -87.8251ZM1062.17 -47.4913C1053.35 -38.1894 1045.24 -31.2866 1037.84 -26.7196C1030.43 -22.149 1023.84 -19.9851 1018.03 -19.9851L1018.03 -15.9851C1024.83 -15.9851 1032.15 -18.5095 1039.94 -23.3155C1047.73 -28.1252 1056.11 -35.2874 1065.07 -44.7389L1062.17 -47.4913ZM1018.03 -19.9851C1013.76 -19.9851 1010.93 -20.9433 1009.18 -22.5082C1007.47 -24.0346 1006.45 -26.439 1006.45 -30.1101L1002.45 -30.1101C1002.45 -25.6978 1003.7 -22.0397 1006.52 -19.5245C1009.29 -17.0477 1013.25 -15.9851 1018.03 -15.9851L1018.03 -19.9851ZM1006.45 -30.1101C1006.45 -37.5033 1009.36 -45.7266 1015.45 -54.8236C1021.54 -63.9161 1030.73 -73.7653 1043.1 -84.3666L1040.5 -87.4036C1027.97 -76.6649 1018.49 -66.5482 1012.13 -57.0491C1005.77 -47.5543 1002.45 -38.5601 1002.45 -30.1101L1006.45 -30.1101ZM1043.11 -84.3763C1067.68 -105.752 1094.87 -116.38 1124.73 -116.38L1124.73 -120.38C1093.81 -120.38 1065.71 -109.345 1040.49 -87.3939L1043.11 -84.3763ZM1124.73 -116.38C1134.57 -116.38 1147.14 -112.209 1162.55 -103.542L1164.51 -107.028C1148.88 -115.821 1135.59 -120.38 1124.73 -120.38L1124.73 -116.38ZM1162.58 -103.527C1178.1 -95.1209 1194.75 -86.0685 1212.53 -76.3693L1214.45 -79.8809C1196.66 -89.5817 1180.01 -98.636 1164.49 -107.044L1162.58 -103.527ZM1212.54 -76.3621C1230.79 -66.5867 1247.37 -60.816 1262.25 -59.1623L1262.69 -63.1379C1248.48 -64.7175 1232.4 -70.2634 1214.43 -79.888L1212.54 -76.3621ZM1263.88 -59.7274C1291.01 -86.5339 1313.72 -106.582 1332.04 -119.916C1341.19 -126.582 1349.21 -131.54 1356.09 -134.823C1363 -138.118 1368.63 -139.66 1373.05 -139.66L1373.05 -143.66C1367.78 -143.66 1361.53 -141.847 1354.37 -138.433C1347.19 -135.008 1338.95 -129.901 1329.68 -123.149C1311.13 -109.646 1288.26 -89.4396 1261.07 -62.5727L1263.88 -59.7274ZM1373.05 -139.66C1376.74 -139.66 1379.14 -138.959 1380.58 -137.878C1381.92 -136.878 1382.69 -135.352 1382.69 -132.93L1386.69 -132.93C1386.69 -136.328 1385.53 -139.167 1382.98 -141.078C1380.54 -142.907 1377.13 -143.66 1373.05 -143.66L1373.05 -139.66ZM1382.69 -132.93C1382.69 -127.92 1380.17 -121.886 1374.63 -114.758C1369.11 -107.662 1360.76 -99.6933 1349.51 -90.8527L1351.98 -87.7074C1363.36 -96.6502 1371.99 -104.848 1377.78 -112.302C1383.56 -119.725 1386.69 -126.624 1386.69 -132.93L1382.69 -132.93ZM1349.51 -90.8551C1327.45 -73.589 1303.51 -62.9059 1277.68 -58.7598L1278.31 -54.8104C1304.86 -59.071 1329.42 -70.0512 1351.98 -87.7051L1349.51 -90.8551ZM1276.54 -58.1542C1226.69 -5.0716 1172.81 58.6746 1114.91 133.077L1118.07 135.533C1175.92 61.202 1229.71 -2.44523 1279.45 -55.416L1276.54 -58.1542ZM1114.91 133.078C1086.13 170.109 1064.51 199.124 1050.09 220.108C1042.88 230.597 1037.45 239.113 1033.81 245.638C1031.99 248.899 1030.6 251.699 1029.65 254.023C1028.73 256.293 1028.16 258.305 1028.16 259.92L1032.16 259.92C1032.16 259.11 1032.48 257.692 1033.36 255.526C1034.22 253.414 1035.52 250.773 1037.3 247.587C1040.85 241.22 1046.21 232.821 1053.39 222.374C1067.74 201.487 1089.3 172.544 1118.07 135.532L1114.91 133.078ZM1028.16 259.92C1028.16 260.564 1028.25 261.397 1028.74 262.121C1029.31 262.988 1030.22 263.375 1031.13 263.375L1031.13 259.375C1031.22 259.375 1031.39 259.393 1031.6 259.495C1031.81 259.602 1031.97 259.756 1032.07 259.902C1032.11 259.969 1032.14 260.026 1032.15 260.064C1032.17 260.101 1032.17 260.123 1032.17 260.123C1032.17 260.123 1032.17 260.107 1032.16 260.071C1032.16 260.036 1032.16 259.986 1032.16 259.92L1028.16 259.92ZM1031.13 263.375C1032.57 263.375 1033.92 262.89 1035.15 262.069L1032.93 258.741C1032.22 259.213 1031.63 259.375 1031.13 259.375L1031.13 263.375ZM1034.93 262.194C1036.35 261.488 1037.74 260.614 1039.12 259.58L1036.72 256.38C1035.51 257.286 1034.32 258.029 1033.14 258.616L1034.93 262.194ZM1038.66 259.837C1040.35 259.161 1041.78 258.455 1042.91 257.704L1040.69 254.376C1039.88 254.918 1038.72 255.505 1037.18 256.123L1038.66 259.837ZM1042.91 257.704C1043.36 257.403 1043.69 257.21 1043.91 257.101C1043.96 257.075 1044 257.057 1044.03 257.045C1044.06 257.032 1044.07 257.028 1044.07 257.028C1044.07 257.028 1044.04 257.037 1043.99 257.046C1043.95 257.055 1043.86 257.07 1043.74 257.07L1043.74 253.07C1043.07 253.07 1042.46 253.354 1042.12 253.524C1041.69 253.738 1041.21 254.031 1040.69 254.376L1042.91 257.704ZM1043.74 257.07C1043.25 257.07 1042.83 256.864 1042.54 256.575C1042.3 256.335 1042.22 256.107 1042.2 256.066C1042.18 255.996 1042.22 256.098 1042.22 256.525L1046.22 256.525C1046.22 255.982 1046.18 255.356 1046 254.801C1045.83 254.297 1045.23 253.07 1043.74 253.07L1043.74 257.07ZM1042.22 256.525C1042.22 256.904 1042.06 257.568 1041.45 258.584C1040.85 259.579 1039.9 260.771 1038.55 262.163C1035.84 264.948 1031.71 268.344 1026.09 272.357L1028.41 275.612C1034.11 271.543 1038.46 267.987 1041.41 264.952C1042.89 263.434 1044.06 261.999 1044.88 260.65C1045.68 259.321 1046.22 257.924 1046.22 256.525L1042.22 256.525ZM1026.06 272.374C1020.61 276.387 1016.04 279.356 1012.37 281.313C1008.61 283.309 1006.03 284.11 1004.45 284.11L1004.45 288.11C1007.08 288.11 1010.4 286.89 1014.24 284.844C1018.16 282.76 1022.9 279.666 1028.43 275.596L1026.06 272.374ZM1004.45 284.11C1002.24 284.11 1000.93 283.498 1000.13 282.599C999.289 281.654 998.694 280.036 998.694 277.38L994.694 277.38C994.694 280.544 995.392 283.291 997.139 285.256C998.926 287.267 1001.49 288.11 1004.45 288.11L1004.45 284.11ZM998.694 277.38C998.694 274.072 1000.32 268.761 1003.95 261.244C1007.54 253.811 1012.95 244.481 1020.2 233.238C1034.7 210.757 1056.49 180.781 1085.57 143.291L1082.41 140.839C1053.3 178.362 1031.43 208.445 1016.84 231.069C1009.54 242.379 1004.04 251.863 1000.35 259.505C996.701 267.064 994.694 273.09 994.694 277.38L998.694 277.38ZM1085.57 143.295C1144.05 68.3333 1201.39 2.59712 1257.59 -53.9199L1254.75 -56.7402C1198.42 -0.0906123 1140.98 65.7699 1082.42 140.835L1085.57 143.295ZM1256.2 -57.3298C1237.64 -57.6499 1220.88 -60.5301 1205.92 -65.9408L1204.56 -62.1793C1220 -56.5968 1237.2 -53.6569 1256.13 -53.3304L1256.2 -57.3298ZM1205.97 -65.9226C1191.2 -71.7044 1179.92 -77.7599 1172.06 -84.0518L1169.56 -80.9283C1177.86 -74.2869 1189.54 -68.0557 1204.51 -62.1976L1205.97 -65.9226ZM1172.05 -84.0563C1149.83 -101.703 1127.9 -110.68 1106.3 -110.68L1106.3 -106.68C1126.74 -106.68 1147.81 -98.1973 1169.56 -80.9238L1172.05 -84.0563ZM1106.3 -110.68C1084.92 -110.68 1064.71 -100.636 1045.7 -80.9701L1048.57 -78.19C1067.07 -97.3242 1086.3 -106.68 1106.3 -106.68L1106.3 -110.68ZM1045.7 -80.9701C1036.26 -71.2047 1029.11 -62.2688 1024.31 -54.1662C1019.53 -46.0788 1017 -38.6875 1017 -32.0501L1021 -32.0501C1021 -37.6993 1023.17 -44.373 1027.76 -52.1289C1032.34 -59.8697 1039.26 -68.5554 1048.57 -78.19L1045.7 -80.9701ZM1017 -32.0501C1017 -29.8816 1017.45 -27.8829 1018.68 -26.4047C1019.97 -24.8566 1021.82 -24.2301 1023.85 -24.2301L1023.85 -28.2301C1022.65 -28.2301 1022.08 -28.5735 1021.75 -28.9654C1021.37 -29.4272 1021 -30.3385 1021 -32.0501L1017 -32.0501ZM1023.85 -24.2301C1028.89 -24.2301 1034.27 -26.1591 1039.96 -29.7534C1045.65 -33.3527 1051.76 -38.6974 1058.3 -45.7229L1055.37 -48.4473C1048.97 -41.5694 1043.12 -36.4866 1037.82 -33.1342C1032.51 -29.7768 1027.87 -28.2301 1023.85 -28.2301L1023.85 -24.2301ZM1058.28 -45.7049C1071.64 -59.713 1081.02 -73.0083 1086.32 -85.594L1082.64 -87.1462C1077.59 -75.1586 1068.54 -62.2638 1055.39 -48.4652L1058.28 -45.7049ZM1086.23 -85.3988C1087.02 -86.8232 1087.65 -87.8095 1088.12 -88.4159C1088.36 -88.7234 1088.51 -88.8663 1088.56 -88.9143C1088.68 -89.0068 1088.42 -88.7351 1087.87 -88.7351L1087.87 -92.7351C1087.01 -92.7351 1086.36 -92.2814 1086.03 -92.0102C1085.65 -91.6944 1085.29 -91.2918 1084.96 -90.8717C1084.3 -90.0231 1083.56 -88.8269 1082.73 -87.3414L1086.23 -85.3988ZM1087.87 -88.7351C1088.2 -88.7351 1088.4 -88.6938 1088.51 -88.6558C1088.57 -88.6375 1088.6 -88.6207 1088.62 -88.6109C1088.63 -88.6015 1088.64 -88.5955 1088.64 -88.5934C1088.64 -88.5913 1088.65 -88.585 1088.66 -88.5694C1088.67 -88.553 1088.69 -88.5208 1088.7 -88.4657C1088.74 -88.3517 1088.78 -88.1494 1088.78 -87.8251L1092.78 -87.8251C1092.78 -89.1034 1092.46 -90.4294 1091.47 -91.4218C1090.48 -92.4142 1089.15 -92.7351 1087.87 -92.7351L1087.87 -88.7351Z" fill="white" mask="url(#path-3-outside-1_42_199)"/>
<path d="M406.658 125.08C406.658 120.52 407.778 116.56 410.018 113.2C412.258 109.84 415.418 107.24 419.498 105.4C423.578 103.56 428.378 102.68 433.898 102.76C436.458 102.76 439.058 102.96 441.698 103.36C444.338 103.76 446.818 104.32 449.138 105.04L446.498 124.96C445.218 124.56 444.018 124.24 442.898 124C441.778 123.76 440.738 123.64 439.778 123.64C438.498 123.56 437.378 123.76 436.418 124.24C435.538 124.64 434.818 125.28 434.258 126.16C433.778 126.96 433.538 127.96 433.538 129.16L433.538 193L406.658 193L406.658 125.08ZM397.658 130.96L446.258 130.96L446.258 148L397.658 148L397.658 130.96ZM485.06 126.4C492.58 126.4 499.1 127.8 504.62 130.6C510.22 133.32 514.54 137.2 517.58 142.24C520.62 147.28 522.14 153.24 522.14 160.12C522.14 166.92 520.62 172.88 517.58 178C514.54 183.04 510.22 186.96 504.62 189.76C499.1 192.56 492.58 193.96 485.06 193.96C477.54 193.96 470.98 192.56 465.38 189.76C459.86 186.96 455.58 183.04 452.54 178C449.5 172.88 447.98 166.92 447.98 160.12C447.98 153.24 449.5 147.28 452.54 142.24C455.58 137.2 459.86 133.32 465.38 130.6C470.98 127.8 477.54 126.4 485.06 126.4ZM485.06 147.76C483.06 147.76 481.3 148.28 479.78 149.32C478.34 150.36 477.22 151.84 476.42 153.76C475.62 155.68 475.22 157.92 475.22 160.48C475.22 163.04 475.62 165.28 476.42 167.2C477.22 169.12 478.34 170.6 479.78 171.64C481.3 172.68 483.06 173.2 485.06 173.2C487.06 173.2 488.78 172.68 490.22 171.64C491.74 170.6 492.9 169.12 493.7 167.2C494.5 165.28 494.9 163.04 494.9 160.48C494.9 157.92 494.5 155.68 493.7 153.76C492.9 151.84 491.74 150.36 490.22 149.32C488.78 148.28 487.06 147.76 485.06 147.76ZM578.632 150.52C574.632 149.88 571.112 149.92 568.072 150.64C565.032 151.36 562.672 152.68 560.992 154.6C559.392 156.44 558.592 158.8 558.592 161.68L552.592 160.48C552.592 153.52 553.672 147.48 555.832 142.36C557.992 137.16 560.992 133.16 564.832 130.36C568.752 127.56 573.352 126.16 578.632 126.16L578.632 150.52ZM531.592 127.36L558.592 127.36L558.592 193L531.592 193L531.592 127.36ZM663.26 197.56C660.54 204.36 656.82 209.36 652.1 212.56C647.38 215.84 641.5 217.48 634.46 217.48C630.14 217.48 626.14 216.84 622.46 215.56C618.86 214.36 615.3 212.44 611.78 209.8L623.06 192.04C625.86 194.6 628.78 195.88 631.82 195.88C633.42 195.88 634.74 195.6 635.78 195.04C636.82 194.48 637.66 193.64 638.3 192.52L639.26 190.96L612.02 127.36L639.74 127.36L652.7 164.8L663.38 127.36L690.26 127.36L663.26 197.56ZM727.185 126.4C734.705 126.4 741.225 127.8 746.745 130.6C752.345 133.32 756.665 137.2 759.705 142.24C762.745 147.28 764.265 153.24 764.265 160.12C764.265 166.92 762.745 172.88 759.705 178C756.665 183.04 752.345 186.96 746.745 189.76C741.225 192.56 734.705 193.96 727.185 193.96C719.665 193.96 713.105 192.56 707.505 189.76C701.985 186.96 697.705 183.04 694.665 178C691.625 172.88 690.105 166.92 690.105 160.12C690.105 153.24 691.625 147.28 694.665 142.24C697.705 137.2 701.985 133.32 707.505 130.6C713.105 127.8 719.665 126.4 727.185 126.4ZM727.185 147.76C725.185 147.76 723.425 148.28 721.905 149.32C720.465 150.36 719.345 151.84 718.545 153.76C717.745 155.68 717.345 157.92 717.345 160.48C717.345 163.04 717.745 165.28 718.545 167.2C719.345 169.12 720.465 170.6 721.905 171.64C723.425 172.68 725.185 173.2 727.185 173.2C729.185 173.2 730.905 172.68 732.345 171.64C733.865 170.6 735.025 169.12 735.825 167.2C736.625 165.28 737.025 163.04 737.025 160.48C737.025 157.92 736.625 155.68 735.825 153.76C735.025 151.84 733.865 150.36 732.345 149.32C730.905 148.28 729.185 147.76 727.185 147.76ZM798.917 161.44C798.917 164.16 799.557 166.36 800.837 168.04C802.197 169.64 803.957 170.44 806.117 170.44C808.597 170.44 810.557 169.48 811.997 167.56C813.437 165.64 814.157 163.08 814.157 159.88L820.157 159.88C820.157 166.84 819.117 172.88 817.037 178C815.037 183.12 812.157 187.12 808.397 190C804.637 192.8 800.117 194.2 794.837 194.2C790.357 194.2 786.397 193.16 782.957 191.08C779.517 189 776.797 186.12 774.797 182.44C772.877 178.68 771.917 174.28 771.917 169.24L771.917 127.36L798.917 127.36L798.917 161.44ZM814.157 127.36L841.157 127.36L841.157 193L814.157 193L814.157 127.36Z" fill="#0AFF02"/>
</g>
</svg>
